<svg width="74" height="73" viewBox="0 0 74 73" fill="none" xmlns="http://www.w3.org/2000/svg">
<g filter="url(#filter0_d_520_49)">
<circle cx="32.5" cy="32.5" r="32.5" fill="#F3F0F0"/>
</g>
<g clip-path="url(#clip0_520_49)">
<path d="M28.4286 30.8573C31.5846 30.8573 34.1429 28.2989 34.1429 25.143C34.1429 21.9871 31.5846 19.4287 28.4286 19.4287C25.2727 19.4287 22.7144 21.9871 22.7144 25.143C22.7144 28.2989 25.2727 30.8573 28.4286 30.8573Z" stroke="black" stroke-width="4" stroke-linecap="round" stroke-linejoin="round"/>
<path d="M18.1431 46.8571H28.4288H38.7145V45.618C38.6963 43.8756 38.2368 42.1666 37.379 40.65C36.5212 39.1337 35.293 37.8593 33.8092 36.9462C32.3254 36.033 30.6343 35.5109 28.894 35.4285C28.7388 35.4212 28.5837 35.4173 28.4288 35.417C28.2739 35.4173 28.1187 35.4212 27.9636 35.4285C26.2233 35.5109 24.5322 36.033 23.0484 36.9462C21.5646 37.8593 20.3364 39.1337 19.4785 40.65C18.6207 42.1666 18.1613 43.8756 18.1431 45.618V46.8571Z" stroke="black" stroke-width="4" stroke-linecap="round" stroke-linejoin="round"/>
<path d="M37.5713 30.8573C40.7272 30.8573 43.2856 28.2989 43.2856 25.143C43.2856 21.9871 40.7272 19.4287 37.5713 19.4287" stroke="black" stroke-width="4" stroke-linecap="round" stroke-linejoin="round"/>
<path d="M43.2855 46.8571H47.8569V45.618C47.8386 43.8756 47.3792 42.1666 46.5214 40.65C45.6636 39.1337 44.4354 37.8593 42.9516 36.9462C41.9925 36.3559 40.9465 35.929 39.8569 35.6787" stroke="black" stroke-width="4" stroke-linecap="round" stroke-linejoin="round"/>
</g>
<defs>
<filter id="filter0_d_520_49" x="0" y="0" width="74" height="73" filterUnits="userSpaceOnUse" color-interpolation-filters="sRGB">
<feFlood flood-opacity="0" result="BackgroundImageFix"/>
<feColorMatrix in="SourceAlpha" type="matrix" values="0 0 0 0 0 0 0 0 0 0 0 0 0 0 0 0 0 0 127 0" result="hardAlpha"/>
<feOffset dx="5" dy="4"/>
<feGaussianBlur stdDeviation="2"/>
<feComposite in2="hardAlpha" operator="out"/>
<feColorMatrix type="matrix" values="0 0 0 0 0 0 0 0 0 0 0 0 0 0 0 0 0 0 0.25 0"/>
<feBlend mode="normal" in2="BackgroundImageFix" result="effect1_dropShadow_520_49"/>
<feBlend mode="normal" in="SourceGraphic" in2="effect1_dropShadow_520_49" result="shape"/>
</filter>
<clipPath id="clip0_520_49">
<rect width="32" height="32" fill="white" transform="translate(17 16)"/>
</clipPath>
</defs>
</svg>
