<svg width="653" height="189" viewBox="0 0 653 189" fill="none" xmlns="http://www.w3.org/2000/svg">
<g filter="url(#filter0_d_991_2)">
<path d="M220.42 169.6C217.34 169.6 214.48 169.06 211.84 167.98C209.24 166.86 206.94 165.32 204.94 163.36C202.98 161.4 201.44 159.12 200.32 156.52C199.24 153.88 198.7 151.04 198.7 148C198.7 144.92 199.24 142.08 200.32 139.48C201.44 136.84 202.98 134.54 204.94 132.58C206.94 130.62 209.24 129.1 211.84 128.02C214.48 126.94 217.34 126.4 220.42 126.4C222.46 126.4 224.42 126.64 226.3 127.12C228.22 127.56 229.96 128.26 231.52 129.22C231.92 129.42 232.2 129.7 232.36 130.06C232.56 130.42 232.66 130.8 232.66 131.2C232.66 131.88 232.42 132.46 231.94 132.94C231.5 133.42 230.98 133.66 230.38 133.66C230.14 133.66 229.9 133.62 229.66 133.54C229.46 133.46 229.24 133.38 229 133.3C227.76 132.66 226.42 132.16 224.98 131.8C223.54 131.4 222.02 131.2 220.42 131.2C217.26 131.2 214.42 131.94 211.9 133.42C209.42 134.9 207.46 136.9 206.02 139.42C204.58 141.94 203.86 144.8 203.86 148C203.86 151.16 204.58 154.02 206.02 156.58C207.46 159.1 209.42 161.1 211.9 162.58C214.42 164.06 217.26 164.8 220.42 164.8C222.02 164.8 223.66 164.58 225.34 164.14C227.06 163.7 228.52 163.14 229.72 162.46L229.3 163.9V151.24L230.26 152.08H221.08C220.4 152.08 219.82 151.86 219.34 151.42C218.9 150.94 218.68 150.36 218.68 149.68C218.68 149 218.9 148.44 219.34 148C219.82 147.52 220.4 147.28 221.08 147.28H232C232.72 147.28 233.3 147.52 233.74 148C234.18 148.48 234.4 149.06 234.4 149.74V163.6C234.4 164.08 234.28 164.5 234.04 164.86C233.84 165.22 233.56 165.52 233.2 165.76C231.4 166.92 229.4 167.86 227.2 168.58C225.04 169.26 222.78 169.6 220.42 169.6ZM256.499 169.6C253.299 169.6 250.499 168.92 248.099 167.56C245.699 166.2 243.819 164.34 242.459 161.98C241.139 159.58 240.479 156.82 240.479 153.7C240.479 150.22 241.159 147.26 242.519 144.82C243.919 142.34 245.719 140.46 247.919 139.18C250.159 137.86 252.519 137.2 254.999 137.2C256.839 137.2 258.619 137.54 260.339 138.22C262.059 138.9 263.579 139.9 264.899 141.22C266.219 142.5 267.279 144.06 268.079 145.9C268.879 147.7 269.299 149.72 269.339 151.96C269.339 152.6 269.099 153.14 268.619 153.58C268.139 154.02 267.579 154.24 266.939 154.24H243.239L242.159 150.1H265.259L264.299 150.94V149.62C264.139 147.98 263.579 146.58 262.619 145.42C261.699 144.22 260.559 143.3 259.199 142.66C257.879 142.02 256.479 141.7 254.999 141.7C253.799 141.7 252.599 141.92 251.399 142.36C250.239 142.76 249.179 143.44 248.219 144.4C247.299 145.32 246.539 146.52 245.939 148C245.379 149.48 245.099 151.26 245.099 153.34C245.099 155.66 245.559 157.7 246.479 159.46C247.439 161.22 248.759 162.62 250.439 163.66C252.119 164.66 254.079 165.16 256.319 165.16C257.719 165.16 258.939 164.98 259.979 164.62C261.019 164.26 261.919 163.82 262.679 163.3C263.439 162.74 264.079 162.18 264.599 161.62C265.119 161.26 265.619 161.08 266.099 161.08C266.699 161.08 267.179 161.28 267.539 161.68C267.939 162.08 268.139 162.56 268.139 163.12C268.139 163.8 267.819 164.4 267.179 164.92C266.059 166.16 264.539 167.26 262.619 168.22C260.699 169.14 258.659 169.6 256.499 169.6ZM306.013 153.4C306.013 156.52 305.313 159.3 303.913 161.74C302.553 164.18 300.693 166.1 298.333 167.5C296.013 168.9 293.393 169.6 290.473 169.6C287.553 169.6 284.913 168.9 282.553 167.5C280.193 166.1 278.313 164.18 276.913 161.74C275.553 159.3 274.873 156.52 274.873 153.4C274.873 150.28 275.553 147.5 276.913 145.06C278.313 142.62 280.193 140.7 282.553 139.3C284.913 137.9 287.553 137.2 290.473 137.2C293.393 137.2 296.013 137.9 298.333 139.3C300.693 140.7 302.553 142.62 303.913 145.06C305.313 147.5 306.013 150.28 306.013 153.4ZM301.213 153.4C301.213 151.08 300.733 149.04 299.773 147.28C298.853 145.52 297.573 144.14 295.933 143.14C294.333 142.14 292.513 141.64 290.473 141.64C288.433 141.64 286.593 142.14 284.953 143.14C283.353 144.14 282.073 145.52 281.113 147.28C280.153 149.04 279.673 151.08 279.673 153.4C279.673 155.68 280.153 157.7 281.113 159.46C282.073 161.22 283.353 162.62 284.953 163.66C286.593 164.66 288.433 165.16 290.473 165.16C292.513 165.16 294.333 164.66 295.933 163.66C297.573 162.62 298.853 161.22 299.773 159.46C300.733 157.7 301.213 155.68 301.213 153.4ZM328.533 137.5C331.253 137.5 333.693 138.18 335.853 139.54C338.013 140.9 339.713 142.78 340.953 145.18C342.233 147.58 342.873 150.34 342.873 153.46C342.873 156.54 342.233 159.3 340.953 161.74C339.713 164.14 338.013 166.04 335.853 167.44C333.733 168.8 331.333 169.48 328.653 169.48C327.173 169.48 325.773 169.26 324.453 168.82C323.173 168.34 321.993 167.74 320.913 167.02C319.873 166.26 318.993 165.42 318.273 164.5C317.553 163.54 317.033 162.6 316.713 161.68L318.033 160.84V178.54C318.033 179.22 317.813 179.8 317.373 180.28C316.933 180.76 316.353 181 315.633 181C314.953 181 314.373 180.76 313.893 180.28C313.453 179.84 313.233 179.26 313.233 178.54V140.2C313.233 139.52 313.453 138.96 313.893 138.52C314.373 138.04 314.953 137.8 315.633 137.8C316.353 137.8 316.933 138.04 317.373 138.52C317.813 138.96 318.033 139.52 318.033 140.2V145.54L317.133 145.06C317.413 144.06 317.893 143.1 318.573 142.18C319.293 141.26 320.153 140.46 321.153 139.78C322.193 139.06 323.333 138.5 324.573 138.1C325.853 137.7 327.173 137.5 328.533 137.5ZM327.993 141.94C325.993 141.94 324.213 142.44 322.653 143.44C321.133 144.44 319.933 145.8 319.053 147.52C318.213 149.24 317.793 151.22 317.793 153.46C317.793 155.66 318.213 157.64 319.053 159.4C319.933 161.16 321.133 162.54 322.653 163.54C324.213 164.54 325.993 165.04 327.993 165.04C329.993 165.04 331.753 164.54 333.273 163.54C334.793 162.54 335.993 161.16 336.873 159.4C337.753 157.64 338.193 155.66 338.193 153.46C338.193 151.22 337.753 149.24 336.873 147.52C335.993 145.8 334.793 144.44 333.273 143.44C331.753 142.44 329.993 141.94 327.993 141.94ZM375.648 137.68C376.328 137.68 376.888 137.92 377.328 138.4C377.808 138.84 378.048 139.4 378.048 140.08V166.54C378.048 167.22 377.808 167.8 377.328 168.28C376.888 168.76 376.328 169 375.648 169C374.928 169 374.348 168.76 373.908 168.28C373.468 167.8 373.248 167.22 373.248 166.54V160.84L374.388 160.72C374.388 161.6 374.088 162.56 373.488 163.6C372.888 164.64 372.068 165.62 371.028 166.54C369.988 167.42 368.748 168.16 367.308 168.76C365.908 169.32 364.388 169.6 362.748 169.6C360.028 169.6 357.588 168.9 355.428 167.5C353.268 166.06 351.548 164.12 350.268 161.68C349.028 159.24 348.408 156.46 348.408 153.34C348.408 150.18 349.028 147.4 350.268 145C351.548 142.56 353.268 140.66 355.428 139.3C357.588 137.9 359.988 137.2 362.628 137.2C364.348 137.2 365.948 137.48 367.428 138.04C368.908 138.6 370.188 139.36 371.268 140.32C372.388 141.28 373.248 142.34 373.848 143.5C374.488 144.66 374.808 145.82 374.808 146.98L373.248 146.62V140.08C373.248 139.4 373.468 138.84 373.908 138.4C374.348 137.92 374.928 137.68 375.648 137.68ZM363.288 165.16C365.288 165.16 367.048 164.64 368.568 163.6C370.128 162.56 371.328 161.16 372.168 159.4C373.048 157.6 373.488 155.58 373.488 153.34C373.488 151.14 373.048 149.16 372.168 147.4C371.328 145.6 370.128 144.2 368.568 143.2C367.048 142.16 365.288 141.64 363.288 141.64C361.328 141.64 359.568 142.14 358.008 143.14C356.488 144.14 355.288 145.52 354.408 147.28C353.528 149.04 353.088 151.06 353.088 153.34C353.088 155.58 353.508 157.6 354.348 159.4C355.228 161.16 356.428 162.56 357.948 163.6C359.508 164.64 361.288 165.16 363.288 165.16ZM389.344 169C388.664 169 388.084 168.76 387.604 168.28C387.164 167.8 386.944 167.22 386.944 166.54V140.38C386.944 139.7 387.164 139.14 387.604 138.7C388.084 138.22 388.664 137.98 389.344 137.98C390.064 137.98 390.644 138.22 391.084 138.7C391.524 139.14 391.744 139.7 391.744 140.38V148.3L391.024 147.04C391.264 145.8 391.684 144.6 392.284 143.44C392.924 142.24 393.724 141.18 394.684 140.26C395.644 139.3 396.744 138.56 397.984 138.04C399.224 137.48 400.584 137.2 402.064 137.2C402.944 137.2 403.744 137.42 404.464 137.86C405.224 138.26 405.604 138.84 405.604 139.6C405.604 140.44 405.384 141.06 404.944 141.46C404.504 141.86 404.004 142.06 403.444 142.06C402.924 142.06 402.424 141.96 401.944 141.76C401.464 141.52 400.864 141.4 400.144 141.4C399.144 141.4 398.144 141.68 397.144 142.24C396.184 142.76 395.284 143.52 394.444 144.52C393.644 145.52 392.984 146.66 392.464 147.94C391.984 149.18 391.744 150.52 391.744 151.96V166.54C391.744 167.22 391.504 167.8 391.024 168.28C390.584 168.76 390.024 169 389.344 169ZM413.906 169C413.186 169 412.606 168.76 412.166 168.28C411.726 167.8 411.506 167.22 411.506 166.54V127C411.506 126.32 411.726 125.76 412.166 125.32C412.606 124.84 413.186 124.6 413.906 124.6C414.586 124.6 415.146 124.84 415.586 125.32C416.066 125.76 416.306 126.32 416.306 127V166.54C416.306 167.22 416.066 167.8 415.586 168.28C415.146 168.76 414.586 169 413.906 169ZM433.826 137.8C434.466 137.8 435.006 138.06 435.446 138.58C435.926 139.06 436.166 139.56 436.166 140.08C436.166 140.76 435.846 141.36 435.206 141.88L415.766 158.86L415.586 153.28L432.146 138.52C432.626 138.04 433.186 137.8 433.826 137.8ZM434.486 168.94C433.806 168.94 433.206 168.68 432.686 168.16L419.906 154.54L423.506 151.24L436.166 164.8C436.646 165.32 436.886 165.92 436.886 166.6C436.886 167.32 436.606 167.9 436.046 168.34C435.486 168.74 434.966 168.94 434.486 168.94Z" fill="white"/>
<path d="M491.442 129.76C492.122 130.12 492.502 130.66 492.582 131.38C492.702 132.1 492.522 132.76 492.042 133.36C491.682 133.88 491.222 134.16 490.662 134.2C490.102 134.24 489.542 134.12 488.982 133.84C487.662 133.04 486.242 132.42 484.722 131.98C483.202 131.5 481.602 131.26 479.922 131.26C477.562 131.26 475.402 131.68 473.442 132.52C471.482 133.32 469.782 134.46 468.342 135.94C466.902 137.42 465.782 139.18 464.982 141.22C464.182 143.26 463.782 145.52 463.782 148C463.782 150.64 464.202 153 465.042 155.08C465.882 157.16 467.022 158.94 468.462 160.42C469.942 161.86 471.642 162.96 473.562 163.72C475.522 164.48 477.642 164.86 479.922 164.86C481.562 164.86 483.142 164.64 484.662 164.2C486.182 163.76 487.622 163.12 488.982 162.28C489.542 162 490.102 161.9 490.662 161.98C491.222 162.06 491.702 162.34 492.102 162.82C492.582 163.46 492.762 164.14 492.642 164.86C492.522 165.54 492.142 166.04 491.502 166.36C490.502 166.96 489.362 167.52 488.082 168.04C486.802 168.52 485.462 168.9 484.062 169.18C482.702 169.46 481.322 169.6 479.922 169.6C477.042 169.6 474.322 169.1 471.762 168.1C469.202 167.1 466.942 165.66 464.982 163.78C463.022 161.9 461.462 159.64 460.302 157C459.182 154.32 458.622 151.32 458.622 148C458.622 144.88 459.162 142.02 460.242 139.42C461.322 136.82 462.822 134.56 464.742 132.64C466.702 130.72 468.962 129.22 471.522 128.14C474.122 127.06 476.922 126.52 479.922 126.52C482.002 126.52 484.022 126.8 485.982 127.36C487.982 127.92 489.802 128.72 491.442 129.76ZM503.654 166.54C503.654 167.22 503.414 167.8 502.934 168.28C502.494 168.76 501.934 169 501.254 169C500.534 169 499.954 168.76 499.514 168.28C499.074 167.8 498.854 167.22 498.854 166.54V139.9C498.854 139.22 499.074 138.66 499.514 138.22C499.994 137.74 500.574 137.5 501.254 137.5C501.934 137.5 502.494 137.74 502.934 138.22C503.414 138.66 503.654 139.22 503.654 139.9V166.54ZM501.254 133.48C500.254 133.48 499.514 133.28 499.034 132.88C498.554 132.48 498.314 131.86 498.314 131.02V130.18C498.314 129.34 498.574 128.72 499.094 128.32C499.614 127.92 500.354 127.72 501.314 127.72C502.274 127.72 502.994 127.92 503.474 128.32C503.954 128.72 504.194 129.34 504.194 130.18V131.02C504.194 131.86 503.934 132.48 503.414 132.88C502.934 133.28 502.214 133.48 501.254 133.48ZM517.556 166.54C517.556 167.22 517.316 167.8 516.836 168.28C516.356 168.76 515.776 169 515.096 169C514.416 169 513.856 168.76 513.416 168.28C512.976 167.8 512.756 167.22 512.756 166.54V127C512.756 126.32 512.976 125.76 513.416 125.32C513.896 124.84 514.476 124.6 515.156 124.6C515.876 124.6 516.456 124.84 516.896 125.32C517.336 125.76 517.556 126.32 517.556 127V166.54ZM540.62 169.6C537.42 169.6 534.62 168.92 532.22 167.56C529.82 166.2 527.94 164.34 526.58 161.98C525.26 159.58 524.6 156.82 524.6 153.7C524.6 150.22 525.28 147.26 526.64 144.82C528.04 142.34 529.84 140.46 532.04 139.18C534.28 137.86 536.64 137.2 539.12 137.2C540.96 137.2 542.74 137.54 544.46 138.22C546.18 138.9 547.7 139.9 549.02 141.22C550.34 142.5 551.4 144.06 552.2 145.9C553 147.7 553.42 149.72 553.46 151.96C553.46 152.6 553.22 153.14 552.74 153.58C552.26 154.02 551.7 154.24 551.06 154.24H527.36L526.28 150.1H549.38L548.42 150.94V149.62C548.26 147.98 547.7 146.58 546.74 145.42C545.82 144.22 544.68 143.3 543.32 142.66C542 142.02 540.6 141.7 539.12 141.7C537.92 141.7 536.72 141.92 535.52 142.36C534.36 142.76 533.3 143.44 532.34 144.4C531.42 145.32 530.66 146.52 530.06 148C529.5 149.48 529.22 151.26 529.22 153.34C529.22 155.66 529.68 157.7 530.6 159.46C531.56 161.22 532.88 162.62 534.56 163.66C536.24 164.66 538.2 165.16 540.44 165.16C541.84 165.16 543.06 164.98 544.1 164.62C545.14 164.26 546.04 163.82 546.8 163.3C547.56 162.74 548.2 162.18 548.72 161.62C549.24 161.26 549.74 161.08 550.22 161.08C550.82 161.08 551.3 161.28 551.66 161.68C552.06 162.08 552.26 162.56 552.26 163.12C552.26 163.8 551.94 164.4 551.3 164.92C550.18 166.16 548.66 167.26 546.74 168.22C544.82 169.14 542.78 169.6 540.62 169.6ZM559.474 138.16H573.574C574.214 138.16 574.734 138.38 575.134 138.82C575.574 139.26 575.794 139.78 575.794 140.38C575.794 141.02 575.574 141.56 575.134 142C574.734 142.4 574.214 142.6 573.574 142.6H559.474C558.874 142.6 558.354 142.38 557.914 141.94C557.474 141.5 557.254 140.96 557.254 140.32C557.254 139.72 557.474 139.22 557.914 138.82C558.354 138.38 558.874 138.16 559.474 138.16ZM565.774 130C566.454 130 567.014 130.24 567.454 130.72C567.894 131.16 568.114 131.72 568.114 132.4V161.38C568.114 162.34 568.254 163.06 568.534 163.54C568.814 164.02 569.174 164.36 569.614 164.56C570.094 164.72 570.554 164.8 570.994 164.8C571.394 164.8 571.734 164.74 572.014 164.62C572.334 164.46 572.694 164.38 573.094 164.38C573.494 164.38 573.854 164.58 574.174 164.98C574.534 165.34 574.714 165.82 574.714 166.42C574.714 167.14 574.294 167.76 573.454 168.28C572.614 168.76 571.674 169 570.634 169C570.074 169 569.374 168.96 568.534 168.88C567.734 168.8 566.934 168.54 566.134 168.1C565.334 167.66 564.654 166.94 564.094 165.94C563.574 164.9 563.314 163.46 563.314 161.62V132.4C563.314 131.72 563.554 131.16 564.034 130.72C564.514 130.24 565.094 130 565.774 130ZM605.691 137.98C606.411 137.98 606.991 138.22 607.431 138.7C607.871 139.14 608.091 139.7 608.091 140.38V156.76C608.091 160.8 606.951 163.94 604.671 166.18C602.431 168.38 599.291 169.48 595.251 169.48C591.251 169.48 588.111 168.38 585.831 166.18C583.591 163.94 582.471 160.8 582.471 156.76V140.38C582.471 139.7 582.691 139.14 583.131 138.7C583.611 138.22 584.191 137.98 584.871 137.98C585.591 137.98 586.171 138.22 586.611 138.7C587.051 139.14 587.271 139.7 587.271 140.38V156.76C587.271 159.48 587.971 161.54 589.371 162.94C590.771 164.34 592.731 165.04 595.251 165.04C597.851 165.04 599.831 164.34 601.191 162.94C602.591 161.54 603.291 159.48 603.291 156.76V140.38C603.291 139.7 603.511 139.14 603.951 138.7C604.431 138.22 605.011 137.98 605.691 137.98ZM631.983 137.5C634.623 137.5 636.703 138.08 638.223 139.24C639.783 140.36 640.883 141.88 641.523 143.8C642.203 145.68 642.543 147.78 642.543 150.1V166.54C642.543 167.22 642.303 167.8 641.823 168.28C641.383 168.76 640.823 169 640.143 169C639.463 169 638.883 168.76 638.403 168.28C637.963 167.8 637.743 167.22 637.743 166.54V150.1C637.743 148.58 637.523 147.22 637.083 146.02C636.643 144.78 635.903 143.8 634.863 143.08C633.863 142.32 632.483 141.94 630.723 141.94C629.083 141.94 627.583 142.32 626.223 143.08C624.863 143.8 623.783 144.78 622.983 146.02C622.183 147.22 621.783 148.58 621.783 150.1V166.54C621.783 167.22 621.543 167.8 621.063 168.28C620.623 168.76 620.063 169 619.383 169C618.703 169 618.123 168.76 617.643 168.28C617.203 167.8 616.983 167.22 616.983 166.54V127C616.983 126.32 617.203 125.76 617.643 125.32C618.123 124.84 618.703 124.6 619.383 124.6C620.103 124.6 620.683 124.84 621.123 125.32C621.563 125.76 621.783 126.32 621.783 127V144.94L620.583 146.26C620.783 145.22 621.223 144.18 621.903 143.14C622.583 142.06 623.443 141.1 624.483 140.26C625.523 139.42 626.683 138.76 627.963 138.28C629.243 137.76 630.583 137.5 631.983 137.5Z" fill="black"/>
</g>
<g filter="url(#filter1_d_991_2)">
<path d="M27.84 65.84H68.28V80.96H27.84V65.84ZM29.28 100.4H75V116H9.96V32H73.44V47.6H29.28V100.4ZM80.2847 116L109.205 78.08L108.845 88.4L81.1247 51.44H102.125L119.645 75.56L111.725 75.8L129.845 51.44H149.765L121.925 88.04V77.96L150.725 116H129.485L111.125 90.32L118.925 91.4L100.685 116H80.2847ZM197.972 116.96C192.532 116.96 187.772 115.76 183.692 113.36C179.612 110.96 176.412 107.32 174.092 102.44C171.852 97.48 170.732 91.24 170.732 83.72C170.732 76.12 171.812 69.88 173.972 65C176.132 60.12 179.252 56.48 183.332 54.08C187.412 51.68 192.292 50.48 197.972 50.48C204.052 50.48 209.492 51.88 214.292 54.68C219.172 57.4 223.012 61.24 225.812 66.2C228.692 71.16 230.132 77 230.132 83.72C230.132 90.52 228.692 96.4 225.812 101.36C223.012 106.32 219.172 110.16 214.292 112.88C209.492 115.6 204.052 116.96 197.972 116.96ZM159.812 139.28V51.44H177.692V64.64L177.332 83.84L178.532 102.92V139.28H159.812ZM194.732 101.6C197.852 101.6 200.612 100.88 203.012 99.44C205.492 98 207.452 95.96 208.892 93.32C210.412 90.6 211.172 87.4 211.172 83.72C211.172 79.96 210.412 76.76 208.892 74.12C207.452 71.48 205.492 69.44 203.012 68C200.612 66.56 197.852 65.84 194.732 65.84C191.612 65.84 188.812 66.56 186.332 68C183.852 69.44 181.892 71.48 180.452 74.12C179.012 76.76 178.292 79.96 178.292 83.72C178.292 87.4 179.012 90.6 180.452 93.32C181.892 95.96 183.852 98 186.332 99.44C188.812 100.88 191.612 101.6 194.732 101.6ZM242.663 116V26.96H261.383V116H242.663ZM309.477 116.96C302.597 116.96 296.477 115.52 291.117 112.64C285.837 109.76 281.637 105.84 278.517 100.88C275.477 95.84 273.957 90.12 273.957 83.72C273.957 77.24 275.477 71.52 278.517 66.56C281.637 61.52 285.837 57.6 291.117 54.8C296.477 51.92 302.597 50.48 309.477 50.48C316.277 50.48 322.357 51.92 327.717 54.8C333.077 57.6 337.277 61.48 340.317 66.44C343.357 71.4 344.877 77.16 344.877 83.72C344.877 90.12 343.357 95.84 340.317 100.88C337.277 105.84 333.077 109.76 327.717 112.64C322.357 115.52 316.277 116.96 309.477 116.96ZM309.477 101.6C312.597 101.6 315.397 100.88 317.877 99.44C320.357 98 322.317 95.96 323.757 93.32C325.197 90.6 325.917 87.4 325.917 83.72C325.917 79.96 325.197 76.76 323.757 74.12C322.317 71.48 320.357 69.44 317.877 68C315.397 66.56 312.597 65.84 309.477 65.84C306.357 65.84 303.557 66.56 301.077 68C298.597 69.44 296.597 71.48 295.077 74.12C293.637 76.76 292.917 79.96 292.917 83.72C292.917 87.4 293.637 90.6 295.077 93.32C296.597 95.96 298.597 98 301.077 99.44C303.557 100.88 306.357 101.6 309.477 101.6ZM357.39 116V51.44H375.27V69.68L372.75 64.4C374.67 59.84 377.75 56.4 381.99 54.08C386.23 51.68 391.39 50.48 397.47 50.48V67.76C396.67 67.68 395.95 67.64 395.31 67.64C394.67 67.56 393.99 67.52 393.27 67.52C388.15 67.52 383.99 69 380.79 71.96C377.67 74.84 376.11 79.36 376.11 85.52V116H357.39ZM440.172 116.96C432.812 116.96 426.332 115.52 420.732 112.64C415.212 109.76 410.932 105.84 407.892 100.88C404.852 95.84 403.332 90.12 403.332 83.72C403.332 77.24 404.812 71.52 407.772 66.56C410.812 61.52 414.932 57.6 420.132 54.8C425.332 51.92 431.212 50.48 437.772 50.48C444.092 50.48 449.772 51.84 454.812 54.56C459.932 57.2 463.972 61.04 466.932 66.08C469.892 71.04 471.372 77 471.372 83.96C471.372 84.68 471.332 85.52 471.252 86.48C471.172 87.36 471.092 88.2 471.012 89H418.572V78.08H461.172L453.972 81.32C453.972 77.96 453.292 75.04 451.932 72.56C450.572 70.08 448.692 68.16 446.292 66.8C443.892 65.36 441.092 64.64 437.892 64.64C434.692 64.64 431.852 65.36 429.372 66.8C426.972 68.16 425.092 70.12 423.732 72.68C422.372 75.16 421.692 78.12 421.692 81.56V84.44C421.692 87.96 422.452 91.08 423.972 93.8C425.572 96.44 427.772 98.48 430.572 99.92C433.452 101.28 436.812 101.96 440.652 101.96C444.092 101.96 447.092 101.44 449.652 100.4C452.292 99.36 454.692 97.8 456.852 95.72L466.812 106.52C463.852 109.88 460.132 112.48 455.652 114.32C451.172 116.08 446.012 116.96 440.172 116.96Z" fill="white"/>
</g>
<defs>
<filter id="filter0_d_991_2" x="198.7" y="124.6" width="453.843" height="64.4" filterUnits="userSpaceOnUse" color-interpolation-filters="sRGB">
<feFlood flood-opacity="0" result="BackgroundImageFix"/>
<feColorMatrix in="SourceAlpha" type="matrix" values="0 0 0 0 0 0 0 0 0 0 0 0 0 0 0 0 0 0 127 0" result="hardAlpha"/>
<feOffset dx="6" dy="4"/>
<feGaussianBlur stdDeviation="2"/>
<feComposite in2="hardAlpha" operator="out"/>
<feColorMatrix type="matrix" values="0 0 0 0 0 0 0 0 0 0 0 0 0 0 0 0 0 0 0.25 0"/>
<feBlend mode="normal" in2="BackgroundImageFix" result="effect1_dropShadow_991_2"/>
<feBlend mode="normal" in="SourceGraphic" in2="effect1_dropShadow_991_2" result="shape"/>
</filter>
<filter id="filter1_d_991_2" x="9.95996" y="26.96" width="475.412" height="120.32" filterUnits="userSpaceOnUse" color-interpolation-filters="sRGB">
<feFlood flood-opacity="0" result="BackgroundImageFix"/>
<feColorMatrix in="SourceAlpha" type="matrix" values="0 0 0 0 0 0 0 0 0 0 0 0 0 0 0 0 0 0 127 0" result="hardAlpha"/>
<feOffset dx="10" dy="4"/>
<feGaussianBlur stdDeviation="2"/>
<feComposite in2="hardAlpha" operator="out"/>
<feColorMatrix type="matrix" values="0 0 0 0 0 0 0 0 0 0 0 0 0 0 0 0 0 0 0.25 0"/>
<feBlend mode="normal" in2="BackgroundImageFix" result="effect1_dropShadow_991_2"/>
<feBlend mode="normal" in="SourceGraphic" in2="effect1_dropShadow_991_2" result="shape"/>
</filter>
</defs>
</svg>
