<svg width="453" height="76" viewBox="0 0 453 76" fill="none" xmlns="http://www.w3.org/2000/svg">
<g filter="url(#filter0_d_674_4)">
<path d="M36.42 67.9C28.92 67.9 22.47 66.55 17.07 63.85C11.73 61.15 7.62 57.28 4.74 52.24C1.92 47.2 0.51 41.17 0.51 34.15C0.51 27.13 1.92 21.1 4.74 16.06C7.56 11.02 11.58 7.15 16.8 4.45C22.08 1.75 28.38 0.399999 35.7 0.399999C39.72 0.399999 43.53 0.849999 47.13 1.75C50.73 2.59 53.94 3.85 56.76 5.53L53.97 16.06C51.51 14.56 48.66 13.42 45.42 12.64C42.18 11.8 38.94 11.38 35.7 11.38C31.08 11.38 27.15 12.28 23.91 14.08C20.67 15.82 18.18 18.4 16.44 21.82C14.7 25.18 13.83 29.29 13.83 34.15C13.83 39.01 14.7 43.15 16.44 46.57C18.18 49.93 20.73 52.51 24.09 54.31C27.45 56.05 31.56 56.92 36.42 56.92C38.88 56.92 41.22 56.68 43.44 56.2C45.66 55.72 47.7 55 49.56 54.04L47.85 57.82V38.92H28.41V28.39H60.45V62.68C57.27 64.36 53.55 65.65 49.29 66.55C45.03 67.45 40.74 67.9 36.42 67.9ZM73.1878 67V1.3H117.828V12.01H85.7878V27.67H116.028V38.02H85.7878V56.29H117.828V67H73.1878ZM159.946 67.9C153.046 67.9 147.046 66.55 141.946 63.85C136.846 61.09 132.916 57.19 130.156 52.15C127.456 47.05 126.106 41.05 126.106 34.15C126.106 27.19 127.456 21.19 130.156 16.15C132.916 11.11 136.846 7.24 141.946 4.54C147.046 1.78 153.046 0.399999 159.946 0.399999C166.966 0.399999 172.996 1.78 178.036 4.54C183.136 7.24 187.036 11.11 189.736 16.15C192.496 21.19 193.876 27.19 193.876 34.15C193.876 41.05 192.496 47.05 189.736 52.15C187.036 57.19 183.136 61.09 178.036 63.85C172.996 66.55 166.966 67.9 159.946 67.9ZM159.946 56.83C164.386 56.83 168.166 55.93 171.286 54.13C174.406 52.33 176.776 49.75 178.396 46.39C180.076 42.97 180.916 38.89 180.916 34.15C180.916 29.41 180.076 25.36 178.396 22C176.776 18.58 174.406 15.97 171.286 14.17C168.166 12.37 164.386 11.47 159.946 11.47C155.566 11.47 151.786 12.37 148.606 14.17C145.486 15.97 143.086 18.58 141.406 22C139.786 25.36 138.976 29.41 138.976 34.15C138.976 38.89 139.786 42.97 141.406 46.39C143.086 49.75 145.486 52.33 148.606 54.13C151.786 55.93 155.566 56.83 159.946 56.83ZM204.321 1.66C206.661 1.36 209.031 1.12 211.431 0.939998C213.831 0.759996 216.141 0.639996 218.361 0.579997C220.581 0.459998 222.501 0.399999 224.121 0.399999C234.081 0.399999 241.461 2.35 246.261 6.25C251.061 10.09 253.461 15.94 253.461 23.8C253.461 31.54 251.151 37.39 246.531 41.35C241.971 45.25 235.131 47.2 226.011 47.2C223.971 47.2 221.691 47.11 219.171 46.93C216.711 46.69 213.861 46.36 210.621 45.94L210.711 35.23C213.771 35.59 216.411 35.89 218.631 36.13C220.851 36.31 222.771 36.4 224.391 36.4C230.151 36.4 234.291 35.41 236.811 33.43C239.331 31.39 240.591 28.18 240.591 23.8C240.591 19.36 239.331 16.15 236.811 14.17C234.291 12.19 230.151 11.2 224.391 11.2C222.591 11.2 220.521 11.29 218.181 11.47C215.841 11.65 213.441 11.95 210.981 12.37L216.921 5.89V67H204.321V1.66ZM249.269 67L271.949 1.3H288.959L311.639 67H297.779L280.499 12.01H280.319L263.129 67H249.269ZM262.499 51.97V40.99H298.499V51.97H262.499ZM319.545 1.66C321.765 1.42 324.105 1.21 326.565 1.03C329.085 0.849995 331.545 0.699995 333.945 0.579997C336.345 0.459998 338.445 0.399999 340.245 0.399999C350.085 0.399999 357.285 2.08 361.845 5.44C366.405 8.8 368.685 14.08 368.685 21.28C368.685 28.48 366.405 33.76 361.845 37.12C357.285 40.48 350.085 42.16 340.245 42.16C338.025 42.16 335.535 42.1 332.775 41.98C330.015 41.8 327.375 41.59 324.855 41.35L326.205 30.82C329.205 31.24 331.935 31.54 334.395 31.72C336.855 31.9 339.015 31.99 340.875 31.99C346.155 31.99 349.965 31.18 352.305 29.56C354.645 27.88 355.815 25.24 355.815 21.64C355.815 17.98 354.645 15.34 352.305 13.72C349.965 12.04 346.155 11.2 340.875 11.2C339.015 11.2 336.855 11.32 334.395 11.56C331.935 11.74 329.205 12.01 326.205 12.37L332.145 5.89V67H319.545V1.66ZM357.165 67L327.105 36.49H341.955L372.645 67H357.165ZM382.299 67V1.3H394.899V29.74H395.079L421.899 1.3H437.199L407.679 32.8L438.099 67H422.799L395.079 35.86H394.899V67H382.299Z" fill="white"/>
</g>
<defs>
<filter id="filter0_d_674_4" x="0.51001" y="0.399998" width="451.589" height="75.5" filterUnits="userSpaceOnUse" color-interpolation-filters="sRGB">
<feFlood flood-opacity="0" result="BackgroundImageFix"/>
<feColorMatrix in="SourceAlpha" type="matrix" values="0 0 0 0 0 0 0 0 0 0 0 0 0 0 0 0 0 0 127 0" result="hardAlpha"/>
<feOffset dx="10" dy="4"/>
<feGaussianBlur stdDeviation="2"/>
<feComposite in2="hardAlpha" operator="out"/>
<feColorMatrix type="matrix" values="0 0 0 0 0 0 0 0 0 0 0 0 0 0 0 0 0 0 0.25 0"/>
<feBlend mode="normal" in2="BackgroundImageFix" result="effect1_dropShadow_674_4"/>
<feBlend mode="normal" in="SourceGraphic" in2="effect1_dropShadow_674_4" result="shape"/>
</filter>
</defs>
</svg>
