<svg width="383" height="76" viewBox="0 0 383 76" fill="none" xmlns="http://www.w3.org/2000/svg">
<g filter="url(#filter0_d_674_3)">
<path d="M36.42 67.9C28.92 67.9 22.47 66.55 17.07 63.85C11.73 61.15 7.62 57.28 4.74 52.24C1.92 47.2 0.51 41.17 0.51 34.15C0.51 27.13 1.92 21.1 4.74 16.06C7.56 11.02 11.58 7.15 16.8 4.45C22.08 1.75 28.38 0.399999 35.7 0.399999C39.72 0.399999 43.53 0.849999 47.13 1.75C50.73 2.59 53.94 3.85 56.76 5.53L53.97 16.06C51.51 14.56 48.66 13.42 45.42 12.64C42.18 11.8 38.94 11.38 35.7 11.38C31.08 11.38 27.15 12.28 23.91 14.08C20.67 15.82 18.18 18.4 16.44 21.82C14.7 25.18 13.83 29.29 13.83 34.15C13.83 39.01 14.7 43.15 16.44 46.57C18.18 49.93 20.73 52.51 24.09 54.31C27.45 56.05 31.56 56.92 36.42 56.92C38.88 56.92 41.22 56.68 43.44 56.2C45.66 55.72 47.7 55 49.56 54.04L47.85 57.82V38.92H28.41V28.39H60.45V62.68C57.27 64.36 53.55 65.65 49.29 66.55C45.03 67.45 40.74 67.9 36.42 67.9ZM73.1878 67V1.3H86.0578V55.93H120.258V67H73.1878ZM154.233 67.9C147.333 67.9 141.333 66.55 136.233 63.85C131.133 61.09 127.203 57.19 124.443 52.15C121.743 47.05 120.393 41.05 120.393 34.15C120.393 27.19 121.743 21.19 124.443 16.15C127.203 11.11 131.133 7.24 136.233 4.54C141.333 1.78 147.333 0.399999 154.233 0.399999C161.253 0.399999 167.283 1.78 172.323 4.54C177.423 7.24 181.323 11.11 184.023 16.15C186.783 21.19 188.163 27.19 188.163 34.15C188.163 41.05 186.783 47.05 184.023 52.15C181.323 57.19 177.423 61.09 172.323 63.85C167.283 66.55 161.253 67.9 154.233 67.9ZM154.233 56.83C158.673 56.83 162.453 55.93 165.573 54.13C168.693 52.33 171.063 49.75 172.683 46.39C174.363 42.97 175.203 38.89 175.203 34.15C175.203 29.41 174.363 25.36 172.683 22C171.063 18.58 168.693 15.97 165.573 14.17C162.453 12.37 158.673 11.47 154.233 11.47C149.853 11.47 146.073 12.37 142.893 14.17C139.773 15.97 137.373 18.58 135.693 22C134.073 25.36 133.263 29.41 133.263 34.15C133.263 38.89 134.073 42.97 135.693 46.39C137.373 49.75 139.773 52.33 142.893 54.13C146.073 55.93 149.853 56.83 154.233 56.83ZM218.678 67.9C215.918 67.9 212.708 67.78 209.048 67.54C205.388 67.3 201.908 67 198.608 66.64V1.66C200.888 1.36 203.168 1.12 205.448 0.939998C207.788 0.759996 210.038 0.639996 212.198 0.579997C214.358 0.459998 216.308 0.399999 218.048 0.399999C227.408 0.399999 234.458 1.84 239.198 4.72C243.938 7.54 246.308 11.77 246.308 17.41C246.308 21.31 245.198 24.55 242.978 27.13C240.758 29.65 237.608 31.3 233.528 32.08V32.26C238.568 32.98 242.348 34.69 244.868 37.39C247.388 40.09 248.648 43.75 248.648 48.37C248.648 54.79 246.128 59.65 241.088 62.95C236.048 66.25 228.578 67.9 218.678 67.9ZM207.338 56.56C209.018 56.8 210.968 57.01 213.188 57.19C215.468 57.31 217.508 57.37 219.308 57.37C224.948 57.37 229.088 56.56 231.728 54.94C234.428 53.26 235.778 50.68 235.778 47.2C235.778 43.9 234.518 41.53 231.998 40.09C229.538 38.65 225.488 37.93 219.848 37.93H204.908V27.67H219.848C224.648 27.67 228.158 27.01 230.378 25.69C232.598 24.37 233.708 22.33 233.708 19.57C233.708 16.57 232.508 14.38 230.108 13C227.768 11.62 224.168 10.93 219.308 10.93C218.408 10.93 217.418 10.96 216.338 11.02C215.258 11.08 213.998 11.17 212.558 11.29C211.118 11.41 209.348 11.56 207.248 11.74L211.208 5.17V63.13L207.338 56.56ZM251.554 67L274.234 1.3H291.244L313.924 67H300.064L282.784 12.01H282.604L265.414 67H251.554ZM264.784 51.97V40.99H300.784V51.97H264.784ZM321.83 67V1.3H334.7V55.93H368.9V67H321.83Z" fill="white"/>
</g>
<defs>
<filter id="filter0_d_674_3" x="0.51001" y="0.400002" width="382.39" height="75.5" filterUnits="userSpaceOnUse" color-interpolation-filters="sRGB">
<feFlood flood-opacity="0" result="BackgroundImageFix"/>
<feColorMatrix in="SourceAlpha" type="matrix" values="0 0 0 0 0 0 0 0 0 0 0 0 0 0 0 0 0 0 127 0" result="hardAlpha"/>
<feOffset dx="10" dy="4"/>
<feGaussianBlur stdDeviation="2"/>
<feComposite in2="hardAlpha" operator="out"/>
<feColorMatrix type="matrix" values="0 0 0 0 0 0 0 0 0 0 0 0 0 0 0 0 0 0 0.25 0"/>
<feBlend mode="normal" in2="BackgroundImageFix" result="effect1_dropShadow_674_3"/>
<feBlend mode="normal" in="SourceGraphic" in2="effect1_dropShadow_674_3" result="shape"/>
</filter>
</defs>
</svg>
