<svg width="74" height="73" viewBox="0 0 74 73" fill="none" xmlns="http://www.w3.org/2000/svg">
<g filter="url(#filter0_d_520_56)">
<circle cx="32.5" cy="32.5" r="32.5" fill="#F3F0F0"/>
</g>
<path d="M48.9999 31.8523C49.0023 31.5106 48.9334 31.1722 48.7978 30.8586C48.6622 30.545 48.4628 30.2631 48.2123 30.0308L33 16L17.7877 30.0308C17.5372 30.2631 17.3378 30.545 17.2022 30.8586C17.0666 31.1722 16.9977 31.5106 17.0001 31.8523V45.5385C17.0001 46.1913 17.2594 46.8174 17.721 47.279C18.1826 47.7407 18.8087 48 19.4616 48H46.5384C47.1913 48 47.8174 47.7407 48.279 47.279C48.7406 46.8174 48.9999 46.1913 48.9999 45.5385V31.8523Z" stroke="black" stroke-width="5" stroke-linecap="round" stroke-linejoin="round"/>
<defs>
<filter id="filter0_d_520_56" x="0" y="0" width="74" height="73" filterUnits="userSpaceOnUse" color-interpolation-filters="sRGB">
<feFlood flood-opacity="0" result="BackgroundImageFix"/>
<feColorMatrix in="SourceAlpha" type="matrix" values="0 0 0 0 0 0 0 0 0 0 0 0 0 0 0 0 0 0 127 0" result="hardAlpha"/>
<feOffset dx="5" dy="4"/>
<feGaussianBlur stdDeviation="2"/>
<feComposite in2="hardAlpha" operator="out"/>
<feColorMatrix type="matrix" values="0 0 0 0 0 0 0 0 0 0 0 0 0 0 0 0 0 0 0.25 0"/>
<feBlend mode="normal" in2="BackgroundImageFix" result="effect1_dropShadow_520_56"/>
<feBlend mode="normal" in="SourceGraphic" in2="effect1_dropShadow_520_56" result="shape"/>
</filter>
</defs>
</svg>
