<svg width="386" height="53" viewBox="0 0 386 53" fill="none" xmlns="http://www.w3.org/2000/svg">
<path d="M0.67 52V0.899999H9.42V23.09H9.56L31.82 0.899999H42.67L18.24 25.33L43.37 52H32.52L9.56 27.64H9.42V52H0.67ZM49.4573 44.23C54.1706 40.6833 58.1606 37.5333 61.4273 34.78C64.6939 32.0267 67.3073 29.5533 69.2673 27.36C71.2273 25.1667 72.6506 23.16 73.5373 21.34C74.4239 19.4733 74.8673 17.7233 74.8673 16.09C74.8673 10.6767 71.9039 7.97 65.9773 7.97C61.2639 7.97 56.0606 9.88333 50.3673 13.71L47.8473 6.22C53.2606 2.20667 59.7473 0.199999 67.3073 0.199999C72.7206 0.199999 76.8273 1.46 79.6273 3.98C82.4273 6.45333 83.8273 10.14 83.8273 15.04C83.8273 17.2333 83.4306 19.45 82.6373 21.69C81.8439 23.8833 80.5839 26.1467 78.8573 28.48C77.1306 30.8133 74.8906 33.2633 72.1373 35.83C69.4306 38.3967 66.1406 41.15 62.2673 44.09V44.23H84.3873V52H49.4573V44.23ZM95.3477 1.18C97.0277 0.993332 98.8011 0.829998 100.668 0.689997C102.534 0.549996 104.378 0.43333 106.198 0.339998C108.018 0.246665 109.651 0.199999 111.098 0.199999C118.658 0.199999 124.188 1.48333 127.688 4.05C131.234 6.61666 133.008 10.6767 133.008 16.23C133.008 21.7833 131.234 25.8433 127.688 28.41C124.188 30.9767 118.658 32.26 111.098 32.26C109.324 32.26 107.318 32.19 105.078 32.05C102.884 31.91 100.761 31.7467 98.7077 31.56L99.9677 24.07C102.394 24.35 104.541 24.5833 106.408 24.77C108.321 24.91 110.024 24.98 111.518 24.98C115.951 24.98 119.148 24.3033 121.108 22.95C123.114 21.55 124.118 19.38 124.118 16.44C124.118 13.4067 123.114 11.2367 121.108 9.93C119.148 8.57666 115.951 7.9 111.518 7.9C110.024 7.9 108.321 7.97 106.408 8.11C104.541 8.25 102.394 8.48333 99.9677 8.81L104.098 4.19V52H95.3477V1.18ZM124.888 52L100.178 28.06H110.818L135.948 52H124.888ZM176.527 52V8.67H159.657V0.899999H202.497V8.67H185.557V52H176.527ZM216.109 52.7C209.903 52.7 205.119 51.0667 201.759 47.8C198.446 44.5333 196.789 39.8667 196.789 33.8C196.789 27.92 198.376 23.3 201.549 19.94C204.769 16.58 209.156 14.9 214.709 14.9C220.076 14.9 224.229 16.4867 227.169 19.66C230.109 22.8333 231.579 27.3367 231.579 33.17C231.579 33.8233 231.556 34.5467 231.509 35.34C231.463 36.1333 231.416 36.7167 231.369 37.09H201.549V30.86H224.789L223.529 32.75C223.529 28.9233 222.783 26.1 221.289 24.28C219.843 22.4133 217.649 21.48 214.709 21.48C211.583 21.48 209.203 22.46 207.569 24.42C205.983 26.3333 205.189 29.18 205.189 32.96V35.41C205.189 38.8633 206.099 41.4767 207.919 43.25C209.786 44.9767 212.539 45.84 216.179 45.84C218.326 45.84 220.473 45.56 222.619 45C224.766 44.44 226.703 43.67 228.429 42.69L229.759 49.41C227.986 50.4367 225.909 51.2533 223.529 51.86C221.196 52.42 218.723 52.7 216.109 52.7ZM248.185 52.7C244.545 52.7 241.675 51.72 239.575 49.76C237.521 47.7533 236.495 45.0467 236.495 41.64C236.495 37.3933 238.151 34.1267 241.465 31.84C244.778 29.5533 249.491 28.41 255.605 28.41H260.715C260.715 25.9833 260.085 24.28 258.825 23.3C257.565 22.2733 255.418 21.76 252.385 21.76C250.051 21.76 247.811 22.04 245.665 22.6C243.565 23.16 241.395 24.0467 239.155 25.26L238.105 18.26C240.391 17.14 242.771 16.3 245.245 15.74C247.765 15.18 250.495 14.9 253.435 14.9C257.261 14.9 260.318 15.3667 262.605 16.3C264.938 17.2333 266.618 18.75 267.645 20.85C268.718 22.9033 269.255 25.6333 269.255 29.04V52H261.065L260.995 47.8H260.855C259.595 49.2467 257.775 50.4367 255.395 51.37C253.015 52.2567 250.611 52.7 248.185 52.7ZM251.265 45.98C252.991 45.98 254.578 45.6767 256.025 45.07C257.471 44.4167 258.615 43.5533 259.455 42.48C260.295 41.4067 260.715 40.1933 260.715 38.84V34.43H256.865C252.851 34.43 249.818 34.9667 247.765 36.04C245.758 37.0667 244.755 38.6533 244.755 40.8C244.755 42.3867 245.315 43.6467 246.435 44.58C247.555 45.5133 249.165 45.98 251.265 45.98ZM278.469 52V15.6H286.519L286.589 20.5H286.729C287.943 18.6333 289.459 17.2333 291.279 16.3C293.146 15.3667 295.223 14.9 297.509 14.9C299.843 14.9 301.873 15.39 303.599 16.37C305.326 17.3033 306.563 18.68 307.309 20.5H307.449C308.709 18.54 310.273 17.1167 312.139 16.23C314.053 15.3433 316.316 14.9 318.929 14.9C322.896 14.9 325.743 16.02 327.469 18.26C329.196 20.5 330.059 24.2567 330.059 29.53V52H321.659V30.72C321.659 27.5933 321.216 25.3533 320.329 24C319.489 22.6467 318.089 21.97 316.129 21.97C313.703 21.97 311.813 22.88 310.459 24.7C309.106 26.52 308.429 29.04 308.429 32.26V52H300.099V29.25C300.099 26.9167 299.609 25.12 298.629 23.86C297.649 22.6 296.273 21.97 294.499 21.97C292.306 21.97 290.486 22.9267 289.039 24.84C287.593 26.7533 286.869 29.2267 286.869 32.26V52H278.469ZM351.139 52.7C348.573 52.7 346.053 52.4433 343.579 51.93C341.153 51.4167 338.936 50.6933 336.929 49.76L338.189 42.97C340.383 43.9033 342.553 44.6267 344.699 45.14C346.846 45.6067 348.946 45.84 350.999 45.84C353.379 45.84 355.153 45.5133 356.319 44.86C357.486 44.16 358.069 43.1333 358.069 41.78C358.069 40.94 357.859 40.24 357.439 39.68C357.019 39.12 356.273 38.63 355.199 38.21C354.173 37.7433 352.703 37.3 350.789 36.88C347.523 36.0867 344.863 35.1767 342.809 34.15C340.756 33.0767 339.239 31.8167 338.259 30.37C337.279 28.9233 336.789 27.22 336.789 25.26C336.789 21.9 338.073 19.3333 340.639 17.56C343.253 15.7867 347.009 14.9 351.909 14.9C354.336 14.9 356.693 15.1333 358.979 15.6C361.266 16.02 363.459 16.6967 365.559 17.63L364.369 24.35C362.363 23.4633 360.333 22.81 358.279 22.39C356.273 21.97 354.266 21.76 352.259 21.76C349.973 21.76 348.269 22.0633 347.149 22.67C346.076 23.23 345.539 24.14 345.539 25.4C345.539 26.1 345.749 26.73 346.169 27.29C346.636 27.85 347.383 28.34 348.409 28.76C349.436 29.18 350.813 29.6 352.539 30.02C355.013 30.58 357.136 31.2333 358.909 31.98C360.729 32.7267 362.199 33.59 363.319 34.57C364.486 35.55 365.349 36.6467 365.909 37.86C366.469 39.0267 366.749 40.3567 366.749 41.85C366.749 45.3033 365.373 47.9867 362.619 49.9C359.913 51.7667 356.086 52.7 351.139 52.7ZM380.412 52.7C378.732 52.7 377.379 52.21 376.352 51.23C375.372 50.25 374.882 48.9433 374.882 47.31C374.882 45.63 375.372 44.3 376.352 43.32C377.379 42.34 378.732 41.85 380.412 41.85C382.092 41.85 383.422 42.34 384.402 43.32C385.382 44.3 385.872 45.63 385.872 47.31C385.872 48.9433 385.382 50.25 384.402 51.23C383.422 52.21 382.092 52.7 380.412 52.7Z" fill="white"/>
</svg>
