<svg width="400" height="141" viewBox="0 0 400 141" fill="none" xmlns="http://www.w3.org/2000/svg">
<g filter="url(#filter0_d_506_5)">
<path d="M5.67 81V29.9H14.42V52.09H14.56L36.82 29.9H47.67L23.24 54.33L48.37 81H37.52L14.56 56.64H14.42V81H5.67ZM54.4573 73.23C59.1706 69.6833 63.1606 66.5333 66.4273 63.78C69.6939 61.0267 72.3073 58.5533 74.2673 56.36C76.2273 54.1667 77.6506 52.16 78.5373 50.34C79.4239 48.4733 79.8673 46.7233 79.8673 45.09C79.8673 39.6767 76.9039 36.97 70.9773 36.97C66.2639 36.97 61.0606 38.8833 55.3673 42.71L52.8473 35.22C58.2606 31.2067 64.7473 29.2 72.3073 29.2C77.7206 29.2 81.8273 30.46 84.6273 32.98C87.4273 35.4533 88.8273 39.14 88.8273 44.04C88.8273 46.2333 88.4306 48.45 87.6373 50.69C86.8439 52.8833 85.5839 55.1467 83.8573 57.48C82.1306 59.8133 79.8906 62.2633 77.1373 64.83C74.4306 67.3967 71.1406 70.15 67.2673 73.09V73.23H89.3873V81H54.4573V73.23ZM100.348 30.18C102.028 29.9933 103.801 29.83 105.668 29.69C107.534 29.55 109.378 29.4333 111.198 29.34C113.018 29.2467 114.651 29.2 116.098 29.2C123.658 29.2 129.188 30.4833 132.688 33.05C136.234 35.6167 138.008 39.6767 138.008 45.23C138.008 50.7833 136.234 54.8433 132.688 57.41C129.188 59.9767 123.658 61.26 116.098 61.26C114.324 61.26 112.318 61.19 110.078 61.05C107.884 60.91 105.761 60.7467 103.708 60.56L104.968 53.07C107.394 53.35 109.541 53.5833 111.408 53.77C113.321 53.91 115.024 53.98 116.518 53.98C120.951 53.98 124.148 53.3033 126.108 51.95C128.114 50.55 129.118 48.38 129.118 45.44C129.118 42.4067 128.114 40.2367 126.108 38.93C124.148 37.5767 120.951 36.9 116.518 36.9C115.024 36.9 113.321 36.97 111.408 37.11C109.541 37.25 107.394 37.4833 104.968 37.81L109.098 33.19V81H100.348V30.18ZM129.888 81L105.178 57.06H115.818L140.948 81H129.888ZM181.527 81V37.67H164.657V29.9H207.497V37.67H190.557V81H181.527ZM221.109 81.7C214.903 81.7 210.119 80.0667 206.759 76.8C203.446 73.5333 201.789 68.8667 201.789 62.8C201.789 56.92 203.376 52.3 206.549 48.94C209.769 45.58 214.156 43.9 219.709 43.9C225.076 43.9 229.229 45.4867 232.169 48.66C235.109 51.8333 236.579 56.3367 236.579 62.17C236.579 62.8233 236.556 63.5467 236.509 64.34C236.463 65.1333 236.416 65.7167 236.369 66.09H206.549V59.86H229.789L228.529 61.75C228.529 57.9233 227.783 55.1 226.289 53.28C224.843 51.4133 222.649 50.48 219.709 50.48C216.583 50.48 214.203 51.46 212.569 53.42C210.983 55.3333 210.189 58.18 210.189 61.96V64.41C210.189 67.8633 211.099 70.4767 212.919 72.25C214.786 73.9767 217.539 74.84 221.179 74.84C223.326 74.84 225.473 74.56 227.619 74C229.766 73.44 231.703 72.67 233.429 71.69L234.759 78.41C232.986 79.4367 230.909 80.2533 228.529 80.86C226.196 81.42 223.723 81.7 221.109 81.7ZM253.185 81.7C249.545 81.7 246.675 80.72 244.575 78.76C242.521 76.7533 241.495 74.0467 241.495 70.64C241.495 66.3933 243.151 63.1267 246.465 60.84C249.778 58.5533 254.491 57.41 260.605 57.41H265.715C265.715 54.9833 265.085 53.28 263.825 52.3C262.565 51.2733 260.418 50.76 257.385 50.76C255.051 50.76 252.811 51.04 250.665 51.6C248.565 52.16 246.395 53.0467 244.155 54.26L243.105 47.26C245.391 46.14 247.771 45.3 250.245 44.74C252.765 44.18 255.495 43.9 258.435 43.9C262.261 43.9 265.318 44.3667 267.605 45.3C269.938 46.2333 271.618 47.75 272.645 49.85C273.718 51.9033 274.255 54.6333 274.255 58.04V81H266.065L265.995 76.8H265.855C264.595 78.2467 262.775 79.4367 260.395 80.37C258.015 81.2567 255.611 81.7 253.185 81.7ZM256.265 74.98C257.991 74.98 259.578 74.6767 261.025 74.07C262.471 73.4167 263.615 72.5533 264.455 71.48C265.295 70.4067 265.715 69.1933 265.715 67.84V63.43H261.865C257.851 63.43 254.818 63.9667 252.765 65.04C250.758 66.0667 249.755 67.6533 249.755 69.8C249.755 71.3867 250.315 72.6467 251.435 73.58C252.555 74.5133 254.165 74.98 256.265 74.98ZM283.469 81V44.6H291.519L291.589 49.5H291.729C292.943 47.6333 294.459 46.2333 296.279 45.3C298.146 44.3667 300.223 43.9 302.509 43.9C304.843 43.9 306.873 44.39 308.599 45.37C310.326 46.3033 311.563 47.68 312.309 49.5H312.449C313.709 47.54 315.273 46.1167 317.139 45.23C319.053 44.3433 321.316 43.9 323.929 43.9C327.896 43.9 330.743 45.02 332.469 47.26C334.196 49.5 335.059 53.2567 335.059 58.53V81H326.659V59.72C326.659 56.5933 326.216 54.3533 325.329 53C324.489 51.6467 323.089 50.97 321.129 50.97C318.703 50.97 316.813 51.88 315.459 53.7C314.106 55.52 313.429 58.04 313.429 61.26V81H305.099V58.25C305.099 55.9167 304.609 54.12 303.629 52.86C302.649 51.6 301.273 50.97 299.499 50.97C297.306 50.97 295.486 51.9267 294.039 53.84C292.593 55.7533 291.869 58.2267 291.869 61.26V81H283.469ZM356.139 81.7C353.573 81.7 351.053 81.4433 348.579 80.93C346.153 80.4167 343.936 79.6933 341.929 78.76L343.189 71.97C345.383 72.9033 347.553 73.6267 349.699 74.14C351.846 74.6067 353.946 74.84 355.999 74.84C358.379 74.84 360.153 74.5133 361.319 73.86C362.486 73.16 363.069 72.1333 363.069 70.78C363.069 69.94 362.859 69.24 362.439 68.68C362.019 68.12 361.273 67.63 360.199 67.21C359.173 66.7433 357.703 66.3 355.789 65.88C352.523 65.0867 349.863 64.1767 347.809 63.15C345.756 62.0767 344.239 60.8167 343.259 59.37C342.279 57.9233 341.789 56.22 341.789 54.26C341.789 50.9 343.073 48.3333 345.639 46.56C348.253 44.7867 352.009 43.9 356.909 43.9C359.336 43.9 361.693 44.1333 363.979 44.6C366.266 45.02 368.459 45.6967 370.559 46.63L369.369 53.35C367.363 52.4633 365.333 51.81 363.279 51.39C361.273 50.97 359.266 50.76 357.259 50.76C354.973 50.76 353.269 51.0633 352.149 51.67C351.076 52.23 350.539 53.14 350.539 54.4C350.539 55.1 350.749 55.73 351.169 56.29C351.636 56.85 352.383 57.34 353.409 57.76C354.436 58.18 355.813 58.6 357.539 59.02C360.013 59.58 362.136 60.2333 363.909 60.98C365.729 61.7267 367.199 62.59 368.319 63.57C369.486 64.55 370.349 65.6467 370.909 66.86C371.469 68.0267 371.749 69.3567 371.749 70.85C371.749 74.3033 370.373 76.9867 367.619 78.9C364.913 80.7667 361.086 81.7 356.139 81.7ZM385.412 81.7C383.732 81.7 382.379 81.21 381.352 80.23C380.372 79.25 379.882 77.9433 379.882 76.31C379.882 74.63 380.372 73.3 381.352 72.32C382.379 71.34 383.732 70.85 385.412 70.85C387.092 70.85 388.422 71.34 389.402 72.32C390.382 73.3 390.872 74.63 390.872 76.31C390.872 77.9433 390.382 79.25 389.402 80.23C388.422 81.21 387.092 81.7 385.412 81.7Z" fill="white"/>
</g>
<path d="M19.025 124.425C19.2083 124.425 19.3 124.542 19.3 124.775C19.3 124.992 19.1833 125.1 18.95 125.1L16.15 125L13.7 125.1C13.45 125.1 13.325 124.983 13.325 124.75C13.325 124.567 13.4167 124.458 13.6 124.425L14.05 124.375C14.7167 124.292 15.05 123.95 15.05 123.35V117.15C15.05 116.833 14.9 116.675 14.6 116.675H5.45C5.33333 116.675 5.23333 116.725 5.15 116.825C5.06667 116.908 5.025 117.017 5.025 117.15V123.35C5.025 123.95 5.35833 124.292 6.025 124.375L6.45 124.425C6.66667 124.458 6.775 124.567 6.775 124.75C6.775 124.85 6.73333 124.933 6.65 125C6.58333 125.067 6.5 125.1 6.4 125.1L3.925 125L1.1 125.1C0.866667 125.1 0.75 124.992 0.75 124.775C0.75 124.542 0.841667 124.425 1.025 124.425L1.75 124.375C2.08333 124.342 2.35833 124.242 2.575 124.075C2.79167 123.892 2.9 123.65 2.9 123.35V109.15C2.9 108.55 2.51667 108.217 1.75 108.15L1.025 108.075C0.841667 108.075 0.75 107.967 0.75 107.75C0.75 107.517 0.866667 107.4 1.1 107.4L3.925 107.5L6.4 107.4C6.65 107.4 6.775 107.5 6.775 107.7C6.775 107.933 6.66667 108.058 6.45 108.075L6.025 108.15C5.35833 108.267 5.025 108.6 5.025 109.15V115.025C5.025 115.358 5.19167 115.525 5.525 115.525H14.575C14.8917 115.525 15.05 115.383 15.05 115.1V109.15C15.05 108.6 14.7167 108.267 14.05 108.15L13.6 108.075C13.4167 108.042 13.325 107.933 13.325 107.75C13.325 107.517 13.45 107.4 13.7 107.4L16.15 107.5L18.95 107.4C19.1833 107.4 19.3 107.517 19.3 107.75C19.3 107.967 19.2083 108.075 19.025 108.075L18.275 108.15C17.5417 108.217 17.175 108.55 17.175 109.15V123.35C17.175 123.967 17.5417 124.308 18.275 124.375L19.025 124.425ZM32.4689 117.1C32.4689 118.1 32.0189 118.6 31.1189 118.6H23.9189C23.7189 118.6 23.6189 118.742 23.6189 119.025C23.6523 120.558 24.0939 121.775 24.9439 122.675C25.8106 123.558 26.9023 124 28.2189 124C29.5523 124 30.5356 123.742 31.1689 123.225C31.3856 123.058 31.5856 123.067 31.7689 123.25C31.9523 123.433 31.9273 123.642 31.6939 123.875C30.7606 124.808 29.4773 125.275 27.8439 125.275C25.7939 125.275 24.1856 124.692 23.0189 123.525C21.8689 122.342 21.2939 120.7 21.2939 118.6C21.2939 116.9 21.8689 115.417 23.0189 114.15C24.1689 112.867 25.5356 112.225 27.1189 112.225C28.7189 112.225 30.0106 112.692 30.9939 113.625C31.9773 114.542 32.4689 115.7 32.4689 117.1ZM30.2189 116.775C30.2189 115.775 29.9439 114.933 29.3939 114.25C28.8606 113.55 28.1023 113.2 27.1189 113.2C26.1523 113.2 25.3273 113.6 24.6439 114.4C23.9606 115.2 23.6189 116.117 23.6189 117.15C23.6189 117.417 23.7273 117.55 23.9439 117.55H29.4439C29.9606 117.55 30.2189 117.292 30.2189 116.775ZM37.7938 112.225C38.0604 112.225 38.1938 112.417 38.1938 112.8V114.15C38.1938 114.233 38.2271 114.275 38.2938 114.275C38.3604 114.275 38.4354 114.225 38.5188 114.125C38.9021 113.642 39.4271 113.208 40.0938 112.825C40.7771 112.425 41.3771 112.225 41.8938 112.225C42.4271 112.225 42.8354 112.283 43.1188 112.4C43.4021 112.517 43.5438 112.65 43.5438 112.8V114.725C43.5438 114.975 43.4271 115.1 43.1938 115.1C43.0604 115.1 42.8854 114.975 42.6688 114.725C42.2021 114.158 41.5938 113.875 40.8438 113.875C40.1104 113.875 39.4854 114.225 38.9688 114.925C38.4521 115.625 38.1938 116.633 38.1938 117.95V123.35C38.1938 123.95 38.6354 124.283 39.5188 124.35L40.5438 124.425C40.7438 124.442 40.8438 124.558 40.8438 124.775C40.8438 124.992 40.7188 125.1 40.4688 125.1L37.1688 125L34.4688 125.1C34.2188 125.1 34.0938 124.992 34.0938 124.775C34.0938 124.558 34.1938 124.442 34.3938 124.425L35.0938 124.375C35.4271 124.342 35.7021 124.242 35.9188 124.075C36.1354 123.892 36.2438 123.65 36.2438 123.35V114.2C36.2438 113.867 36.1688 113.642 36.0188 113.525C35.8854 113.392 35.6604 113.325 35.3438 113.325H34.4938C34.2771 113.325 34.1688 113.217 34.1688 113C34.1688 112.783 34.2771 112.658 34.4938 112.625L37.7438 112.225C37.7604 112.225 37.7771 112.225 37.7938 112.225ZM56.2238 117.1C56.2238 118.1 55.7738 118.6 54.8738 118.6H47.6738C47.4738 118.6 47.3738 118.742 47.3738 119.025C47.4072 120.558 47.8488 121.775 48.6988 122.675C49.5655 123.558 50.6572 124 51.9738 124C53.3072 124 54.2905 123.742 54.9238 123.225C55.1405 123.058 55.3405 123.067 55.5238 123.25C55.7072 123.433 55.6822 123.642 55.4488 123.875C54.5155 124.808 53.2322 125.275 51.5988 125.275C49.5488 125.275 47.9405 124.692 46.7738 123.525C45.6238 122.342 45.0488 120.7 45.0488 118.6C45.0488 116.9 45.6238 115.417 46.7738 114.15C47.9238 112.867 49.2905 112.225 50.8738 112.225C52.4738 112.225 53.7655 112.692 54.7488 113.625C55.7322 114.542 56.2238 115.7 56.2238 117.1ZM53.9738 116.775C53.9738 115.775 53.6988 114.933 53.1488 114.25C52.6155 113.55 51.8572 113.2 50.8738 113.2C49.9072 113.2 49.0822 113.6 48.3988 114.4C47.7155 115.2 47.3738 116.117 47.3738 117.15C47.3738 117.417 47.4822 117.55 47.6988 117.55H53.1988C53.7155 117.55 53.9738 117.292 53.9738 116.775ZM75.6354 124.875C75.6354 125.142 75.3354 125.275 74.7354 125.275C73.702 125.275 72.827 124.867 72.1104 124.05C71.9937 123.933 71.902 123.875 71.8354 123.875C71.7854 123.875 71.702 123.925 71.5854 124.025C70.502 124.858 69.2854 125.275 67.9354 125.275C66.9854 125.275 66.152 124.983 65.4354 124.4C64.7187 123.8 64.3604 123.033 64.3604 122.1C64.3604 120.917 64.877 120.017 65.9104 119.4C66.827 118.867 68.2604 118.45 70.2104 118.15C70.677 118.067 70.9937 118.008 71.1604 117.975C71.377 117.958 71.4854 117.842 71.4854 117.625V115.325C71.4854 114.642 71.252 114.1 70.7854 113.7C70.3354 113.3 69.727 113.1 68.9604 113.1C68.2104 113.1 67.527 113.333 66.9104 113.8C66.3104 114.267 65.927 114.917 65.7604 115.75C65.7104 116 65.5687 116.125 65.3354 116.125C65.1187 116.125 65.0104 116 65.0104 115.75V113.875C65.0104 113.592 65.102 113.383 65.2854 113.25C66.1687 112.567 67.4354 112.225 69.0854 112.225C70.7354 112.225 71.8937 112.583 72.5604 113.3C73.227 114.017 73.5604 114.942 73.5604 116.075V122.75C73.5604 123.283 73.727 123.717 74.0604 124.05C74.4104 124.383 74.8187 124.55 75.2854 124.55C75.5187 124.55 75.6354 124.658 75.6354 124.875ZM71.4354 122.55V119.425C71.4354 119.175 71.327 119.05 71.1104 119.05C71.0937 119.05 71.0687 119.05 71.0354 119.05C68.052 119.417 66.5604 120.333 66.5604 121.8C66.5604 122.483 66.7854 123.025 67.2354 123.425C67.6854 123.808 68.1854 124 68.7354 124C69.302 124 69.7937 123.892 70.2104 123.675C70.6437 123.458 70.952 123.242 71.1354 123.025C71.3354 122.808 71.4354 122.65 71.4354 122.55ZM80.0789 112.225C80.3456 112.225 80.4789 112.417 80.4789 112.8V114.15C80.4789 114.233 80.5122 114.275 80.5789 114.275C80.6456 114.275 80.7206 114.225 80.8039 114.125C81.1872 113.642 81.7122 113.208 82.3789 112.825C83.0622 112.425 83.6622 112.225 84.1789 112.225C84.7122 112.225 85.1206 112.283 85.4039 112.4C85.6872 112.517 85.8289 112.65 85.8289 112.8V114.725C85.8289 114.975 85.7122 115.1 85.4789 115.1C85.3456 115.1 85.1706 114.975 84.9539 114.725C84.4872 114.158 83.8789 113.875 83.1289 113.875C82.3956 113.875 81.7706 114.225 81.2539 114.925C80.7372 115.625 80.4789 116.633 80.4789 117.95V123.35C80.4789 123.95 80.9206 124.283 81.8039 124.35L82.8289 124.425C83.0289 124.442 83.1289 124.558 83.1289 124.775C83.1289 124.992 83.0039 125.1 82.7539 125.1L79.4539 125L76.7539 125.1C76.5039 125.1 76.3789 124.992 76.3789 124.775C76.3789 124.558 76.4789 124.442 76.6789 124.425L77.3789 124.375C77.7122 124.342 77.9872 124.242 78.2039 124.075C78.4206 123.892 78.5289 123.65 78.5289 123.35V114.2C78.5289 113.867 78.4539 113.642 78.3039 113.525C78.1706 113.392 77.9456 113.325 77.6289 113.325H76.7789C76.5622 113.325 76.4539 113.217 76.4539 113C76.4539 112.783 76.5622 112.658 76.7789 112.625L80.0289 112.225C80.0456 112.225 80.0622 112.225 80.0789 112.225ZM98.509 117.1C98.509 118.1 98.059 118.6 97.159 118.6H89.959C89.759 118.6 89.659 118.742 89.659 119.025C89.6923 120.558 90.134 121.775 90.984 122.675C91.8507 123.558 92.9423 124 94.259 124C95.5923 124 96.5757 123.742 97.209 123.225C97.4257 123.058 97.6257 123.067 97.809 123.25C97.9923 123.433 97.9673 123.642 97.734 123.875C96.8007 124.808 95.5173 125.275 93.884 125.275C91.834 125.275 90.2257 124.692 89.059 123.525C87.909 122.342 87.334 120.7 87.334 118.6C87.334 116.9 87.909 115.417 89.059 114.15C90.209 112.867 91.5757 112.225 93.159 112.225C94.759 112.225 96.0507 112.692 97.034 113.625C98.0173 114.542 98.509 115.7 98.509 117.1ZM96.259 116.775C96.259 115.775 95.984 114.933 95.434 114.25C94.9007 113.55 94.1423 113.2 93.159 113.2C92.1923 113.2 91.3673 113.6 90.684 114.4C90.0007 115.2 89.659 116.117 89.659 117.15C89.659 117.417 89.7673 117.55 89.984 117.55H95.484C96.0007 117.55 96.259 117.292 96.259 116.775ZM112.996 112.225C114.912 112.225 116.437 112.825 117.571 114.025C118.721 115.225 119.296 116.808 119.296 118.775C119.296 120.725 118.729 122.3 117.596 123.5C116.462 124.683 114.921 125.275 112.971 125.275C111.037 125.275 109.496 124.675 108.346 123.475C107.212 122.275 106.646 120.708 106.646 118.775C106.646 116.842 107.229 115.267 108.396 114.05C109.562 112.833 111.096 112.225 112.996 112.225ZM116.296 115.275C116.012 114.642 115.587 114.142 115.021 113.775C114.471 113.392 113.796 113.2 112.996 113.2C111.612 113.2 110.579 113.658 109.896 114.575C109.212 115.492 108.871 116.692 108.871 118.175C108.871 119.708 109.137 121.067 109.671 122.25C109.954 122.867 110.371 123.367 110.921 123.75C111.487 124.117 112.154 124.3 112.921 124.3C114.337 124.3 115.379 123.842 116.046 122.925C116.729 122.008 117.071 120.792 117.071 119.275C117.071 117.758 116.812 116.425 116.296 115.275ZM133.932 113.55V122.725C133.932 123.258 134.098 123.692 134.432 124.025C134.765 124.342 135.165 124.5 135.632 124.5C135.882 124.5 136.007 124.6 136.007 124.8C136.007 125.117 135.682 125.275 135.032 125.275C134.048 125.275 133.19 124.867 132.457 124.05C132.407 124 132.357 123.942 132.307 123.875C132.257 123.808 132.215 123.75 132.182 123.7C132.115 123.617 132.04 123.575 131.957 123.575C131.89 123.575 131.782 123.642 131.632 123.775C130.498 124.775 129.207 125.275 127.757 125.275C126.323 125.275 125.173 124.858 124.307 124.025C123.44 123.192 123.007 122.008 123.007 120.475V114.15C123.007 113.817 122.932 113.583 122.782 113.45C122.648 113.317 122.432 113.25 122.132 113.25H121.282C121.198 113.25 121.115 113.217 121.032 113.15C120.965 113.083 120.932 113 120.932 112.9C120.932 112.7 121.048 112.583 121.282 112.55L124.582 112.225C124.632 112.225 124.673 112.225 124.707 112.225C125.04 112.225 125.207 112.358 125.207 112.625C125.207 112.658 125.165 112.758 125.082 112.925C124.998 113.092 124.957 113.3 124.957 113.55V120.875C124.957 121.908 125.273 122.725 125.907 123.325C126.557 123.908 127.382 124.2 128.382 124.2C129.398 124.2 130.248 123.825 130.932 123.075C131.632 122.325 131.982 121.475 131.982 120.525V114.15C131.982 113.817 131.907 113.583 131.757 113.45C131.623 113.317 131.407 113.25 131.107 113.25H130.007C129.923 113.25 129.84 113.217 129.757 113.15C129.69 113.083 129.657 113 129.657 112.9C129.657 112.7 129.773 112.583 130.007 112.55L133.507 112.225C133.54 112.225 133.582 112.225 133.632 112.225C133.965 112.225 134.132 112.358 134.132 112.625C134.132 112.658 134.098 112.758 134.032 112.925C133.965 113.092 133.932 113.3 133.932 113.55ZM140.455 112.225C140.722 112.225 140.855 112.417 140.855 112.8V114.15C140.855 114.233 140.888 114.275 140.955 114.275C141.022 114.275 141.097 114.225 141.18 114.125C141.563 113.642 142.088 113.208 142.755 112.825C143.438 112.425 144.038 112.225 144.555 112.225C145.088 112.225 145.497 112.283 145.78 112.4C146.063 112.517 146.205 112.65 146.205 112.8V114.725C146.205 114.975 146.088 115.1 145.855 115.1C145.722 115.1 145.547 114.975 145.33 114.725C144.863 114.158 144.255 113.875 143.505 113.875C142.772 113.875 142.147 114.225 141.63 114.925C141.113 115.625 140.855 116.633 140.855 117.95V123.35C140.855 123.95 141.297 124.283 142.18 124.35L143.205 124.425C143.405 124.442 143.505 124.558 143.505 124.775C143.505 124.992 143.38 125.1 143.13 125.1L139.83 125L137.13 125.1C136.88 125.1 136.755 124.992 136.755 124.775C136.755 124.558 136.855 124.442 137.055 124.425L137.755 124.375C138.088 124.342 138.363 124.242 138.58 124.075C138.797 123.892 138.905 123.65 138.905 123.35V114.2C138.905 113.867 138.83 113.642 138.68 113.525C138.547 113.392 138.322 113.325 138.005 113.325H137.155C136.938 113.325 136.83 113.217 136.83 113C136.83 112.783 136.938 112.658 137.155 112.625L140.405 112.225C140.422 112.225 140.438 112.225 140.455 112.225ZM156.422 112.225C156.688 112.225 156.822 112.417 156.822 112.8V113.9C156.822 113.983 156.847 114.025 156.897 114.025C156.963 114.025 157.047 113.975 157.147 113.875C158.163 112.775 159.272 112.225 160.472 112.225C161.372 112.225 162.105 112.392 162.672 112.725C163.255 113.042 163.722 113.575 164.072 114.325C164.122 114.425 164.172 114.475 164.222 114.475C164.272 114.475 164.33 114.417 164.397 114.3C165.413 112.917 166.688 112.225 168.222 112.225C169.505 112.225 170.505 112.625 171.222 113.425C171.938 114.225 172.297 115.383 172.297 116.9V123.35C172.297 123.65 172.413 123.892 172.647 124.075C172.897 124.242 173.188 124.342 173.522 124.375L174.197 124.425C174.397 124.442 174.497 124.558 174.497 124.775C174.497 124.992 174.372 125.1 174.122 125.1L171.447 125L169.172 125.1C168.922 125.1 168.797 124.992 168.797 124.775C168.797 124.558 168.897 124.442 169.097 124.425L169.422 124.375C170.038 124.275 170.347 123.933 170.347 123.35V116.55C170.347 114.467 169.455 113.425 167.672 113.425C166.838 113.425 166.113 113.833 165.497 114.65C164.88 115.45 164.572 116.275 164.572 117.125V123.3C164.572 123.95 164.863 124.308 165.447 124.375L165.872 124.425C166.055 124.442 166.147 124.558 166.147 124.775C166.147 124.992 166.038 125.1 165.822 125.1L163.622 125L161.422 125.1C161.172 125.1 161.047 125 161.047 124.8C161.047 124.583 161.147 124.458 161.347 124.425L161.722 124.375C162.322 124.292 162.622 123.95 162.622 123.35V116.55C162.622 114.467 161.738 113.425 159.972 113.425C159.172 113.425 158.447 113.817 157.797 114.6C157.147 115.383 156.822 116.225 156.822 117.125V123.35C156.822 123.95 157.155 124.292 157.822 124.375L158.247 124.425C158.447 124.442 158.547 124.558 158.547 124.775C158.547 124.992 158.422 125.1 158.172 125.1L155.797 125L153.097 125.1C152.847 125.1 152.722 124.992 152.722 124.775C152.722 124.558 152.822 124.442 153.022 124.425L153.722 124.375C154.055 124.342 154.33 124.242 154.547 124.075C154.763 123.892 154.872 123.65 154.872 123.35V114.2C154.872 113.867 154.797 113.642 154.647 113.525C154.513 113.392 154.288 113.325 153.972 113.325H153.122C152.905 113.325 152.797 113.217 152.797 113C152.797 112.783 152.905 112.658 153.122 112.625L156.372 112.225C156.388 112.225 156.405 112.225 156.422 112.225ZM187.181 117.1C187.181 118.1 186.731 118.6 185.831 118.6H178.631C178.431 118.6 178.331 118.742 178.331 119.025C178.364 120.558 178.806 121.775 179.656 122.675C180.523 123.558 181.614 124 182.931 124C184.264 124 185.248 123.742 185.881 123.225C186.098 123.058 186.298 123.067 186.481 123.25C186.664 123.433 186.639 123.642 186.406 123.875C185.473 124.808 184.189 125.275 182.556 125.275C180.506 125.275 178.898 124.692 177.731 123.525C176.581 122.342 176.006 120.7 176.006 118.6C176.006 116.9 176.581 115.417 177.731 114.15C178.881 112.867 180.248 112.225 181.831 112.225C183.431 112.225 184.723 112.692 185.706 113.625C186.689 114.542 187.181 115.7 187.181 117.1ZM184.931 116.775C184.931 115.775 184.656 114.933 184.106 114.25C183.573 113.55 182.814 113.2 181.831 113.2C180.864 113.2 180.039 113.6 179.356 114.4C178.673 115.2 178.331 116.117 178.331 117.15C178.331 117.417 178.439 117.55 178.656 117.55H184.156C184.673 117.55 184.931 117.292 184.931 116.775ZM192.506 112.225C192.772 112.225 192.906 112.417 192.906 112.8V113.9C192.906 113.983 192.931 114.025 192.981 114.025C193.047 114.025 193.131 113.975 193.231 113.875C194.247 112.775 195.356 112.225 196.556 112.225C197.456 112.225 198.189 112.392 198.756 112.725C199.339 113.042 199.806 113.575 200.156 114.325C200.206 114.425 200.256 114.475 200.306 114.475C200.356 114.475 200.414 114.417 200.481 114.3C201.497 112.917 202.772 112.225 204.306 112.225C205.589 112.225 206.589 112.625 207.306 113.425C208.022 114.225 208.381 115.383 208.381 116.9V123.35C208.381 123.65 208.497 123.892 208.731 124.075C208.981 124.242 209.272 124.342 209.606 124.375L210.281 124.425C210.481 124.442 210.581 124.558 210.581 124.775C210.581 124.992 210.456 125.1 210.206 125.1L207.531 125L205.256 125.1C205.006 125.1 204.881 124.992 204.881 124.775C204.881 124.558 204.981 124.442 205.181 124.425L205.506 124.375C206.122 124.275 206.431 123.933 206.431 123.35V116.55C206.431 114.467 205.539 113.425 203.756 113.425C202.922 113.425 202.197 113.833 201.581 114.65C200.964 115.45 200.656 116.275 200.656 117.125V123.3C200.656 123.95 200.947 124.308 201.531 124.375L201.956 124.425C202.139 124.442 202.231 124.558 202.231 124.775C202.231 124.992 202.122 125.1 201.906 125.1L199.706 125L197.506 125.1C197.256 125.1 197.131 125 197.131 124.8C197.131 124.583 197.231 124.458 197.431 124.425L197.806 124.375C198.406 124.292 198.706 123.95 198.706 123.35V116.55C198.706 114.467 197.822 113.425 196.056 113.425C195.256 113.425 194.531 113.817 193.881 114.6C193.231 115.383 192.906 116.225 192.906 117.125V123.35C192.906 123.95 193.239 124.292 193.906 124.375L194.331 124.425C194.531 124.442 194.631 124.558 194.631 124.775C194.631 124.992 194.506 125.1 194.256 125.1L191.881 125L189.181 125.1C188.931 125.1 188.806 124.992 188.806 124.775C188.806 124.558 188.906 124.442 189.106 124.425L189.806 124.375C190.139 124.342 190.414 124.242 190.631 124.075C190.847 123.892 190.956 123.65 190.956 123.35V114.2C190.956 113.867 190.881 113.642 190.731 113.525C190.597 113.392 190.372 113.325 190.056 113.325H189.206C188.989 113.325 188.881 113.217 188.881 113C188.881 112.783 188.989 112.658 189.206 112.625L192.456 112.225C192.472 112.225 192.489 112.225 192.506 112.225ZM219.065 112.225C220.615 112.225 221.965 112.833 223.115 114.05C224.265 115.25 224.84 116.783 224.84 118.65C224.84 120.517 224.207 122.092 222.94 123.375C221.69 124.642 220.19 125.275 218.44 125.275C217.157 125.275 216.048 125.042 215.115 124.575C214.815 124.425 214.59 124.35 214.44 124.35C214.123 124.35 213.848 124.542 213.615 124.925C213.515 125.158 213.39 125.275 213.24 125.275C212.923 125.275 212.782 125.125 212.815 124.825C212.898 124.108 212.94 123.617 212.94 123.35V106.975C212.94 106.658 212.865 106.433 212.715 106.3C212.582 106.167 212.365 106.1 212.065 106.1H211.19C210.973 106.1 210.865 105.992 210.865 105.775C210.865 105.558 210.973 105.433 211.19 105.4L214.415 105C214.448 105 214.49 105 214.54 105C214.84 105 214.99 105.192 214.99 105.575L214.84 111.275V113.025C214.84 113.175 214.873 113.275 214.94 113.325C215.007 113.358 215.065 113.35 215.115 113.3C216.198 112.583 217.515 112.225 219.065 112.225ZM222.64 119.5C222.64 117.533 222.248 116.017 221.465 114.95C220.698 113.883 219.632 113.35 218.265 113.35C216.915 113.35 215.873 113.733 215.14 114.5C214.973 114.667 214.89 114.833 214.89 115V121.45C214.89 122.25 215.223 122.925 215.89 123.475C216.557 124.025 217.323 124.3 218.19 124.3C219.557 124.3 220.64 123.858 221.44 122.975C222.24 122.092 222.64 120.933 222.64 119.5ZM238.524 117.1C238.524 118.1 238.074 118.6 237.174 118.6H229.974C229.774 118.6 229.674 118.742 229.674 119.025C229.707 120.558 230.149 121.775 230.999 122.675C231.865 123.558 232.957 124 234.274 124C235.607 124 236.59 123.742 237.224 123.225C237.44 123.058 237.64 123.067 237.824 123.25C238.007 123.433 237.982 123.642 237.749 123.875C236.815 124.808 235.532 125.275 233.899 125.275C231.849 125.275 230.24 124.692 229.074 123.525C227.924 122.342 227.349 120.7 227.349 118.6C227.349 116.9 227.924 115.417 229.074 114.15C230.224 112.867 231.59 112.225 233.174 112.225C234.774 112.225 236.065 112.692 237.049 113.625C238.032 114.542 238.524 115.7 238.524 117.1ZM236.274 116.775C236.274 115.775 235.999 114.933 235.449 114.25C234.915 113.55 234.157 113.2 233.174 113.2C232.207 113.2 231.382 113.6 230.699 114.4C230.015 115.2 229.674 116.117 229.674 117.15C229.674 117.417 229.782 117.55 229.999 117.55H235.499C236.015 117.55 236.274 117.292 236.274 116.775ZM243.848 112.225C244.115 112.225 244.248 112.417 244.248 112.8V114.15C244.248 114.233 244.282 114.275 244.348 114.275C244.415 114.275 244.49 114.225 244.573 114.125C244.957 113.642 245.482 113.208 246.148 112.825C246.832 112.425 247.432 112.225 247.948 112.225C248.482 112.225 248.89 112.283 249.173 112.4C249.457 112.517 249.598 112.65 249.598 112.8V114.725C249.598 114.975 249.482 115.1 249.248 115.1C249.115 115.1 248.94 114.975 248.723 114.725C248.257 114.158 247.648 113.875 246.898 113.875C246.165 113.875 245.54 114.225 245.023 114.925C244.507 115.625 244.248 116.633 244.248 117.95V123.35C244.248 123.95 244.69 124.283 245.573 124.35L246.598 124.425C246.798 124.442 246.898 124.558 246.898 124.775C246.898 124.992 246.773 125.1 246.523 125.1L243.223 125L240.523 125.1C240.273 125.1 240.148 124.992 240.148 124.775C240.148 124.558 240.248 124.442 240.448 124.425L241.148 124.375C241.482 124.342 241.757 124.242 241.973 124.075C242.19 123.892 242.298 123.65 242.298 123.35V114.2C242.298 113.867 242.223 113.642 242.073 113.525C241.94 113.392 241.715 113.325 241.398 113.325H240.548C240.332 113.325 240.223 113.217 240.223 113C240.223 112.783 240.332 112.658 240.548 112.625L243.798 112.225C243.815 112.225 243.832 112.225 243.848 112.225ZM259.779 121.775C259.779 122.825 259.354 123.675 258.504 124.325C257.67 124.958 256.645 125.275 255.429 125.275C254.229 125.275 253.229 125.133 252.429 124.85C251.629 124.567 251.229 124.25 251.229 123.9V121.725C251.229 121.425 251.337 121.275 251.554 121.275C251.787 121.275 251.945 121.425 252.029 121.725C252.545 123.442 253.629 124.3 255.279 124.3C256.029 124.3 256.645 124.117 257.129 123.75C257.612 123.367 257.854 122.892 257.854 122.325C257.854 121.758 257.629 121.275 257.179 120.875C256.729 120.458 256.179 120.1 255.529 119.8C254.895 119.5 254.254 119.183 253.604 118.85C252.97 118.517 252.429 118.092 251.979 117.575C251.529 117.042 251.304 116.433 251.304 115.75C251.304 114.733 251.695 113.892 252.479 113.225C253.262 112.558 254.304 112.225 255.604 112.225C256.47 112.225 257.262 112.375 257.979 112.675C258.695 112.958 259.054 113.267 259.054 113.6V115.525C259.054 115.825 258.937 115.975 258.704 115.975C258.47 115.975 258.32 115.825 258.254 115.525C257.804 113.975 256.862 113.2 255.429 113.2C254.779 113.2 254.229 113.367 253.779 113.7C253.329 114.017 253.104 114.45 253.104 115C253.104 115.533 253.329 116.008 253.779 116.425C254.245 116.842 254.804 117.208 255.454 117.525C256.12 117.825 256.779 118.15 257.429 118.5C258.079 118.833 258.629 119.283 259.079 119.85C259.545 120.4 259.779 121.042 259.779 121.775ZM265.438 108.3C265.438 108.3 265.171 111.942 264.638 119.225C264.638 119.408 264.53 119.5 264.313 119.5H264.063C263.863 119.5 263.755 119.408 263.738 119.225C263.638 117.742 263.48 115.625 263.263 112.875C263.046 110.108 262.938 108.567 262.938 108.25C262.938 107.917 263.063 107.667 263.313 107.5C263.563 107.317 263.855 107.225 264.188 107.225C264.538 107.225 264.83 107.317 265.063 107.5C265.313 107.683 265.438 107.95 265.438 108.3ZM264.188 122.2C264.605 122.2 264.963 122.35 265.263 122.65C265.58 122.95 265.738 123.317 265.738 123.75C265.738 124.167 265.58 124.525 265.263 124.825C264.963 125.125 264.605 125.275 264.188 125.275C263.771 125.275 263.413 125.125 263.113 124.825C262.813 124.525 262.663 124.167 262.663 123.75C262.663 123.333 262.813 122.975 263.113 122.675C263.413 122.358 263.771 122.2 264.188 122.2Z" fill="#EAEAEA"/>
<line y1="140" x2="84" y2="140" stroke="white" stroke-width="2"/>
<defs>
<filter id="filter0_d_506_5" x="5.66992" y="29.2" width="394.202" height="60.5" filterUnits="userSpaceOnUse" color-interpolation-filters="sRGB">
<feFlood flood-opacity="0" result="BackgroundImageFix"/>
<feColorMatrix in="SourceAlpha" type="matrix" values="0 0 0 0 0 0 0 0 0 0 0 0 0 0 0 0 0 0 127 0" result="hardAlpha"/>
<feOffset dx="5" dy="4"/>
<feGaussianBlur stdDeviation="2"/>
<feComposite in2="hardAlpha" operator="out"/>
<feColorMatrix type="matrix" values="0 0 0 0 0 0 0 0 0 0 0 0 0 0 0 0 0 0 0.25 0"/>
<feBlend mode="normal" in2="BackgroundImageFix" result="effect1_dropShadow_506_5"/>
<feBlend mode="normal" in="SourceGraphic" in2="effect1_dropShadow_506_5" result="shape"/>
</filter>
</defs>
</svg>
