<svg width="388" height="76" viewBox="0 0 388 76" fill="none" xmlns="http://www.w3.org/2000/svg">
<g filter="url(#filter0_d_674_2)">
<path d="M26.94 67.9C17.88 67.9 11.16 65.68 6.78 61.24C2.4 56.74 0.210001 49.87 0.210001 40.63V1.3H12.81V38.2C12.81 42.88 13.26 46.57 14.16 49.27C15.06 51.97 16.53 53.92 18.57 55.12C20.67 56.26 23.46 56.83 26.94 56.83C30.48 56.83 33.27 56.26 35.31 55.12C37.35 53.92 38.82 51.97 39.72 49.27C40.62 46.57 41.07 42.88 41.07 38.2V1.3H53.67V40.63C53.67 49.87 51.48 56.74 47.1 61.24C42.72 65.68 36 67.9 26.94 67.9ZM66.848 67V1.3H79.988L107.438 46.03H107.618V1.3H120.218V67H106.988L79.628 22.27H79.448V67H66.848ZM134.084 67V1.3H178.724V12.01H146.684V27.67H176.924V38.02H146.684V56.29H178.724V67H134.084ZM211.572 67.9C207.132 67.9 202.782 67.45 198.522 66.55C194.262 65.59 190.722 64.3 187.902 62.68L190.782 51.61C192.822 52.63 195.072 53.56 197.532 54.4C199.992 55.18 202.512 55.81 205.092 56.29C207.672 56.71 210.102 56.92 212.382 56.92C216.342 56.92 219.372 56.23 221.472 54.85C223.572 53.47 224.622 51.46 224.622 48.82C224.622 47.38 224.292 46.18 223.632 45.22C222.972 44.2 221.982 43.33 220.662 42.61C219.342 41.83 217.662 41.11 215.622 40.45C213.582 39.79 211.182 39.1 208.422 38.38C205.242 37.48 202.392 36.46 199.872 35.32C197.352 34.18 195.192 32.83 193.392 31.27C191.652 29.71 190.302 27.91 189.342 25.87C188.442 23.77 187.992 21.37 187.992 18.67C187.992 12.79 190.242 8.29 194.742 5.17C199.242 1.99 205.602 0.399999 213.822 0.399999C217.902 0.399999 221.952 0.789998 225.972 1.56999C230.052 2.29 233.562 3.31 236.502 4.63L233.532 15.7C230.652 14.32 227.472 13.27 223.992 12.55C220.512 11.77 217.062 11.38 213.642 11.38C209.562 11.38 206.472 12.01 204.372 13.27C202.272 14.47 201.222 16.27 201.222 18.67C201.222 20.11 201.522 21.34 202.122 22.36C202.722 23.32 203.622 24.16 204.822 24.88C206.082 25.6 207.642 26.29 209.502 26.95C211.422 27.61 213.702 28.33 216.342 29.11C219.762 30.07 222.792 31.15 225.432 32.35C228.132 33.49 230.382 34.84 232.182 36.4C234.042 37.9 235.452 39.67 236.412 41.71C237.372 43.75 237.852 46.15 237.852 48.91C237.852 54.91 235.542 59.59 230.922 62.95C226.362 66.25 219.912 67.9 211.572 67.9ZM279.392 67.9C272.192 67.9 266.012 66.58 260.852 63.94C255.692 61.24 251.732 57.37 248.972 52.33C246.272 47.29 244.922 41.23 244.922 34.15C244.922 27.07 246.272 21.01 248.972 15.97C251.732 10.93 255.692 7.09 260.852 4.45C266.012 1.75 272.192 0.399999 279.392 0.399999C287.612 0.399999 294.902 2.17 301.262 5.71L298.382 16.69C292.202 13.21 286.052 11.47 279.932 11.47C275.372 11.47 271.442 12.37 268.142 14.17C264.842 15.97 262.322 18.58 260.582 22C258.842 25.36 257.972 29.41 257.972 34.15C257.972 38.83 258.842 42.88 260.582 46.3C262.322 49.72 264.842 52.33 268.142 54.13C271.442 55.93 275.372 56.83 279.932 56.83C285.932 56.83 292.082 55.09 298.382 51.61L301.262 62.59C294.902 66.13 287.612 67.9 279.392 67.9ZM339.758 67.9C332.858 67.9 326.858 66.55 321.758 63.85C316.658 61.09 312.728 57.19 309.968 52.15C307.268 47.05 305.918 41.05 305.918 34.15C305.918 27.19 307.268 21.19 309.968 16.15C312.728 11.11 316.658 7.24 321.758 4.54C326.858 1.78 332.858 0.399999 339.758 0.399999C346.778 0.399999 352.808 1.78 357.848 4.54C362.948 7.24 366.848 11.11 369.548 16.15C372.308 21.19 373.688 27.19 373.688 34.15C373.688 41.05 372.308 47.05 369.548 52.15C366.848 57.19 362.948 61.09 357.848 63.85C352.808 66.55 346.778 67.9 339.758 67.9ZM339.758 56.83C344.198 56.83 347.978 55.93 351.098 54.13C354.218 52.33 356.588 49.75 358.208 46.39C359.888 42.97 360.728 38.89 360.728 34.15C360.728 29.41 359.888 25.36 358.208 22C356.588 18.58 354.218 15.97 351.098 14.17C347.978 12.37 344.198 11.47 339.758 11.47C335.378 11.47 331.598 12.37 328.418 14.17C325.298 15.97 322.898 18.58 321.218 22C319.598 25.36 318.788 29.41 318.788 34.15C318.788 38.89 319.598 42.97 321.218 46.39C322.898 49.75 325.298 52.33 328.418 54.13C331.598 55.93 335.378 56.83 339.758 56.83Z" fill="white"/>
</g>
<defs>
<filter id="filter0_d_674_2" x="0.209961" y="0.399994" width="387.478" height="75.5" filterUnits="userSpaceOnUse" color-interpolation-filters="sRGB">
<feFlood flood-opacity="0" result="BackgroundImageFix"/>
<feColorMatrix in="SourceAlpha" type="matrix" values="0 0 0 0 0 0 0 0 0 0 0 0 0 0 0 0 0 0 127 0" result="hardAlpha"/>
<feOffset dx="10" dy="4"/>
<feGaussianBlur stdDeviation="2"/>
<feComposite in2="hardAlpha" operator="out"/>
<feColorMatrix type="matrix" values="0 0 0 0 0 0 0 0 0 0 0 0 0 0 0 0 0 0 0.25 0"/>
<feBlend mode="normal" in2="BackgroundImageFix" result="effect1_dropShadow_674_2"/>
<feBlend mode="normal" in="SourceGraphic" in2="effect1_dropShadow_674_2" result="shape"/>
</filter>
</defs>
</svg>
