<svg width="666" height="321" viewBox="0 0 666 321" fill="none" xmlns="http://www.w3.org/2000/svg">
<g filter="url(#filter0_d_848_177)">
<rect width="431" height="206" rx="20" fill="#F2F2F2"/>
</g>
<path d="M131.491 51.4628L141.001 30.4628H143.971L153.511 51.4628H150.361L141.871 32.1428H143.071L134.581 51.4628H131.491ZM135.541 46.2128L136.351 43.8128H148.171L149.041 46.2128H135.541ZM163.007 51.6428C161.387 51.6428 159.937 51.2928 158.657 50.5928C157.397 49.8928 156.407 48.9328 155.687 47.7128C154.967 46.4928 154.607 45.0928 154.607 43.5128C154.607 41.9328 154.967 40.5328 155.687 39.3128C156.407 38.0928 157.397 37.1428 158.657 36.4628C159.937 35.7628 161.387 35.4128 163.007 35.4128C164.447 35.4128 165.727 35.7028 166.847 36.2828C167.987 36.8428 168.867 37.6828 169.487 38.8028L167.297 40.2128C166.777 39.4328 166.137 38.8628 165.377 38.5028C164.637 38.1228 163.837 37.9328 162.977 37.9328C161.937 37.9328 161.007 38.1628 160.187 38.6228C159.367 39.0828 158.717 39.7328 158.237 40.5728C157.757 41.3928 157.517 42.3728 157.517 43.5128C157.517 44.6528 157.757 45.6428 158.237 46.4828C158.717 47.3228 159.367 47.9728 160.187 48.4328C161.007 48.8928 161.937 49.1228 162.977 49.1228C163.837 49.1228 164.637 48.9428 165.377 48.5828C166.137 48.2028 166.777 47.6228 167.297 46.8428L169.487 48.2228C168.867 49.3228 167.987 50.1728 166.847 50.7728C165.727 51.3528 164.447 51.6428 163.007 51.6428ZM183.085 51.4628V48.1028L182.935 47.4728V41.7428C182.935 40.5228 182.575 39.5828 181.855 38.9228C181.155 38.2428 180.095 37.9028 178.675 37.9028C177.735 37.9028 176.815 38.0628 175.915 38.3828C175.015 38.6828 174.255 39.0928 173.635 39.6128L172.435 37.4528C173.255 36.7928 174.235 36.2928 175.375 35.9528C176.535 35.5928 177.745 35.4128 179.005 35.4128C181.185 35.4128 182.865 35.9428 184.045 37.0028C185.225 38.0628 185.815 39.6828 185.815 41.8628V51.4628H183.085ZM177.865 51.6428C176.685 51.6428 175.645 51.4428 174.745 51.0428C173.865 50.6428 173.185 50.0928 172.705 49.3928C172.225 48.6728 171.985 47.8628 171.985 46.9628C171.985 46.1028 172.185 45.3228 172.585 44.6228C173.005 43.9228 173.675 43.3628 174.595 42.9428C175.535 42.5228 176.795 42.3128 178.375 42.3128H183.415V44.3828H178.495C177.055 44.3828 176.085 44.6228 175.585 45.1028C175.085 45.5828 174.835 46.1628 174.835 46.8428C174.835 47.6228 175.145 48.2528 175.765 48.7328C176.385 49.1928 177.245 49.4228 178.345 49.4228C179.425 49.4228 180.365 49.1828 181.165 48.7028C181.985 48.2228 182.575 47.5228 182.935 46.6028L183.505 48.5828C183.125 49.5228 182.455 50.2728 181.495 50.8328C180.535 51.3728 179.325 51.6428 177.865 51.6428ZM197.715 51.6428C196.175 51.6428 194.795 51.3028 193.575 50.6228C192.375 49.9428 191.425 48.9928 190.725 47.7728C190.025 46.5528 189.675 45.1328 189.675 43.5128C189.675 41.8928 190.025 40.4828 190.725 39.2828C191.425 38.0628 192.375 37.1128 193.575 36.4328C194.795 35.7528 196.175 35.4128 197.715 35.4128C199.055 35.4128 200.265 35.7128 201.345 36.3128C202.425 36.9128 203.285 37.8128 203.925 39.0128C204.585 40.2128 204.915 41.7128 204.915 43.5128C204.915 45.3128 204.595 46.8128 203.955 48.0128C203.335 49.2128 202.485 50.1228 201.405 50.7428C200.325 51.3428 199.095 51.6428 197.715 51.6428ZM197.955 49.1228C198.955 49.1228 199.855 48.8928 200.655 48.4328C201.475 47.9728 202.115 47.3228 202.575 46.4828C203.055 45.6228 203.295 44.6328 203.295 43.5128C203.295 42.3728 203.055 41.3928 202.575 40.5728C202.115 39.7328 201.475 39.0828 200.655 38.6228C199.855 38.1628 198.955 37.9328 197.955 37.9328C196.935 37.9328 196.025 38.1628 195.225 38.6228C194.425 39.0828 193.785 39.7328 193.305 40.5728C192.825 41.3928 192.585 42.3728 192.585 43.5128C192.585 44.6328 192.825 45.6228 193.305 46.4828C193.785 47.3228 194.425 47.9728 195.225 48.4328C196.025 48.8928 196.935 49.1228 197.955 49.1228ZM203.385 51.4628V47.1728L203.565 43.4828L203.265 39.7928V29.2028H206.145V51.4628H203.385ZM218.674 51.6428C216.974 51.6428 215.474 51.2928 214.174 50.5928C212.894 49.8928 211.894 48.9328 211.174 47.7128C210.474 46.4928 210.124 45.0928 210.124 43.5128C210.124 41.9328 210.464 40.5328 211.144 39.3128C211.844 38.0928 212.794 37.1428 213.994 36.4628C215.214 35.7628 216.584 35.4128 218.104 35.4128C219.644 35.4128 221.004 35.7528 222.184 36.4328C223.364 37.1128 224.284 38.0728 224.944 39.3128C225.624 40.5328 225.964 41.9628 225.964 43.6028C225.964 43.7228 225.954 43.8628 225.934 44.0228C225.934 44.1828 225.924 44.3328 225.904 44.4728H212.374V42.4028H224.404L223.234 43.1228C223.254 42.1028 223.044 41.1928 222.604 40.3928C222.164 39.5928 221.554 38.9728 220.774 38.5328C220.014 38.0728 219.124 37.8428 218.104 37.8428C217.104 37.8428 216.214 38.0728 215.434 38.5328C214.654 38.9728 214.044 39.6028 213.604 40.4228C213.164 41.2228 212.944 42.1428 212.944 43.1828V43.6628C212.944 44.7228 213.184 45.6728 213.664 46.5128C214.164 47.3328 214.854 47.9728 215.734 48.4328C216.614 48.8928 217.624 49.1228 218.764 49.1228C219.704 49.1228 220.554 48.9628 221.314 48.6428C222.094 48.3228 222.774 47.8428 223.354 47.2028L224.944 49.0628C224.224 49.9028 223.324 50.5428 222.244 50.9828C221.184 51.4228 219.994 51.6428 218.674 51.6428ZM249.853 35.4128C251.133 35.4128 252.263 35.6628 253.243 36.1628C254.223 36.6628 254.983 37.4228 255.523 38.4428C256.083 39.4628 256.363 40.7528 256.363 42.3128V51.4628H253.483V42.6428C253.483 41.1028 253.123 39.9428 252.403 39.1628C251.683 38.3828 250.673 37.9928 249.373 37.9928C248.413 37.9928 247.573 38.1928 246.853 38.5928C246.133 38.9928 245.573 39.5828 245.173 40.3628C244.793 41.1428 244.603 42.1128 244.603 43.2728V51.4628H241.723V42.6428C241.723 41.1028 241.363 39.9428 240.643 39.1628C239.943 38.3828 238.933 37.9928 237.613 37.9928C236.673 37.9928 235.843 38.1928 235.123 38.5928C234.403 38.9928 233.843 39.5828 233.443 40.3628C233.043 41.1428 232.843 42.1128 232.843 43.2728V51.4628H229.963V35.5628H232.723V39.7928L232.273 38.7128C232.773 37.6728 233.543 36.8628 234.583 36.2828C235.623 35.7028 236.833 35.4128 238.213 35.4128C239.733 35.4128 241.043 35.7928 242.143 36.5528C243.243 37.2928 243.963 38.4228 244.303 39.9428L243.133 39.4628C243.613 38.2428 244.453 37.2628 245.653 36.5228C246.853 35.7828 248.253 35.4128 249.853 35.4128ZM261.663 51.4628V35.5628H264.543V51.4628H261.663ZM263.103 32.5028C262.543 32.5028 262.073 32.3228 261.693 31.9628C261.333 31.6028 261.153 31.1628 261.153 30.6428C261.153 30.1028 261.333 29.6528 261.693 29.2928C262.073 28.9328 262.543 28.7528 263.103 28.7528C263.663 28.7528 264.123 28.9328 264.483 29.2928C264.863 29.6328 265.053 30.0628 265.053 30.5828C265.053 31.1228 264.873 31.5828 264.513 31.9628C264.153 32.3228 263.683 32.5028 263.103 32.5028ZM276.972 51.6428C275.352 51.6428 273.902 51.2928 272.622 50.5928C271.362 49.8928 270.372 48.9328 269.652 47.7128C268.932 46.4928 268.572 45.0928 268.572 43.5128C268.572 41.9328 268.932 40.5328 269.652 39.3128C270.372 38.0928 271.362 37.1428 272.622 36.4628C273.902 35.7628 275.352 35.4128 276.972 35.4128C278.412 35.4128 279.692 35.7028 280.812 36.2828C281.952 36.8428 282.832 37.6828 283.452 38.8028L281.262 40.2128C280.742 39.4328 280.102 38.8628 279.342 38.5028C278.602 38.1228 277.802 37.9328 276.942 37.9328C275.902 37.9328 274.972 38.1628 274.152 38.6228C273.332 39.0828 272.682 39.7328 272.202 40.5728C271.722 41.3928 271.482 42.3728 271.482 43.5128C271.482 44.6528 271.722 45.6428 272.202 46.4828C272.682 47.3228 273.332 47.9728 274.152 48.4328C274.972 48.8928 275.902 49.1228 276.942 49.1228C277.802 49.1228 278.602 48.9428 279.342 48.5828C280.102 48.2028 280.742 47.6228 281.262 46.8428L283.452 48.2228C282.832 49.3228 281.952 50.1728 280.812 50.7728C279.692 51.3528 278.412 51.6428 276.972 51.6428ZM291.74 51.6428C290.42 51.6428 289.16 51.4628 287.96 51.1028C286.78 50.7428 285.85 50.3028 285.17 49.7828L286.37 47.5028C287.05 47.9628 287.89 48.3528 288.89 48.6728C289.89 48.9928 290.91 49.1528 291.95 49.1528C293.29 49.1528 294.25 48.9628 294.83 48.5828C295.43 48.2028 295.73 47.6728 295.73 46.9928C295.73 46.4928 295.55 46.1028 295.19 45.8228C294.83 45.5428 294.35 45.3328 293.75 45.1928C293.17 45.0528 292.52 44.9328 291.8 44.8328C291.08 44.7128 290.36 44.5728 289.64 44.4128C288.92 44.2328 288.26 43.9928 287.66 43.6928C287.06 43.3728 286.58 42.9428 286.22 42.4028C285.86 41.8428 285.68 41.1028 285.68 40.1828C285.68 39.2228 285.95 38.3828 286.49 37.6628C287.03 36.9428 287.79 36.3928 288.77 36.0128C289.77 35.6128 290.95 35.4128 292.31 35.4128C293.35 35.4128 294.4 35.5428 295.46 35.8028C296.54 36.0428 297.42 36.3928 298.1 36.8528L296.87 39.1328C296.15 38.6528 295.4 38.3228 294.62 38.1428C293.84 37.9628 293.06 37.8728 292.28 37.8728C291.02 37.8728 290.08 38.0828 289.46 38.5028C288.84 38.9028 288.53 39.4228 288.53 40.0628C288.53 40.6028 288.71 41.0228 289.07 41.3228C289.45 41.6028 289.93 41.8228 290.51 41.9828C291.11 42.1428 291.77 42.2828 292.49 42.4028C293.21 42.5028 293.93 42.6428 294.65 42.8228C295.37 42.9828 296.02 43.2128 296.6 43.5128C297.2 43.8128 297.68 44.2328 298.04 44.7728C298.42 45.3128 298.61 46.0328 298.61 46.9328C298.61 47.8928 298.33 48.7228 297.77 49.4228C297.21 50.1228 296.42 50.6728 295.4 51.0728C294.38 51.4528 293.16 51.6428 291.74 51.6428Z" fill="black"/>
<path d="M58.4224 98.5106L66.4724 81.0106H67.7474L75.7974 98.5106H74.4224L66.8224 81.8106H67.3724L59.7974 98.5106H58.4224ZM61.3724 93.5856L61.7974 92.5106H72.2724L72.6974 93.5856H61.3724ZM79.5243 94.9106L79.5493 93.3356L88.1743 85.4606H89.7743L84.0493 90.8356L83.2993 91.4606L79.5243 94.9106ZM78.5743 98.5106V79.9606H79.8243V98.5106H78.5743ZM88.7743 98.5106L83.0743 91.3606L83.9243 90.4356L90.3243 98.5106H88.7743ZM101.252 98.5106V95.5356L101.202 95.0856V90.1856C101.202 88.969 100.869 88.044 100.202 87.4106C99.5524 86.7773 98.5941 86.4606 97.3274 86.4606C96.4274 86.4606 95.5858 86.619 94.8024 86.9356C94.0358 87.2356 93.3774 87.6273 92.8274 88.1106L92.2024 87.2106C92.8524 86.6273 93.6358 86.1773 94.5524 85.8606C95.4691 85.5273 96.4274 85.3606 97.4274 85.3606C99.0441 85.3606 100.286 85.769 101.152 86.5856C102.019 87.4023 102.452 88.619 102.452 90.2356V98.5106H101.252ZM96.5524 98.6106C95.5858 98.6106 94.7441 98.4606 94.0274 98.1606C93.3274 97.844 92.7858 97.4023 92.4024 96.8356C92.0358 96.269 91.8524 95.619 91.8524 94.8856C91.8524 94.219 92.0024 93.619 92.3024 93.0856C92.6191 92.5356 93.1358 92.094 93.8524 91.7606C94.5691 91.4106 95.5274 91.2356 96.7274 91.2356H101.527V92.2106H96.7524C95.4024 92.2106 94.4524 92.4606 93.9024 92.9606C93.3691 93.4606 93.1024 94.0856 93.1024 94.8356C93.1024 95.669 93.4191 96.3356 94.0524 96.8356C94.6858 97.3356 95.5774 97.5856 96.7274 97.5856C97.8274 97.5856 98.7524 97.3356 99.5024 96.8356C100.269 96.3356 100.836 95.6106 101.202 94.6606L101.552 95.5106C101.202 96.4606 100.602 97.219 99.7524 97.7856C98.9191 98.3356 97.8524 98.6106 96.5524 98.6106ZM112.628 98.6106C111.411 98.6106 110.311 98.3356 109.328 97.7856C108.361 97.219 107.594 96.4356 107.028 95.4356C106.461 94.4356 106.178 93.2856 106.178 91.9856C106.178 90.669 106.461 89.519 107.028 88.5356C107.594 87.5356 108.361 86.7606 109.328 86.2106C110.311 85.644 111.411 85.3606 112.628 85.3606C113.778 85.3606 114.811 85.6273 115.728 86.1606C116.661 86.694 117.394 87.4523 117.928 88.4356C118.478 89.419 118.753 90.6023 118.753 91.9856C118.753 93.3356 118.486 94.5106 117.953 95.5106C117.419 96.5106 116.686 97.2773 115.753 97.8106C114.836 98.344 113.794 98.6106 112.628 98.6106ZM112.703 97.4856C113.703 97.4856 114.594 97.2606 115.378 96.8106C116.178 96.344 116.803 95.694 117.253 94.8606C117.719 94.0273 117.953 93.069 117.953 91.9856C117.953 90.8856 117.719 89.9273 117.253 89.1106C116.803 88.2773 116.178 87.6356 115.378 87.1856C114.594 86.719 113.703 86.4856 112.703 86.4856C111.703 86.4856 110.803 86.719 110.003 87.1856C109.219 87.6356 108.594 88.2773 108.128 89.1106C107.678 89.9273 107.453 90.8856 107.453 91.9856C107.453 93.069 107.678 94.0273 108.128 94.8606C108.594 95.694 109.219 96.344 110.003 96.8106C110.803 97.2606 111.703 97.4856 112.703 97.4856ZM117.978 98.5106V94.2356L118.203 91.9606L117.953 89.6856V79.9606H119.203V98.5106H117.978ZM129.773 98.6106C128.456 98.6106 127.289 98.3273 126.273 97.7606C125.273 97.194 124.481 96.4106 123.898 95.4106C123.331 94.4106 123.048 93.269 123.048 91.9856C123.048 90.6856 123.314 89.544 123.848 88.5606C124.398 87.5606 125.148 86.7773 126.098 86.2106C127.048 85.644 128.114 85.3606 129.298 85.3606C130.481 85.3606 131.539 85.6356 132.473 86.1856C133.423 86.7356 134.164 87.5106 134.698 88.5106C135.248 89.494 135.523 90.6356 135.523 91.9356C135.523 91.9856 135.514 92.044 135.498 92.1106C135.498 92.1606 135.498 92.219 135.498 92.2856H123.973V91.3106H134.823L134.323 91.7856C134.339 90.769 134.123 89.8606 133.673 89.0606C133.239 88.244 132.648 87.6106 131.898 87.1606C131.148 86.694 130.281 86.4606 129.298 86.4606C128.331 86.4606 127.464 86.694 126.698 87.1606C125.948 87.6106 125.356 88.244 124.923 89.0606C124.489 89.8606 124.273 90.7773 124.273 91.8106V92.0356C124.273 93.1023 124.506 94.0523 124.973 94.8856C125.456 95.7023 126.114 96.344 126.948 96.8106C127.781 97.2606 128.731 97.4856 129.798 97.4856C130.631 97.4856 131.406 97.3356 132.123 97.0356C132.856 96.7356 133.473 96.2773 133.973 95.6606L134.698 96.4856C134.131 97.1856 133.414 97.719 132.548 98.0856C131.698 98.4356 130.773 98.6106 129.773 98.6106ZM155.64 85.3606C156.69 85.3606 157.598 85.569 158.365 85.9856C159.148 86.3856 159.756 87.0023 160.19 87.8356C160.623 88.6523 160.84 89.669 160.84 90.8856V98.5106H159.59V90.9856C159.59 89.519 159.231 88.4023 158.515 87.6356C157.798 86.869 156.798 86.4856 155.515 86.4856C154.531 86.4856 153.681 86.694 152.965 87.1106C152.248 87.5273 151.698 88.1106 151.315 88.8606C150.931 89.6106 150.74 90.5106 150.74 91.5606V98.5106H149.49V90.9856C149.49 89.519 149.131 88.4023 148.415 87.6356C147.698 86.869 146.698 86.4856 145.415 86.4856C144.431 86.4856 143.581 86.694 142.865 87.1106C142.148 87.5273 141.598 88.1106 141.215 88.8606C140.831 89.6106 140.64 90.5106 140.64 91.5606V98.5106H139.39V85.4606H140.59V89.0606L140.415 88.6606C140.798 87.644 141.44 86.844 142.34 86.2606C143.24 85.6606 144.323 85.3606 145.59 85.3606C146.89 85.3606 147.981 85.694 148.865 86.3606C149.765 87.0106 150.331 87.9856 150.565 89.2856L150.14 89.1106C150.49 87.994 151.148 87.094 152.115 86.4106C153.081 85.7106 154.256 85.3606 155.64 85.3606ZM166.001 98.5106V85.4606H167.251V98.5106H166.001ZM166.626 82.2856C166.343 82.2856 166.101 82.1856 165.901 81.9856C165.701 81.7856 165.601 81.5523 165.601 81.2856C165.601 81.0023 165.701 80.7606 165.901 80.5606C166.101 80.3606 166.343 80.2606 166.626 80.2606C166.926 80.2606 167.168 80.3606 167.351 80.5606C167.551 80.744 167.651 80.9773 167.651 81.2606C167.651 81.544 167.551 81.7856 167.351 81.9856C167.168 82.1856 166.926 82.2856 166.626 82.2856ZM175.82 98.6106C174.736 98.6106 173.72 98.4523 172.77 98.1356C171.836 97.819 171.111 97.419 170.595 96.9356L171.17 95.9356C171.67 96.369 172.336 96.744 173.17 97.0606C174.003 97.3606 174.903 97.5106 175.87 97.5106C177.236 97.5106 178.22 97.2856 178.82 96.8356C179.42 96.3856 179.72 95.794 179.72 95.0606C179.72 94.5273 179.561 94.1106 179.245 93.8106C178.945 93.494 178.536 93.2523 178.02 93.0856C177.503 92.919 176.936 92.7856 176.32 92.6856C175.703 92.569 175.086 92.444 174.47 92.3106C173.853 92.1773 173.286 91.9856 172.77 91.7356C172.253 91.4856 171.836 91.144 171.52 90.7106C171.22 90.2606 171.07 89.669 171.07 88.9356C171.07 88.269 171.253 87.669 171.62 87.1356C171.986 86.6023 172.536 86.1773 173.27 85.8606C174.003 85.5273 174.92 85.3606 176.02 85.3606C176.836 85.3606 177.653 85.4773 178.47 85.7106C179.303 85.944 179.978 86.2523 180.495 86.6356L179.92 87.6356C179.37 87.219 178.753 86.919 178.07 86.7356C177.386 86.5523 176.695 86.4606 175.995 86.4606C174.728 86.4606 173.795 86.694 173.195 87.1606C172.611 87.6273 172.32 88.2106 172.32 88.9106C172.32 89.4606 172.47 89.9023 172.77 90.2356C173.086 90.5523 173.503 90.8023 174.02 90.9856C174.536 91.1523 175.103 91.294 175.72 91.4106C176.336 91.5106 176.953 91.6273 177.57 91.7606C178.186 91.894 178.753 92.0856 179.27 92.3356C179.786 92.569 180.195 92.9023 180.495 93.3356C180.811 93.7523 180.97 94.319 180.97 95.0356C180.97 95.7523 180.77 96.3773 180.37 96.9106C179.986 97.444 179.411 97.8606 178.645 98.1606C177.878 98.4606 176.936 98.6106 175.82 98.6106ZM184.458 98.5106V85.4606H185.708V98.5106H184.458ZM185.083 82.2856C184.8 82.2856 184.558 82.1856 184.358 81.9856C184.158 81.7856 184.058 81.5523 184.058 81.2856C184.058 81.0023 184.158 80.7606 184.358 80.5606C184.558 80.3606 184.8 80.2606 185.083 80.2606C185.383 80.2606 185.625 80.3606 185.808 80.5606C186.008 80.744 186.108 80.9773 186.108 81.2606C186.108 81.544 186.008 81.7856 185.808 81.9856C185.625 82.1856 185.383 82.2856 185.083 82.2856ZM197.098 103.461C196.498 103.461 195.931 103.361 195.398 103.161C194.881 102.961 194.439 102.669 194.073 102.286L194.698 101.336C195.031 101.686 195.389 101.944 195.773 102.111C196.173 102.277 196.623 102.361 197.123 102.361C197.723 102.361 198.248 102.194 198.698 101.861C199.164 101.527 199.598 100.919 199.998 100.036L200.898 98.0356L201.073 97.8106L206.598 85.4606H207.873L201.173 100.286C200.823 101.086 200.439 101.711 200.023 102.161C199.623 102.627 199.181 102.961 198.698 103.161C198.214 103.361 197.681 103.461 197.098 103.461ZM200.873 98.8356L194.823 85.4606H196.148L201.648 97.7356L200.873 98.8356ZM218.44 98.5106V95.5356L218.39 95.0856V90.1856C218.39 88.969 218.057 88.044 217.39 87.4106C216.74 86.7773 215.782 86.4606 214.515 86.4606C213.615 86.4606 212.773 86.619 211.99 86.9356C211.223 87.2356 210.565 87.6273 210.015 88.1106L209.39 87.2106C210.04 86.6273 210.823 86.1773 211.74 85.8606C212.657 85.5273 213.615 85.3606 214.615 85.3606C216.232 85.3606 217.473 85.769 218.34 86.5856C219.207 87.4023 219.64 88.619 219.64 90.2356V98.5106H218.44ZM213.74 98.6106C212.773 98.6106 211.932 98.4606 211.215 98.1606C210.515 97.844 209.973 97.4023 209.59 96.8356C209.223 96.269 209.04 95.619 209.04 94.8856C209.04 94.219 209.19 93.619 209.49 93.0856C209.807 92.5356 210.323 92.094 211.04 91.7606C211.757 91.4106 212.715 91.2356 213.915 91.2356H218.715V92.2106H213.94C212.59 92.2106 211.64 92.4606 211.09 92.9606C210.557 93.4606 210.29 94.0856 210.29 94.8356C210.29 95.669 210.607 96.3356 211.24 96.8356C211.873 97.3356 212.765 97.5856 213.915 97.5856C215.015 97.5856 215.94 97.3356 216.69 96.8356C217.457 96.3356 218.023 95.6106 218.39 94.6606L218.74 95.5106C218.39 96.4606 217.79 97.219 216.94 97.7856C216.107 98.3356 215.04 98.6106 213.74 98.6106ZM231.165 85.3606C232.232 85.3606 233.157 85.569 233.94 85.9856C234.74 86.3856 235.357 87.0023 235.79 87.8356C236.24 88.6523 236.465 89.669 236.465 90.8856V98.5106H235.215V90.9856C235.215 89.519 234.84 88.4023 234.09 87.6356C233.357 86.869 232.323 86.4856 230.99 86.4856C229.973 86.4856 229.09 86.694 228.34 87.1106C227.59 87.5273 227.015 88.1106 226.615 88.8606C226.232 89.6106 226.04 90.5106 226.04 91.5606V98.5106H224.79V85.4606H225.99V89.0856L225.815 88.6856C226.215 87.6523 226.873 86.844 227.79 86.2606C228.707 85.6606 229.832 85.3606 231.165 85.3606ZM247.036 103.461C245.853 103.461 244.728 103.277 243.661 102.911C242.595 102.544 241.728 102.036 241.061 101.386L241.736 100.436C242.386 101.036 243.161 101.502 244.061 101.836C244.978 102.169 245.961 102.336 247.011 102.336C248.761 102.336 250.045 101.927 250.861 101.111C251.695 100.294 252.111 99.0106 252.111 97.2606V93.6356L252.361 91.6856L252.161 89.7356V85.4606H253.361V97.1106C253.361 99.294 252.828 100.894 251.761 101.911C250.711 102.944 249.136 103.461 247.036 103.461ZM246.686 98.0356C245.453 98.0356 244.345 97.769 243.361 97.2356C242.395 96.6856 241.62 95.9356 241.036 94.9856C240.47 94.019 240.186 92.919 240.186 91.6856C240.186 90.4356 240.47 89.3356 241.036 88.3856C241.62 87.4356 242.395 86.694 243.361 86.1606C244.345 85.6273 245.453 85.3606 246.686 85.3606C247.87 85.3606 248.928 85.619 249.861 86.1356C250.811 86.6356 251.561 87.3606 252.111 88.3106C252.661 89.244 252.936 90.369 252.936 91.6856C252.936 92.9856 252.661 94.1106 252.111 95.0606C251.561 96.0106 250.811 96.744 249.861 97.2606C248.928 97.7773 247.87 98.0356 246.686 98.0356ZM246.786 96.9106C247.836 96.9106 248.761 96.694 249.561 96.2606C250.361 95.8106 250.986 95.194 251.436 94.4106C251.903 93.6106 252.136 92.7023 252.136 91.6856C252.136 90.6523 251.903 89.744 251.436 88.9606C250.986 88.1773 250.361 87.569 249.561 87.1356C248.761 86.7023 247.836 86.4856 246.786 86.4856C245.77 86.4856 244.853 86.7023 244.036 87.1356C243.236 87.569 242.603 88.1773 242.136 88.9606C241.686 89.744 241.461 90.6523 241.461 91.6856C241.461 92.7023 241.686 93.6106 242.136 94.4106C242.603 95.194 243.236 95.8106 244.036 96.2606C244.853 96.694 245.77 96.9106 246.786 96.9106ZM281.323 85.3606C282.373 85.3606 283.282 85.569 284.048 85.9856C284.832 86.3856 285.44 87.0023 285.873 87.8356C286.307 88.6523 286.523 89.669 286.523 90.8856V98.5106H285.273V90.9856C285.273 89.519 284.915 88.4023 284.198 87.6356C283.482 86.869 282.482 86.4856 281.198 86.4856C280.215 86.4856 279.365 86.694 278.648 87.1106C277.932 87.5273 277.382 88.1106 276.998 88.8606C276.615 89.6106 276.423 90.5106 276.423 91.5606V98.5106H275.173V90.9856C275.173 89.519 274.815 88.4023 274.098 87.6356C273.382 86.869 272.382 86.4856 271.098 86.4856C270.115 86.4856 269.265 86.694 268.548 87.1106C267.832 87.5273 267.282 88.1106 266.898 88.8606C266.515 89.6106 266.323 90.5106 266.323 91.5606V98.5106H265.073V85.4606H266.273V89.0606L266.098 88.6606C266.482 87.644 267.123 86.844 268.023 86.2606C268.923 85.6606 270.007 85.3606 271.273 85.3606C272.573 85.3606 273.665 85.694 274.548 86.3606C275.448 87.0106 276.015 87.9856 276.248 89.2856L275.823 89.1106C276.173 87.994 276.832 87.094 277.798 86.4106C278.765 85.7106 279.94 85.3606 281.323 85.3606ZM296.985 98.6106C295.668 98.6106 294.501 98.3273 293.485 97.7606C292.485 97.194 291.693 96.4106 291.11 95.4106C290.543 94.4106 290.26 93.269 290.26 91.9856C290.26 90.6856 290.526 89.544 291.06 88.5606C291.61 87.5606 292.36 86.7773 293.31 86.2106C294.26 85.644 295.326 85.3606 296.51 85.3606C297.693 85.3606 298.751 85.6356 299.685 86.1856C300.635 86.7356 301.376 87.5106 301.91 88.5106C302.46 89.494 302.735 90.6356 302.735 91.9356C302.735 91.9856 302.726 92.044 302.71 92.1106C302.71 92.1606 302.71 92.219 302.71 92.2856H291.185V91.3106H302.035L301.535 91.7856C301.551 90.769 301.335 89.8606 300.885 89.0606C300.451 88.244 299.86 87.6106 299.11 87.1606C298.36 86.694 297.493 86.4606 296.51 86.4606C295.543 86.4606 294.676 86.694 293.91 87.1606C293.16 87.6106 292.568 88.244 292.135 89.0606C291.701 89.8606 291.485 90.7773 291.485 91.8106V92.0356C291.485 93.1023 291.718 94.0523 292.185 94.8856C292.668 95.7023 293.326 96.344 294.16 96.8106C294.993 97.2606 295.943 97.4856 297.01 97.4856C297.843 97.4856 298.618 97.3356 299.335 97.0356C300.068 96.7356 300.685 96.2773 301.185 95.6606L301.91 96.4856C301.343 97.1856 300.626 97.719 299.76 98.0856C298.91 98.4356 297.985 98.6106 296.985 98.6106ZM308.908 98.5106L303.958 85.4606H305.158L309.758 97.8106H309.233L313.958 85.4606H315.033L319.733 97.8106H319.183L323.858 85.4606H325.008L320.058 98.5106H318.883L314.283 86.6606H314.683L310.058 98.5106H308.908ZM335.75 98.5106V95.5356L335.7 95.0856V90.1856C335.7 88.969 335.366 88.044 334.7 87.4106C334.05 86.7773 333.091 86.4606 331.825 86.4606C330.925 86.4606 330.083 86.619 329.3 86.9356C328.533 87.2356 327.875 87.6273 327.325 88.1106L326.7 87.2106C327.35 86.6273 328.133 86.1773 329.05 85.8606C329.966 85.5273 330.925 85.3606 331.925 85.3606C333.541 85.3606 334.783 85.769 335.65 86.5856C336.516 87.4023 336.95 88.619 336.95 90.2356V98.5106H335.75ZM331.05 98.6106C330.083 98.6106 329.241 98.4606 328.525 98.1606C327.825 97.844 327.283 97.4023 326.9 96.8356C326.533 96.269 326.35 95.619 326.35 94.8856C326.35 94.219 326.5 93.619 326.8 93.0856C327.116 92.5356 327.633 92.094 328.35 91.7606C329.066 91.4106 330.025 91.2356 331.225 91.2356H336.025V92.2106H331.25C329.9 92.2106 328.95 92.4606 328.4 92.9606C327.866 93.4606 327.6 94.0856 327.6 94.8356C327.6 95.669 327.916 96.3356 328.55 96.8356C329.183 97.3356 330.075 97.5856 331.225 97.5856C332.325 97.5856 333.25 97.3356 334 96.8356C334.766 96.3356 335.333 95.6106 335.7 94.6606L336.05 95.5106C335.7 96.4606 335.1 97.219 334.25 97.7856C333.416 98.3356 332.35 98.6106 331.05 98.6106ZM343.05 94.9106L343.075 93.3356L351.7 85.4606H353.3L347.575 90.8356L346.825 91.4606L343.05 94.9106ZM342.1 98.5106V79.9606H343.35V98.5106H342.1ZM352.3 98.5106L346.6 91.3606L347.45 90.4356L353.85 98.5106H352.3ZM356.797 98.5106V85.4606H358.047V98.5106H356.797ZM357.422 82.2856C357.139 82.2856 356.897 82.1856 356.697 81.9856C356.497 81.7856 356.397 81.5523 356.397 81.2856C356.397 81.0023 356.497 80.7606 356.697 80.5606C356.897 80.3606 357.139 80.2606 357.422 80.2606C357.722 80.2606 357.964 80.3606 358.147 80.5606C358.347 80.744 358.447 80.9773 358.447 81.2606C358.447 81.544 358.347 81.7856 358.147 81.9856C357.964 82.1856 357.722 82.2856 357.422 82.2856ZM363.316 98.5106V79.9606H364.566V98.5106H363.316ZM369.834 98.5106V85.4606H371.084V98.5106H369.834ZM370.459 82.2856C370.176 82.2856 369.934 82.1856 369.734 81.9856C369.534 81.7856 369.434 81.5523 369.434 81.2856C369.434 81.0023 369.534 80.7606 369.734 80.5606C369.934 80.3606 370.176 80.2606 370.459 80.2606C370.759 80.2606 371.001 80.3606 371.184 80.5606C371.384 80.744 371.484 80.9773 371.484 81.2606C371.484 81.544 371.384 81.7856 371.184 81.9856C371.001 82.1856 370.759 82.2856 370.459 82.2856ZM50.7078 128.611C49.5911 128.611 48.6245 128.411 47.8078 128.011C46.9911 127.594 46.3578 126.977 45.9078 126.161C45.4745 125.327 45.2578 124.302 45.2578 123.086V115.461H46.5078V122.986C46.5078 124.452 46.8828 125.569 47.6328 126.336C48.3828 127.102 49.4411 127.486 50.8078 127.486C51.7911 127.486 52.6411 127.277 53.3578 126.861C54.0745 126.444 54.6245 125.861 55.0078 125.111C55.3911 124.344 55.5828 123.444 55.5828 122.411V115.461H56.8328V128.511H55.6328V124.886L55.8078 125.311C55.4245 126.327 54.7828 127.136 53.8828 127.736C52.9995 128.319 51.9411 128.611 50.7078 128.611ZM68.5064 115.361C69.5731 115.361 70.4981 115.569 71.2814 115.986C72.0814 116.386 72.6981 117.002 73.1314 117.836C73.5814 118.652 73.8064 119.669 73.8064 120.886V128.511H72.5564V120.986C72.5564 119.519 72.1814 118.402 71.4314 117.636C70.6981 116.869 69.6648 116.486 68.3314 116.486C67.3148 116.486 66.4314 116.694 65.6814 117.111C64.9314 117.527 64.3564 118.111 63.9564 118.861C63.5731 119.611 63.3814 120.511 63.3814 121.561V128.511H62.1314V115.461H63.3314V119.086L63.1564 118.686C63.5564 117.652 64.2148 116.844 65.1314 116.261C66.0481 115.661 67.1731 115.361 68.5064 115.361ZM82.2527 128.611C81.1694 128.611 80.1527 128.452 79.2027 128.136C78.2694 127.819 77.5444 127.419 77.0277 126.936L77.6027 125.936C78.1027 126.369 78.7694 126.744 79.6027 127.061C80.4361 127.361 81.3361 127.511 82.3027 127.511C83.6694 127.511 84.6527 127.286 85.2527 126.836C85.8527 126.386 86.1527 125.794 86.1527 125.061C86.1527 124.527 85.9944 124.111 85.6777 123.811C85.3777 123.494 84.9694 123.252 84.4527 123.086C83.9361 122.919 83.3694 122.786 82.7527 122.686C82.1361 122.569 81.5194 122.444 80.9027 122.311C80.2861 122.177 79.7194 121.986 79.2027 121.736C78.6861 121.486 78.2694 121.144 77.9527 120.711C77.6527 120.261 77.5027 119.669 77.5027 118.936C77.5027 118.269 77.6861 117.669 78.0527 117.136C78.4194 116.602 78.9694 116.177 79.7027 115.861C80.4361 115.527 81.3527 115.361 82.4527 115.361C83.2694 115.361 84.0861 115.477 84.9027 115.711C85.7361 115.944 86.4111 116.252 86.9277 116.636L86.3527 117.636C85.8027 117.219 85.1861 116.919 84.5027 116.736C83.8194 116.552 83.1277 116.461 82.4277 116.461C81.1611 116.461 80.2277 116.694 79.6277 117.161C79.0444 117.627 78.7527 118.211 78.7527 118.911C78.7527 119.461 78.9027 119.902 79.2027 120.236C79.5194 120.552 79.9361 120.802 80.4527 120.986C80.9694 121.152 81.5361 121.294 82.1527 121.411C82.7694 121.511 83.3861 121.627 84.0027 121.761C84.6194 121.894 85.1861 122.086 85.7027 122.336C86.2194 122.569 86.6277 122.902 86.9277 123.336C87.2444 123.752 87.4027 124.319 87.4027 125.036C87.4027 125.752 87.2027 126.377 86.8027 126.911C86.4194 127.444 85.8444 127.861 85.0777 128.161C84.3111 128.461 83.3694 128.611 82.2527 128.611ZM96.1912 128.611C95.0745 128.611 94.1079 128.411 93.2912 128.011C92.4745 127.594 91.8412 126.977 91.3912 126.161C90.9579 125.327 90.7412 124.302 90.7412 123.086V115.461H91.9912V122.986C91.9912 124.452 92.3662 125.569 93.1162 126.336C93.8662 127.102 94.9245 127.486 96.2912 127.486C97.2745 127.486 98.1245 127.277 98.8412 126.861C99.5579 126.444 100.108 125.861 100.491 125.111C100.875 124.344 101.066 123.444 101.066 122.411V115.461H102.316V128.511H101.116V124.886L101.291 125.311C100.908 126.327 100.266 127.136 99.3662 127.736C98.4829 128.319 97.4245 128.611 96.1912 128.611ZM107.615 128.511V115.461H108.815V119.036L108.69 118.636C109.057 117.586 109.673 116.777 110.54 116.211C111.407 115.644 112.49 115.361 113.79 115.361V116.586C113.74 116.586 113.69 116.586 113.64 116.586C113.59 116.569 113.54 116.561 113.49 116.561C112.04 116.561 110.907 117.019 110.09 117.936C109.273 118.836 108.865 120.094 108.865 121.711V128.511H107.615ZM130.425 128.611C129.275 128.611 128.233 128.344 127.3 127.811C126.383 127.277 125.65 126.519 125.1 125.536C124.566 124.536 124.3 123.352 124.3 121.986C124.3 120.619 124.566 119.444 125.1 118.461C125.65 117.461 126.383 116.694 127.3 116.161C128.233 115.627 129.275 115.361 130.425 115.361C131.658 115.361 132.758 115.644 133.725 116.211C134.708 116.761 135.475 117.536 136.025 118.536C136.591 119.536 136.875 120.686 136.875 121.986C136.875 123.286 136.591 124.436 136.025 125.436C135.475 126.436 134.708 127.219 133.725 127.786C132.758 128.336 131.658 128.611 130.425 128.611ZM123.875 133.361V115.461H125.075V119.736L124.875 122.011L125.125 124.286V133.361H123.875ZM130.35 127.486C131.35 127.486 132.25 127.261 133.05 126.811C133.85 126.344 134.475 125.694 134.925 124.861C135.391 124.027 135.625 123.069 135.625 121.986C135.625 120.886 135.391 119.927 134.925 119.111C134.475 118.277 133.85 117.636 133.05 117.186C132.25 116.719 131.35 116.486 130.35 116.486C129.35 116.486 128.45 116.719 127.65 117.186C126.866 117.636 126.241 118.277 125.775 119.111C125.325 119.927 125.1 120.886 125.1 121.986C125.1 123.069 125.325 124.027 125.775 124.861C126.241 125.694 126.866 126.344 127.65 126.811C128.45 127.261 129.35 127.486 130.35 127.486ZM146.045 128.611C144.728 128.611 143.561 128.327 142.545 127.761C141.545 127.194 140.753 126.411 140.17 125.411C139.603 124.411 139.32 123.269 139.32 121.986C139.32 120.686 139.586 119.544 140.12 118.561C140.67 117.561 141.42 116.777 142.37 116.211C143.32 115.644 144.386 115.361 145.57 115.361C146.753 115.361 147.811 115.636 148.745 116.186C149.695 116.736 150.436 117.511 150.97 118.511C151.52 119.494 151.795 120.636 151.795 121.936C151.795 121.986 151.786 122.044 151.77 122.111C151.77 122.161 151.77 122.219 151.77 122.286H140.245V121.311H151.095L150.595 121.786C150.611 120.769 150.395 119.861 149.945 119.061C149.511 118.244 148.92 117.611 148.17 117.161C147.42 116.694 146.553 116.461 145.57 116.461C144.603 116.461 143.736 116.694 142.97 117.161C142.22 117.611 141.628 118.244 141.195 119.061C140.761 119.861 140.545 120.777 140.545 121.811V122.036C140.545 123.102 140.778 124.052 141.245 124.886C141.728 125.702 142.386 126.344 143.22 126.811C144.053 127.261 145.003 127.486 146.07 127.486C146.903 127.486 147.678 127.336 148.395 127.036C149.128 126.736 149.745 126.277 150.245 125.661L150.97 126.486C150.403 127.186 149.686 127.719 148.82 128.086C147.97 128.436 147.045 128.611 146.045 128.611ZM155.662 128.511V115.461H156.862V119.036L156.737 118.636C157.103 117.586 157.72 116.777 158.587 116.211C159.453 115.644 160.537 115.361 161.837 115.361V116.586C161.787 116.586 161.737 116.586 161.687 116.586C161.637 116.569 161.587 116.561 161.537 116.561C160.087 116.561 158.953 117.019 158.137 117.936C157.32 118.836 156.912 120.094 156.912 121.711V128.511H155.662ZM170.584 133.461C169.4 133.461 168.275 133.277 167.209 132.911C166.142 132.544 165.275 132.036 164.609 131.386L165.284 130.436C165.934 131.036 166.709 131.502 167.609 131.836C168.525 132.169 169.509 132.336 170.559 132.336C172.309 132.336 173.592 131.927 174.409 131.111C175.242 130.294 175.659 129.011 175.659 127.261V123.636L175.909 121.686L175.709 119.736V115.461H176.909V127.111C176.909 129.294 176.375 130.894 175.309 131.911C174.259 132.944 172.684 133.461 170.584 133.461ZM170.234 128.036C169 128.036 167.892 127.769 166.909 127.236C165.942 126.686 165.167 125.936 164.584 124.986C164.017 124.019 163.734 122.919 163.734 121.686C163.734 120.436 164.017 119.336 164.584 118.386C165.167 117.436 165.942 116.694 166.909 116.161C167.892 115.627 169 115.361 170.234 115.361C171.417 115.361 172.475 115.619 173.409 116.136C174.359 116.636 175.109 117.361 175.659 118.311C176.209 119.244 176.484 120.369 176.484 121.686C176.484 122.986 176.209 124.111 175.659 125.061C175.109 126.011 174.359 126.744 173.409 127.261C172.475 127.777 171.417 128.036 170.234 128.036ZM170.334 126.911C171.384 126.911 172.309 126.694 173.109 126.261C173.909 125.811 174.534 125.194 174.984 124.411C175.45 123.611 175.684 122.702 175.684 121.686C175.684 120.652 175.45 119.744 174.984 118.961C174.534 118.177 173.909 117.569 173.109 117.136C172.309 116.702 171.384 116.486 170.334 116.486C169.317 116.486 168.4 116.702 167.584 117.136C166.784 117.569 166.15 118.177 165.684 118.961C165.234 119.744 165.009 120.652 165.009 121.686C165.009 122.702 165.234 123.611 165.684 124.411C166.15 125.194 166.784 125.811 167.584 126.261C168.4 126.694 169.317 126.911 170.334 126.911ZM187.5 128.611C186.383 128.611 185.416 128.411 184.6 128.011C183.783 127.594 183.15 126.977 182.7 126.161C182.266 125.327 182.05 124.302 182.05 123.086V115.461H183.3V122.986C183.3 124.452 183.675 125.569 184.425 126.336C185.175 127.102 186.233 127.486 187.6 127.486C188.583 127.486 189.433 127.277 190.15 126.861C190.866 126.444 191.416 125.861 191.8 125.111C192.183 124.344 192.375 123.444 192.375 122.411V115.461H193.625V128.511H192.425V124.886L192.6 125.311C192.216 126.327 191.575 127.136 190.675 127.736C189.791 128.319 188.733 128.611 187.5 128.611ZM198.923 128.511V115.461H200.123V119.036L199.998 118.636C200.365 117.586 200.982 116.777 201.848 116.211C202.715 115.644 203.798 115.361 205.098 115.361V116.586C205.048 116.586 204.998 116.586 204.948 116.586C204.898 116.569 204.848 116.561 204.798 116.561C203.348 116.561 202.215 117.019 201.398 117.936C200.582 118.836 200.173 120.094 200.173 121.711V128.511H198.923ZM214.062 128.611C212.946 128.611 211.979 128.411 211.162 128.011C210.346 127.594 209.712 126.977 209.262 126.161C208.829 125.327 208.612 124.302 208.612 123.086V115.461H209.862V122.986C209.862 124.452 210.237 125.569 210.987 126.336C211.737 127.102 212.796 127.486 214.162 127.486C215.146 127.486 215.996 127.277 216.712 126.861C217.429 126.444 217.979 125.861 218.362 125.111C218.746 124.344 218.937 123.444 218.937 122.411V115.461H220.187V128.511H218.987V124.886L219.162 125.311C218.779 126.327 218.137 127.136 217.237 127.736C216.354 128.319 215.296 128.611 214.062 128.611ZM233.711 128.511V125.536L233.661 125.086V120.186C233.661 118.969 233.328 118.044 232.661 117.411C232.011 116.777 231.053 116.461 229.786 116.461C228.886 116.461 228.044 116.619 227.261 116.936C226.494 117.236 225.836 117.627 225.286 118.111L224.661 117.211C225.311 116.627 226.094 116.177 227.011 115.861C227.928 115.527 228.886 115.361 229.886 115.361C231.503 115.361 232.744 115.769 233.611 116.586C234.478 117.402 234.911 118.619 234.911 120.236V128.511H233.711ZM229.011 128.611C228.044 128.611 227.203 128.461 226.486 128.161C225.786 127.844 225.244 127.402 224.861 126.836C224.494 126.269 224.311 125.619 224.311 124.886C224.311 124.219 224.461 123.619 224.761 123.086C225.078 122.536 225.594 122.094 226.311 121.761C227.028 121.411 227.986 121.236 229.186 121.236H233.986V122.211H229.211C227.861 122.211 226.911 122.461 226.361 122.961C225.828 123.461 225.561 124.086 225.561 124.836C225.561 125.669 225.878 126.336 226.511 126.836C227.144 127.336 228.036 127.586 229.186 127.586C230.286 127.586 231.211 127.336 231.961 126.836C232.728 126.336 233.294 125.611 233.661 124.661L234.011 125.511C233.661 126.461 233.061 127.219 232.211 127.786C231.378 128.336 230.311 128.611 229.011 128.611ZM246.436 115.361C247.503 115.361 248.428 115.569 249.211 115.986C250.011 116.386 250.628 117.002 251.061 117.836C251.511 118.652 251.736 119.669 251.736 120.886V128.511H250.486V120.986C250.486 119.519 250.111 118.402 249.361 117.636C248.628 116.869 247.594 116.486 246.261 116.486C245.244 116.486 244.361 116.694 243.611 117.111C242.861 117.527 242.286 118.111 241.886 118.861C241.503 119.611 241.311 120.511 241.311 121.561V128.511H240.061V115.461H241.261V119.086L241.086 118.686C241.486 117.652 242.144 116.844 243.061 116.261C243.978 115.661 245.103 115.361 246.436 115.361ZM267.103 128.611C265.953 128.611 265.07 128.294 264.453 127.661C263.853 127.027 263.553 126.161 263.553 125.061V112.611H264.803V124.936C264.803 125.769 265.012 126.411 265.428 126.861C265.845 127.311 266.445 127.536 267.228 127.536C268.045 127.536 268.72 127.294 269.253 126.811L269.778 127.686C269.445 128.002 269.037 128.236 268.553 128.386C268.087 128.536 267.603 128.611 267.103 128.611ZM261.153 116.536V115.461H268.953V116.536H261.153ZM273.264 128.511V115.461H274.514V128.511H273.264ZM273.889 112.286C273.606 112.286 273.364 112.186 273.164 111.986C272.964 111.786 272.864 111.552 272.864 111.286C272.864 111.002 272.964 110.761 273.164 110.561C273.364 110.361 273.606 110.261 273.889 110.261C274.189 110.261 274.431 110.361 274.614 110.561C274.814 110.744 274.914 110.977 274.914 111.261C274.914 111.544 274.814 111.786 274.614 111.986C274.431 112.186 274.189 112.286 273.889 112.286ZM286.158 115.361C287.224 115.361 288.149 115.569 288.933 115.986C289.733 116.386 290.349 117.002 290.783 117.836C291.233 118.652 291.458 119.669 291.458 120.886V128.511H290.208V120.986C290.208 119.519 289.833 118.402 289.083 117.636C288.349 116.869 287.316 116.486 285.983 116.486C284.966 116.486 284.083 116.694 283.333 117.111C282.583 117.527 282.008 118.111 281.608 118.861C281.224 119.611 281.033 120.511 281.033 121.561V128.511H279.783V115.461H280.983V119.086L280.808 118.686C281.208 117.652 281.866 116.844 282.783 116.261C283.699 115.661 284.824 115.361 286.158 115.361ZM302.029 133.461C300.846 133.461 299.721 133.277 298.654 132.911C297.587 132.544 296.721 132.036 296.054 131.386L296.729 130.436C297.379 131.036 298.154 131.502 299.054 131.836C299.971 132.169 300.954 132.336 302.004 132.336C303.754 132.336 305.037 131.927 305.854 131.111C306.687 130.294 307.104 129.011 307.104 127.261V123.636L307.354 121.686L307.154 119.736V115.461H308.354V127.111C308.354 129.294 307.821 130.894 306.754 131.911C305.704 132.944 304.129 133.461 302.029 133.461ZM301.679 128.036C300.446 128.036 299.337 127.769 298.354 127.236C297.387 126.686 296.612 125.936 296.029 124.986C295.462 124.019 295.179 122.919 295.179 121.686C295.179 120.436 295.462 119.336 296.029 118.386C296.612 117.436 297.387 116.694 298.354 116.161C299.337 115.627 300.446 115.361 301.679 115.361C302.862 115.361 303.921 115.619 304.854 116.136C305.804 116.636 306.554 117.361 307.104 118.311C307.654 119.244 307.929 120.369 307.929 121.686C307.929 122.986 307.654 124.111 307.104 125.061C306.554 126.011 305.804 126.744 304.854 127.261C303.921 127.777 302.862 128.036 301.679 128.036ZM301.779 126.911C302.829 126.911 303.754 126.694 304.554 126.261C305.354 125.811 305.979 125.194 306.429 124.411C306.896 123.611 307.129 122.702 307.129 121.686C307.129 120.652 306.896 119.744 306.429 118.961C305.979 118.177 305.354 117.569 304.554 117.136C303.754 116.702 302.829 116.486 301.779 116.486C300.762 116.486 299.846 116.702 299.029 117.136C298.229 117.569 297.596 118.177 297.129 118.961C296.679 119.744 296.454 120.652 296.454 121.686C296.454 122.702 296.679 123.611 297.129 124.411C297.596 125.194 298.229 125.811 299.029 126.261C299.846 126.694 300.762 126.911 301.779 126.911ZM319.07 133.461C317.887 133.461 316.762 133.277 315.695 132.911C314.628 132.544 313.762 132.036 313.095 131.386L313.77 130.436C314.42 131.036 315.195 131.502 316.095 131.836C317.012 132.169 317.995 132.336 319.045 132.336C320.795 132.336 322.078 131.927 322.895 131.111C323.728 130.294 324.145 129.011 324.145 127.261V123.636L324.395 121.686L324.195 119.736V115.461H325.395V127.111C325.395 129.294 324.862 130.894 323.795 131.911C322.745 132.944 321.17 133.461 319.07 133.461ZM318.72 128.036C317.487 128.036 316.378 127.769 315.395 127.236C314.428 126.686 313.653 125.936 313.07 124.986C312.503 124.019 312.22 122.919 312.22 121.686C312.22 120.436 312.503 119.336 313.07 118.386C313.653 117.436 314.428 116.694 315.395 116.161C316.378 115.627 317.487 115.361 318.72 115.361C319.903 115.361 320.962 115.619 321.895 116.136C322.845 116.636 323.595 117.361 324.145 118.311C324.695 119.244 324.97 120.369 324.97 121.686C324.97 122.986 324.695 124.111 324.145 125.061C323.595 126.011 322.845 126.744 321.895 127.261C320.962 127.777 319.903 128.036 318.72 128.036ZM318.82 126.911C319.87 126.911 320.795 126.694 321.595 126.261C322.395 125.811 323.02 125.194 323.47 124.411C323.937 123.611 324.17 122.702 324.17 121.686C324.17 120.652 323.937 119.744 323.47 118.961C323.02 118.177 322.395 117.569 321.595 117.136C320.795 116.702 319.87 116.486 318.82 116.486C317.803 116.486 316.887 116.702 316.07 117.136C315.27 117.569 314.637 118.177 314.17 118.961C313.72 119.744 313.495 120.652 313.495 121.686C313.495 122.702 313.72 123.611 314.17 124.411C314.637 125.194 315.27 125.811 316.07 126.261C316.887 126.694 317.803 126.911 318.82 126.911ZM330.686 128.511V115.461H331.936V128.511H330.686ZM331.311 112.286C331.028 112.286 330.786 112.186 330.586 111.986C330.386 111.786 330.286 111.552 330.286 111.286C330.286 111.002 330.386 110.761 330.586 110.561C330.786 110.361 331.028 110.261 331.311 110.261C331.611 110.261 331.853 110.361 332.036 110.561C332.236 110.744 332.336 110.977 332.336 111.261C332.336 111.544 332.236 111.786 332.036 111.986C331.853 112.186 331.611 112.286 331.311 112.286ZM348.651 128.611C347.434 128.611 346.334 128.336 345.351 127.786C344.384 127.219 343.617 126.436 343.051 125.436C342.484 124.436 342.201 123.286 342.201 121.986C342.201 120.669 342.484 119.519 343.051 118.536C343.617 117.536 344.384 116.761 345.351 116.211C346.334 115.644 347.434 115.361 348.651 115.361C349.801 115.361 350.834 115.627 351.751 116.161C352.684 116.694 353.417 117.452 353.951 118.436C354.501 119.419 354.776 120.602 354.776 121.986C354.776 123.336 354.509 124.511 353.976 125.511C353.442 126.511 352.709 127.277 351.776 127.811C350.859 128.344 349.817 128.611 348.651 128.611ZM348.726 127.486C349.726 127.486 350.617 127.261 351.401 126.811C352.201 126.344 352.826 125.694 353.276 124.861C353.742 124.027 353.976 123.069 353.976 121.986C353.976 120.886 353.742 119.927 353.276 119.111C352.826 118.277 352.201 117.636 351.401 117.186C350.617 116.719 349.726 116.486 348.726 116.486C347.726 116.486 346.826 116.719 346.026 117.186C345.242 117.636 344.617 118.277 344.151 119.111C343.701 119.927 343.476 120.886 343.476 121.986C343.476 123.069 343.701 124.027 344.151 124.861C344.617 125.694 345.242 126.344 346.026 126.811C346.826 127.261 347.726 127.486 348.726 127.486ZM354.001 128.511V124.236L354.226 121.961L353.976 119.686V109.961H355.226V128.511H354.001ZM368.721 128.511V125.536L368.671 125.086V120.186C368.671 118.969 368.337 118.044 367.671 117.411C367.021 116.777 366.062 116.461 364.796 116.461C363.896 116.461 363.054 116.619 362.271 116.936C361.504 117.236 360.846 117.627 360.296 118.111L359.671 117.211C360.321 116.627 361.104 116.177 362.021 115.861C362.937 115.527 363.896 115.361 364.896 115.361C366.512 115.361 367.754 115.769 368.621 116.586C369.487 117.402 369.921 118.619 369.921 120.236V128.511H368.721ZM364.021 128.611C363.054 128.611 362.212 128.461 361.496 128.161C360.796 127.844 360.254 127.402 359.871 126.836C359.504 126.269 359.321 125.619 359.321 124.886C359.321 124.219 359.471 123.619 359.771 123.086C360.087 122.536 360.604 122.094 361.321 121.761C362.037 121.411 362.996 121.236 364.196 121.236H368.996V122.211H364.221C362.871 122.211 361.921 122.461 361.371 122.961C360.837 123.461 360.571 124.086 360.571 124.836C360.571 125.669 360.887 126.336 361.521 126.836C362.154 127.336 363.046 127.586 364.196 127.586C365.296 127.586 366.221 127.336 366.971 126.836C367.737 126.336 368.304 125.611 368.671 124.661L369.021 125.511C368.671 126.461 368.071 127.219 367.221 127.786C366.387 128.336 365.321 128.611 364.021 128.611ZM381.446 115.361C382.513 115.361 383.438 115.569 384.221 115.986C385.021 116.386 385.638 117.002 386.071 117.836C386.521 118.652 386.746 119.669 386.746 120.886V128.511H385.496V120.986C385.496 119.519 385.121 118.402 384.371 117.636C383.638 116.869 382.604 116.486 381.271 116.486C380.254 116.486 379.371 116.694 378.621 117.111C377.871 117.527 377.296 118.111 376.896 118.861C376.513 119.611 376.321 120.511 376.321 121.561V128.511H375.071V115.461H376.271V119.086L376.096 118.686C376.496 117.652 377.154 116.844 378.071 116.261C378.988 115.661 380.113 115.361 381.446 115.361ZM48.0201 158.511V145.461H49.2701V158.511H48.0201ZM48.6451 142.286C48.3618 142.286 48.1201 142.186 47.9201 141.986C47.7201 141.786 47.6201 141.552 47.6201 141.286C47.6201 141.002 47.7201 140.761 47.9201 140.561C48.1201 140.361 48.3618 140.261 48.6451 140.261C48.9451 140.261 49.1868 140.361 49.3701 140.561C49.5701 140.744 49.6701 140.977 49.6701 141.261C49.6701 141.544 49.5701 141.786 49.3701 141.986C49.1868 142.186 48.9451 142.286 48.6451 142.286ZM60.9137 145.361C61.9803 145.361 62.9053 145.569 63.6887 145.986C64.4887 146.386 65.1053 147.002 65.5387 147.836C65.9887 148.652 66.2137 149.669 66.2137 150.886V158.511H64.9637V150.986C64.9637 149.519 64.5887 148.402 63.8387 147.636C63.1053 146.869 62.072 146.486 60.7387 146.486C59.722 146.486 58.8387 146.694 58.0887 147.111C57.3387 147.527 56.7637 148.111 56.3637 148.861C55.9803 149.611 55.7887 150.511 55.7887 151.561V158.511H54.5387V145.461H55.7387V149.086L55.5637 148.686C55.9637 147.652 56.622 146.844 57.5387 146.261C58.4553 145.661 59.5803 145.361 60.9137 145.361ZM74.66 158.611C73.5766 158.611 72.56 158.452 71.61 158.136C70.6766 157.819 69.9516 157.419 69.435 156.936L70.01 155.936C70.51 156.369 71.1766 156.744 72.01 157.061C72.8433 157.361 73.7433 157.511 74.71 157.511C76.0766 157.511 77.06 157.286 77.66 156.836C78.26 156.386 78.56 155.794 78.56 155.061C78.56 154.527 78.4016 154.111 78.085 153.811C77.785 153.494 77.3766 153.252 76.86 153.086C76.3433 152.919 75.7766 152.786 75.16 152.686C74.5433 152.569 73.9266 152.444 73.31 152.311C72.6933 152.177 72.1266 151.986 71.61 151.736C71.0933 151.486 70.6766 151.144 70.36 150.711C70.06 150.261 69.91 149.669 69.91 148.936C69.91 148.269 70.0933 147.669 70.46 147.136C70.8266 146.602 71.3766 146.177 72.11 145.861C72.8433 145.527 73.76 145.361 74.86 145.361C75.6766 145.361 76.4933 145.477 77.31 145.711C78.1433 145.944 78.8183 146.252 79.335 146.636L78.76 147.636C78.21 147.219 77.5933 146.919 76.91 146.736C76.2266 146.552 75.535 146.461 74.835 146.461C73.5683 146.461 72.635 146.694 72.035 147.161C71.4516 147.627 71.16 148.211 71.16 148.911C71.16 149.461 71.31 149.902 71.61 150.236C71.9266 150.552 72.3433 150.802 72.86 150.986C73.3766 151.152 73.9433 151.294 74.56 151.411C75.1766 151.511 75.7933 151.627 76.41 151.761C77.0266 151.894 77.5933 152.086 78.11 152.336C78.6266 152.569 79.035 152.902 79.335 153.336C79.6516 153.752 79.81 154.319 79.81 155.036C79.81 155.752 79.61 156.377 79.21 156.911C78.8266 157.444 78.2516 157.861 77.485 158.161C76.7183 158.461 75.7766 158.611 74.66 158.611ZM87.0984 158.611C85.9484 158.611 85.0651 158.294 84.4484 157.661C83.8484 157.027 83.5484 156.161 83.5484 155.061V142.611H84.7984V154.936C84.7984 155.769 85.0068 156.411 85.4234 156.861C85.8401 157.311 86.4401 157.536 87.2234 157.536C88.0401 157.536 88.7151 157.294 89.2484 156.811L89.7734 157.686C89.4401 158.002 89.0318 158.236 88.5484 158.386C88.0818 158.536 87.5984 158.611 87.0984 158.611ZM81.1484 146.536V145.461H88.9484V146.536H81.1484ZM93.2594 158.511V145.461H94.5094V158.511H93.2594ZM93.8844 142.286C93.601 142.286 93.3594 142.186 93.1594 141.986C92.9594 141.786 92.8594 141.552 92.8594 141.286C92.8594 141.002 92.9594 140.761 93.1594 140.561C93.3594 140.361 93.601 140.261 93.8844 140.261C94.1844 140.261 94.426 140.361 94.6094 140.561C94.8094 140.744 94.9094 140.977 94.9094 141.261C94.9094 141.544 94.8094 141.786 94.6094 141.986C94.426 142.186 94.1844 142.286 93.8844 142.286ZM103.578 158.611C102.428 158.611 101.545 158.294 100.928 157.661C100.328 157.027 100.028 156.161 100.028 155.061V142.611H101.278V154.936C101.278 155.769 101.486 156.411 101.903 156.861C102.32 157.311 102.92 157.536 103.703 157.536C104.52 157.536 105.195 157.294 105.728 156.811L106.253 157.686C105.92 158.002 105.511 158.236 105.028 158.386C104.561 158.536 104.078 158.611 103.578 158.611ZM97.6279 146.536V145.461H105.428V146.536H97.6279ZM115.039 158.611C113.922 158.611 112.956 158.411 112.139 158.011C111.322 157.594 110.689 156.977 110.239 156.161C109.806 155.327 109.589 154.302 109.589 153.086V145.461H110.839V152.986C110.839 154.452 111.214 155.569 111.964 156.336C112.714 157.102 113.772 157.486 115.139 157.486C116.122 157.486 116.972 157.277 117.689 156.861C118.406 156.444 118.956 155.861 119.339 155.111C119.722 154.344 119.914 153.444 119.914 152.411V145.461H121.164V158.511H119.964V154.886L120.139 155.311C119.756 156.327 119.114 157.136 118.214 157.736C117.331 158.319 116.272 158.611 115.039 158.611ZM129.763 158.611C128.679 158.611 127.663 158.452 126.713 158.136C125.779 157.819 125.054 157.419 124.538 156.936L125.113 155.936C125.613 156.369 126.279 156.744 127.112 157.061C127.946 157.361 128.846 157.511 129.813 157.511C131.179 157.511 132.163 157.286 132.763 156.836C133.363 156.386 133.663 155.794 133.663 155.061C133.663 154.527 133.504 154.111 133.188 153.811C132.888 153.494 132.479 153.252 131.963 153.086C131.446 152.919 130.879 152.786 130.263 152.686C129.646 152.569 129.029 152.444 128.413 152.311C127.796 152.177 127.229 151.986 126.713 151.736C126.196 151.486 125.779 151.144 125.462 150.711C125.163 150.261 125.013 149.669 125.013 148.936C125.013 148.269 125.196 147.669 125.563 147.136C125.929 146.602 126.479 146.177 127.213 145.861C127.946 145.527 128.863 145.361 129.963 145.361C130.779 145.361 131.596 145.477 132.413 145.711C133.246 145.944 133.921 146.252 134.438 146.636L133.863 147.636C133.313 147.219 132.696 146.919 132.013 146.736C131.329 146.552 130.638 146.461 129.938 146.461C128.671 146.461 127.738 146.694 127.138 147.161C126.554 147.627 126.263 148.211 126.263 148.911C126.263 149.461 126.413 149.902 126.713 150.236C127.029 150.552 127.446 150.802 127.963 150.986C128.479 151.152 129.046 151.294 129.663 151.411C130.279 151.511 130.896 151.627 131.513 151.761C132.129 151.894 132.696 152.086 133.213 152.336C133.729 152.569 134.138 152.902 134.438 153.336C134.754 153.752 134.913 154.319 134.913 155.036C134.913 155.752 134.713 156.377 134.313 156.911C133.929 157.444 133.354 157.861 132.588 158.161C131.821 158.461 130.879 158.611 129.763 158.611ZM138.401 158.511V145.461H139.651V158.511H138.401ZM139.026 142.286C138.743 142.286 138.501 142.186 138.301 141.986C138.101 141.786 138.001 141.552 138.001 141.286C138.001 141.002 138.101 140.761 138.301 140.561C138.501 140.361 138.743 140.261 139.026 140.261C139.326 140.261 139.568 140.361 139.751 140.561C139.951 140.744 140.051 140.977 140.051 141.261C140.051 141.544 139.951 141.786 139.751 141.986C139.568 142.186 139.326 142.286 139.026 142.286ZM159.565 158.511V155.536L159.515 155.086V150.186C159.515 148.969 159.182 148.044 158.515 147.411C157.865 146.777 156.907 146.461 155.64 146.461C154.74 146.461 153.899 146.619 153.115 146.936C152.349 147.236 151.69 147.627 151.14 148.111L150.515 147.211C151.165 146.627 151.949 146.177 152.865 145.861C153.782 145.527 154.74 145.361 155.74 145.361C157.357 145.361 158.599 145.769 159.465 146.586C160.332 147.402 160.765 148.619 160.765 150.236V158.511H159.565ZM154.865 158.611C153.899 158.611 153.057 158.461 152.34 158.161C151.64 157.844 151.099 157.402 150.715 156.836C150.349 156.269 150.165 155.619 150.165 154.886C150.165 154.219 150.315 153.619 150.615 153.086C150.932 152.536 151.449 152.094 152.165 151.761C152.882 151.411 153.84 151.236 155.04 151.236H159.84V152.211H155.065C153.715 152.211 152.765 152.461 152.215 152.961C151.682 153.461 151.415 154.086 151.415 154.836C151.415 155.669 151.732 156.336 152.365 156.836C152.999 157.336 153.89 157.586 155.04 157.586C156.14 157.586 157.065 157.336 157.815 156.836C158.582 156.336 159.149 155.611 159.515 154.661L159.865 155.511C159.515 156.461 158.915 157.219 158.065 157.786C157.232 158.336 156.165 158.611 154.865 158.611ZM169.716 158.611C168.566 158.611 167.682 158.294 167.066 157.661C166.466 157.027 166.166 156.161 166.166 155.061V142.611H167.416V154.936C167.416 155.769 167.624 156.411 168.041 156.861C168.457 157.311 169.057 157.536 169.841 157.536C170.657 157.536 171.332 157.294 171.866 156.811L172.391 157.686C172.057 158.002 171.649 158.236 171.166 158.386C170.699 158.536 170.216 158.611 169.716 158.611ZM163.766 146.536V145.461H171.566V146.536H163.766ZM184.102 158.511V155.536L184.052 155.086V150.186C184.052 148.969 183.718 148.044 183.052 147.411C182.402 146.777 181.443 146.461 180.177 146.461C179.277 146.461 178.435 146.619 177.652 146.936C176.885 147.236 176.227 147.627 175.677 148.111L175.052 147.211C175.702 146.627 176.485 146.177 177.402 145.861C178.318 145.527 179.277 145.361 180.277 145.361C181.893 145.361 183.135 145.769 184.002 146.586C184.868 147.402 185.302 148.619 185.302 150.236V158.511H184.102ZM179.402 158.611C178.435 158.611 177.593 158.461 176.877 158.161C176.177 157.844 175.635 157.402 175.252 156.836C174.885 156.269 174.702 155.619 174.702 154.886C174.702 154.219 174.852 153.619 175.152 153.086C175.468 152.536 175.985 152.094 176.702 151.761C177.418 151.411 178.377 151.236 179.577 151.236H184.377V152.211H179.602C178.252 152.211 177.302 152.461 176.752 152.961C176.218 153.461 175.952 154.086 175.952 154.836C175.952 155.669 176.268 156.336 176.902 156.836C177.535 157.336 178.427 157.586 179.577 157.586C180.677 157.586 181.602 157.336 182.352 156.836C183.118 156.336 183.685 155.611 184.052 154.661L184.402 155.511C184.052 156.461 183.452 157.219 182.602 157.786C181.768 158.336 180.702 158.611 179.402 158.611ZM195.752 158.611C194.635 158.611 193.668 158.411 192.852 158.011C192.035 157.594 191.402 156.977 190.952 156.161C190.518 155.327 190.302 154.302 190.302 153.086V145.461H191.552V152.986C191.552 154.452 191.927 155.569 192.677 156.336C193.427 157.102 194.485 157.486 195.852 157.486C196.835 157.486 197.685 157.277 198.402 156.861C199.118 156.444 199.668 155.861 200.052 155.111C200.435 154.344 200.627 153.444 200.627 152.411V145.461H201.877V158.511H200.677V154.886L200.852 155.311C200.468 156.327 199.827 157.136 198.927 157.736C198.043 158.319 196.985 158.611 195.752 158.611ZM213.596 158.511V139.961H214.846V158.511H213.596ZM225.415 158.611C224.098 158.611 222.932 158.327 221.915 157.761C220.915 157.194 220.123 156.411 219.54 155.411C218.973 154.411 218.69 153.269 218.69 151.986C218.69 150.686 218.957 149.544 219.49 148.561C220.04 147.561 220.79 146.777 221.74 146.211C222.69 145.644 223.757 145.361 224.94 145.361C226.123 145.361 227.182 145.636 228.115 146.186C229.065 146.736 229.807 147.511 230.34 148.511C230.89 149.494 231.165 150.636 231.165 151.936C231.165 151.986 231.157 152.044 231.14 152.111C231.14 152.161 231.14 152.219 231.14 152.286H219.615V151.311H230.465L229.965 151.786C229.982 150.769 229.765 149.861 229.315 149.061C228.882 148.244 228.29 147.611 227.54 147.161C226.79 146.694 225.923 146.461 224.94 146.461C223.973 146.461 223.107 146.694 222.34 147.161C221.59 147.611 220.998 148.244 220.565 149.061C220.132 149.861 219.915 150.777 219.915 151.811V152.036C219.915 153.102 220.148 154.052 220.615 154.886C221.098 155.702 221.757 156.344 222.59 156.811C223.423 157.261 224.373 157.486 225.44 157.486C226.273 157.486 227.048 157.336 227.765 157.036C228.498 156.736 229.115 156.277 229.615 155.661L230.34 156.486C229.773 157.186 229.057 157.719 228.19 158.086C227.34 158.436 226.415 158.611 225.415 158.611ZM251.282 145.361C252.332 145.361 253.24 145.569 254.007 145.986C254.79 146.386 255.399 147.002 255.832 147.836C256.265 148.652 256.482 149.669 256.482 150.886V158.511H255.232V150.986C255.232 149.519 254.874 148.402 254.157 147.636C253.44 146.869 252.44 146.486 251.157 146.486C250.174 146.486 249.324 146.694 248.607 147.111C247.89 147.527 247.34 148.111 246.957 148.861C246.574 149.611 246.382 150.511 246.382 151.561V158.511H245.132V150.986C245.132 149.519 244.774 148.402 244.057 147.636C243.34 146.869 242.34 146.486 241.057 146.486C240.074 146.486 239.224 146.694 238.507 147.111C237.79 147.527 237.24 148.111 236.857 148.861C236.474 149.611 236.282 150.511 236.282 151.561V158.511H235.032V145.461H236.232V149.061L236.057 148.661C236.44 147.644 237.082 146.844 237.982 146.261C238.882 145.661 239.965 145.361 241.232 145.361C242.532 145.361 243.624 145.694 244.507 146.361C245.407 147.011 245.974 147.986 246.207 149.286L245.782 149.111C246.132 147.994 246.79 147.094 247.757 146.411C248.724 145.711 249.899 145.361 251.282 145.361ZM268.193 158.611C267.043 158.611 266.001 158.344 265.068 157.811C264.151 157.277 263.418 156.511 262.868 155.511C262.335 154.511 262.068 153.336 262.068 151.986C262.068 150.602 262.335 149.419 262.868 148.436C263.418 147.452 264.151 146.694 265.068 146.161C266.001 145.627 267.043 145.361 268.193 145.361C269.426 145.361 270.526 145.644 271.493 146.211C272.476 146.761 273.243 147.536 273.793 148.536C274.36 149.519 274.643 150.669 274.643 151.986C274.643 153.286 274.36 154.436 273.793 155.436C273.243 156.436 272.476 157.219 271.493 157.786C270.526 158.336 269.426 158.611 268.193 158.611ZM261.643 158.511V139.961H262.893V149.686L262.643 151.961L262.843 154.236V158.511H261.643ZM268.118 157.486C269.118 157.486 270.018 157.261 270.818 156.811C271.618 156.344 272.243 155.694 272.693 154.861C273.16 154.027 273.393 153.069 273.393 151.986C273.393 150.886 273.16 149.927 272.693 149.111C272.243 148.277 271.618 147.636 270.818 147.186C270.018 146.719 269.118 146.486 268.118 146.486C267.118 146.486 266.218 146.719 265.418 147.186C264.635 147.636 264.01 148.277 263.543 149.111C263.093 149.927 262.868 150.886 262.868 151.986C262.868 153.069 263.093 154.027 263.543 154.861C264.01 155.694 264.635 156.344 265.418 156.811C266.218 157.261 267.118 157.486 268.118 157.486ZM286.689 158.511V155.536L286.639 155.086V150.186C286.639 148.969 286.306 148.044 285.639 147.411C284.989 146.777 284.031 146.461 282.764 146.461C281.864 146.461 281.023 146.619 280.239 146.936C279.473 147.236 278.814 147.627 278.264 148.111L277.639 147.211C278.289 146.627 279.073 146.177 279.989 145.861C280.906 145.527 281.864 145.361 282.864 145.361C284.481 145.361 285.723 145.769 286.589 146.586C287.456 147.402 287.889 148.619 287.889 150.236V158.511H286.689ZM281.989 158.611C281.023 158.611 280.181 158.461 279.464 158.161C278.764 157.844 278.223 157.402 277.839 156.836C277.473 156.269 277.289 155.619 277.289 154.886C277.289 154.219 277.439 153.619 277.739 153.086C278.056 152.536 278.573 152.094 279.289 151.761C280.006 151.411 280.964 151.236 282.164 151.236H286.964V152.211H282.189C280.839 152.211 279.889 152.461 279.339 152.961C278.806 153.461 278.539 154.086 278.539 154.836C278.539 155.669 278.856 156.336 279.489 156.836C280.123 157.336 281.014 157.586 282.164 157.586C283.264 157.586 284.189 157.336 284.939 156.836C285.706 156.336 286.273 155.611 286.639 154.661L286.989 155.511C286.639 156.461 286.039 157.219 285.189 157.786C284.356 158.336 283.289 158.611 281.989 158.611ZM298.465 163.461C297.281 163.461 296.156 163.277 295.09 162.911C294.023 162.544 293.156 162.036 292.49 161.386L293.165 160.436C293.815 161.036 294.59 161.502 295.49 161.836C296.406 162.169 297.39 162.336 298.44 162.336C300.19 162.336 301.473 161.927 302.29 161.111C303.123 160.294 303.54 159.011 303.54 157.261V153.636L303.79 151.686L303.59 149.736V145.461H304.79V157.111C304.79 159.294 304.256 160.894 303.19 161.911C302.14 162.944 300.565 163.461 298.465 163.461ZM298.115 158.036C296.881 158.036 295.773 157.769 294.79 157.236C293.823 156.686 293.048 155.936 292.465 154.986C291.898 154.019 291.615 152.919 291.615 151.686C291.615 150.436 291.898 149.336 292.465 148.386C293.048 147.436 293.823 146.694 294.79 146.161C295.773 145.627 296.881 145.361 298.115 145.361C299.298 145.361 300.356 145.619 301.29 146.136C302.24 146.636 302.99 147.361 303.54 148.311C304.09 149.244 304.365 150.369 304.365 151.686C304.365 152.986 304.09 154.111 303.54 155.061C302.99 156.011 302.24 156.744 301.29 157.261C300.356 157.777 299.298 158.036 298.115 158.036ZM298.215 156.911C299.265 156.911 300.19 156.694 300.99 156.261C301.79 155.811 302.415 155.194 302.865 154.411C303.331 153.611 303.565 152.702 303.565 151.686C303.565 150.652 303.331 149.744 302.865 148.961C302.415 148.177 301.79 147.569 300.99 147.136C300.19 146.702 299.265 146.486 298.215 146.486C297.198 146.486 296.281 146.702 295.465 147.136C294.665 147.569 294.031 148.177 293.565 148.961C293.115 149.744 292.89 150.652 292.89 151.686C292.89 152.702 293.115 153.611 293.565 154.411C294.031 155.194 294.665 155.811 295.465 156.261C296.281 156.694 297.198 156.911 298.215 156.911ZM318.306 158.511V155.536L318.256 155.086V150.186C318.256 148.969 317.922 148.044 317.256 147.411C316.606 146.777 315.647 146.461 314.381 146.461C313.481 146.461 312.639 146.619 311.856 146.936C311.089 147.236 310.431 147.627 309.881 148.111L309.256 147.211C309.906 146.627 310.689 146.177 311.606 145.861C312.522 145.527 313.481 145.361 314.481 145.361C316.097 145.361 317.339 145.769 318.206 146.586C319.072 147.402 319.506 148.619 319.506 150.236V158.511H318.306ZM313.606 158.611C312.639 158.611 311.797 158.461 311.081 158.161C310.381 157.844 309.839 157.402 309.456 156.836C309.089 156.269 308.906 155.619 308.906 154.886C308.906 154.219 309.056 153.619 309.356 153.086C309.672 152.536 310.189 152.094 310.906 151.761C311.622 151.411 312.581 151.236 313.781 151.236H318.581V152.211H313.806C312.456 152.211 311.506 152.461 310.956 152.961C310.422 153.461 310.156 154.086 310.156 154.836C310.156 155.669 310.472 156.336 311.106 156.836C311.739 157.336 312.631 157.586 313.781 157.586C314.881 157.586 315.806 157.336 316.556 156.836C317.322 156.336 317.889 155.611 318.256 154.661L318.606 155.511C318.256 156.461 317.656 157.219 316.806 157.786C315.972 158.336 314.906 158.611 313.606 158.611ZM331.077 158.511V145.461H332.277V149.036L332.152 148.636C332.518 147.586 333.135 146.777 334.002 146.211C334.868 145.644 335.952 145.361 337.252 145.361V146.586C337.202 146.586 337.152 146.586 337.102 146.586C337.052 146.569 337.002 146.561 336.952 146.561C335.502 146.561 334.368 147.019 333.552 147.936C332.735 148.836 332.327 150.094 332.327 151.711V158.511H331.077ZM340.696 158.511V145.461H341.946V158.511H340.696ZM341.321 142.286C341.038 142.286 340.796 142.186 340.596 141.986C340.396 141.786 340.296 141.552 340.296 141.286C340.296 141.002 340.396 140.761 340.596 140.561C340.796 140.361 341.038 140.261 341.321 140.261C341.621 140.261 341.863 140.361 342.046 140.561C342.246 140.744 342.346 140.977 342.346 141.261C342.346 141.544 342.246 141.786 342.046 141.986C341.863 142.186 341.621 142.286 341.321 142.286ZM350.514 158.611C349.431 158.611 348.414 158.452 347.464 158.136C346.531 157.819 345.806 157.419 345.289 156.936L345.864 155.936C346.364 156.369 347.031 156.744 347.864 157.061C348.698 157.361 349.598 157.511 350.564 157.511C351.931 157.511 352.914 157.286 353.514 156.836C354.114 156.386 354.414 155.794 354.414 155.061C354.414 154.527 354.256 154.111 353.939 153.811C353.639 153.494 353.231 153.252 352.714 153.086C352.198 152.919 351.631 152.786 351.014 152.686C350.398 152.569 349.781 152.444 349.164 152.311C348.548 152.177 347.981 151.986 347.464 151.736C346.948 151.486 346.531 151.144 346.214 150.711C345.914 150.261 345.764 149.669 345.764 148.936C345.764 148.269 345.948 147.669 346.314 147.136C346.681 146.602 347.231 146.177 347.964 145.861C348.698 145.527 349.614 145.361 350.714 145.361C351.531 145.361 352.348 145.477 353.164 145.711C353.998 145.944 354.673 146.252 355.189 146.636L354.614 147.636C354.064 147.219 353.448 146.919 352.764 146.736C352.081 146.552 351.389 146.461 350.689 146.461C349.423 146.461 348.489 146.694 347.889 147.161C347.306 147.627 347.014 148.211 347.014 148.911C347.014 149.461 347.164 149.902 347.464 150.236C347.781 150.552 348.198 150.802 348.714 150.986C349.231 151.152 349.798 151.294 350.414 151.411C351.031 151.511 351.648 151.627 352.264 151.761C352.881 151.894 353.448 152.086 353.964 152.336C354.481 152.569 354.889 152.902 355.189 153.336C355.506 153.752 355.664 154.319 355.664 155.036C355.664 155.752 355.464 156.377 355.064 156.911C354.681 157.444 354.106 157.861 353.339 158.161C352.573 158.461 351.631 158.611 350.514 158.611ZM364.453 158.611C363.136 158.611 361.97 158.327 360.953 157.761C359.953 157.194 359.161 156.411 358.578 155.411C358.011 154.411 357.728 153.269 357.728 151.986C357.728 150.686 357.995 149.544 358.528 148.561C359.078 147.561 359.828 146.777 360.778 146.211C361.728 145.644 362.795 145.361 363.978 145.361C365.161 145.361 366.22 145.636 367.153 146.186C368.103 146.736 368.845 147.511 369.378 148.511C369.928 149.494 370.203 150.636 370.203 151.936C370.203 151.986 370.195 152.044 370.178 152.111C370.178 152.161 370.178 152.219 370.178 152.286H358.653V151.311H369.503L369.003 151.786C369.02 150.769 368.803 149.861 368.353 149.061C367.92 148.244 367.328 147.611 366.578 147.161C365.828 146.694 364.961 146.461 363.978 146.461C363.011 146.461 362.145 146.694 361.378 147.161C360.628 147.611 360.036 148.244 359.603 149.061C359.17 149.861 358.953 150.777 358.953 151.811V152.036C358.953 153.102 359.186 154.052 359.653 154.886C360.136 155.702 360.795 156.344 361.628 156.811C362.461 157.261 363.411 157.486 364.478 157.486C365.311 157.486 366.086 157.336 366.803 157.036C367.536 156.736 368.153 156.277 368.653 155.661L369.378 156.486C368.811 157.186 368.095 157.719 367.228 158.086C366.378 158.436 365.453 158.611 364.453 158.611ZM377.87 158.611C376.72 158.611 375.837 158.294 375.22 157.661C374.62 157.027 374.32 156.161 374.32 155.061V142.611H375.57V154.936C375.57 155.769 375.778 156.411 376.195 156.861C376.612 157.311 377.212 157.536 377.995 157.536C378.812 157.536 379.487 157.294 380.02 156.811L380.545 157.686C380.212 158.002 379.803 158.236 379.32 158.386C378.853 158.536 378.37 158.611 377.87 158.611ZM371.92 146.536V145.461H379.72V146.536H371.92ZM384.125 158.611C383.842 158.611 383.592 158.511 383.375 158.311C383.175 158.094 383.075 157.836 383.075 157.536C383.075 157.236 383.175 156.986 383.375 156.786C383.592 156.586 383.842 156.486 384.125 156.486C384.408 156.486 384.65 156.586 384.85 156.786C385.067 156.986 385.175 157.236 385.175 157.536C385.175 157.836 385.067 158.094 384.85 158.311C384.65 158.511 384.408 158.611 384.125 158.611Z" fill="black"/>
<path d="M638.667 306.995C638.649 314.359 644.605 320.343 651.969 320.36C659.332 320.377 665.316 314.422 665.333 307.058C665.351 299.694 659.395 293.711 652.031 293.693C644.668 293.676 638.684 299.631 638.667 306.995ZM215.994 308.5L651.994 309.527L652.006 304.527L216.006 303.5L215.994 308.5Z" fill="#81C2E0"/>
<path d="M216 219.333C223.364 219.333 229.333 213.364 229.333 206C229.333 198.636 223.364 192.667 216 192.667C208.636 192.667 202.667 198.636 202.667 206C202.667 213.364 208.636 219.333 216 219.333ZM218.5 306V206H213.5V306H218.5Z" fill="#81C2E0"/>
<defs>
<filter id="filter0_d_848_177" x="0" y="0" width="445" height="214" filterUnits="userSpaceOnUse" color-interpolation-filters="sRGB">
<feFlood flood-opacity="0" result="BackgroundImageFix"/>
<feColorMatrix in="SourceAlpha" type="matrix" values="0 0 0 0 0 0 0 0 0 0 0 0 0 0 0 0 0 0 127 0" result="hardAlpha"/>
<feOffset dx="10" dy="4"/>
<feGaussianBlur stdDeviation="2"/>
<feComposite in2="hardAlpha" operator="out"/>
<feColorMatrix type="matrix" values="0 0 0 0 0 0 0 0 0 0 0 0 0 0 0 0 0 0 0.25 0"/>
<feBlend mode="normal" in2="BackgroundImageFix" result="effect1_dropShadow_848_177"/>
<feBlend mode="normal" in="SourceGraphic" in2="effect1_dropShadow_848_177" result="shape"/>
</filter>
</defs>
</svg>
