<svg width="577" height="169" viewBox="0 0 577 169" fill="none" xmlns="http://www.w3.org/2000/svg">
<g filter="url(#filter0_d_848_176)">
<rect width="431" height="161" rx="20" fill="#F2F2F2"/>
</g>
<path d="M143.504 46.5558V25.5558H152.924C155.344 25.5558 157.204 26.0458 158.504 27.0258C159.804 27.9858 160.454 29.3058 160.454 30.9858C160.454 32.1258 160.194 33.0858 159.674 33.8658C159.174 34.6458 158.494 35.2458 157.634 35.6658C156.774 36.0858 155.844 36.2958 154.844 36.2958L155.384 35.3958C156.584 35.3958 157.644 35.6058 158.564 36.0258C159.484 36.4458 160.214 37.0658 160.754 37.8858C161.294 38.6858 161.564 39.6858 161.564 40.8858C161.564 42.6858 160.884 44.0858 159.524 45.0858C158.184 46.0658 156.184 46.5558 153.524 46.5558H143.504ZM146.504 44.1258H153.404C155.064 44.1258 156.334 43.8458 157.214 43.2858C158.094 42.7258 158.534 41.8458 158.534 40.6458C158.534 39.4258 158.094 38.5358 157.214 37.9758C156.334 37.4158 155.064 37.1358 153.404 37.1358H146.234V34.7058H152.654C154.174 34.7058 155.354 34.4258 156.194 33.8658C157.034 33.3058 157.454 32.4658 157.454 31.3458C157.454 30.2258 157.034 29.3858 156.194 28.8258C155.354 28.2658 154.174 27.9858 152.654 27.9858H146.504V44.1258ZM172.479 46.7358C171.119 46.7358 169.919 46.4858 168.879 45.9858C167.859 45.4858 167.059 44.7258 166.479 43.7058C165.919 42.6658 165.639 41.3658 165.639 39.8058V30.6558H168.519V39.4758C168.519 41.0358 168.889 42.2058 169.629 42.9858C170.389 43.7658 171.449 44.1558 172.809 44.1558C173.809 44.1558 174.679 43.9558 175.419 43.5558C176.159 43.1358 176.729 42.5358 177.129 41.7558C177.529 40.9558 177.729 39.9958 177.729 38.8758V30.6558H180.609V46.5558H177.879V42.2658L178.329 43.4058C177.809 44.4658 177.029 45.2858 175.989 45.8658C174.949 46.4458 173.779 46.7358 172.479 46.7358ZM190.651 46.7358C189.331 46.7358 188.071 46.5558 186.871 46.1958C185.691 45.8358 184.761 45.3958 184.081 44.8758L185.281 42.5958C185.961 43.0558 186.801 43.4458 187.801 43.7658C188.801 44.0858 189.821 44.2458 190.861 44.2458C192.201 44.2458 193.161 44.0558 193.741 43.6758C194.341 43.2958 194.641 42.7658 194.641 42.0858C194.641 41.5858 194.461 41.1958 194.101 40.9158C193.741 40.6358 193.261 40.4258 192.661 40.2858C192.081 40.1458 191.431 40.0258 190.711 39.9258C189.991 39.8058 189.271 39.6658 188.551 39.5058C187.831 39.3258 187.171 39.0858 186.571 38.7858C185.971 38.4658 185.491 38.0358 185.131 37.4958C184.771 36.9358 184.591 36.1958 184.591 35.2758C184.591 34.3158 184.861 33.4758 185.401 32.7558C185.941 32.0358 186.701 31.4858 187.681 31.1058C188.681 30.7058 189.861 30.5058 191.221 30.5058C192.261 30.5058 193.311 30.6358 194.371 30.8958C195.451 31.1358 196.331 31.4858 197.011 31.9458L195.781 34.2258C195.061 33.7458 194.311 33.4158 193.531 33.2358C192.751 33.0558 191.971 32.9658 191.191 32.9658C189.931 32.9658 188.991 33.1758 188.371 33.5958C187.751 33.9958 187.441 34.5158 187.441 35.1558C187.441 35.6958 187.621 36.1158 187.981 36.4158C188.361 36.6958 188.841 36.9158 189.421 37.0758C190.021 37.2358 190.681 37.3758 191.401 37.4958C192.121 37.5958 192.841 37.7358 193.561 37.9158C194.281 38.0758 194.931 38.3058 195.511 38.6058C196.111 38.9058 196.591 39.3258 196.951 39.8658C197.331 40.4058 197.521 41.1258 197.521 42.0258C197.521 42.9858 197.241 43.8158 196.681 44.5158C196.121 45.2158 195.331 45.7658 194.311 46.1658C193.291 46.5458 192.071 46.7358 190.651 46.7358ZM205.681 46.7358C204.361 46.7358 203.101 46.5558 201.901 46.1958C200.721 45.8358 199.791 45.3958 199.111 44.8758L200.311 42.5958C200.991 43.0558 201.831 43.4458 202.831 43.7658C203.831 44.0858 204.851 44.2458 205.891 44.2458C207.231 44.2458 208.191 44.0558 208.771 43.6758C209.371 43.2958 209.671 42.7658 209.671 42.0858C209.671 41.5858 209.491 41.1958 209.131 40.9158C208.771 40.6358 208.291 40.4258 207.691 40.2858C207.111 40.1458 206.461 40.0258 205.741 39.9258C205.021 39.8058 204.301 39.6658 203.581 39.5058C202.861 39.3258 202.201 39.0858 201.601 38.7858C201.001 38.4658 200.521 38.0358 200.161 37.4958C199.801 36.9358 199.621 36.1958 199.621 35.2758C199.621 34.3158 199.891 33.4758 200.431 32.7558C200.971 32.0358 201.731 31.4858 202.711 31.1058C203.711 30.7058 204.891 30.5058 206.251 30.5058C207.291 30.5058 208.341 30.6358 209.401 30.8958C210.481 31.1358 211.361 31.4858 212.041 31.9458L210.811 34.2258C210.091 33.7458 209.341 33.4158 208.561 33.2358C207.781 33.0558 207.001 32.9658 206.221 32.9658C204.961 32.9658 204.021 33.1758 203.401 33.5958C202.781 33.9958 202.471 34.5158 202.471 35.1558C202.471 35.6958 202.651 36.1158 203.011 36.4158C203.391 36.6958 203.871 36.9158 204.451 37.0758C205.051 37.2358 205.711 37.3758 206.431 37.4958C207.151 37.5958 207.871 37.7358 208.591 37.9158C209.311 38.0758 209.961 38.3058 210.541 38.6058C211.141 38.9058 211.621 39.3258 211.981 39.8658C212.361 40.4058 212.551 41.1258 212.551 42.0258C212.551 42.9858 212.271 43.8158 211.711 44.5158C211.151 45.2158 210.361 45.7658 209.341 46.1658C208.321 46.5458 207.101 46.7358 205.681 46.7358ZM216.15 46.5558V30.6558H219.03V46.5558H216.15ZM217.59 27.5958C217.03 27.5958 216.56 27.4158 216.18 27.0558C215.82 26.6958 215.64 26.2558 215.64 25.7358C215.64 25.1958 215.82 24.7458 216.18 24.3858C216.56 24.0258 217.03 23.8458 217.59 23.8458C218.15 23.8458 218.61 24.0258 218.97 24.3858C219.35 24.7258 219.54 25.1558 219.54 25.6758C219.54 26.2158 219.36 26.6758 219 27.0558C218.64 27.4158 218.17 27.5958 217.59 27.5958ZM233.019 30.5058C234.319 30.5058 235.459 30.7558 236.439 31.2558C237.439 31.7558 238.219 32.5158 238.779 33.5358C239.339 34.5558 239.619 35.8458 239.619 37.4058V46.5558H236.739V37.7358C236.739 36.1958 236.359 35.0358 235.599 34.2558C234.859 33.4758 233.809 33.0858 232.449 33.0858C231.429 33.0858 230.539 33.2858 229.779 33.6858C229.019 34.0858 228.429 34.6758 228.009 35.4558C227.609 36.2358 227.409 37.2058 227.409 38.3658V46.5558H224.529V30.6558H227.289V34.9458L226.839 33.8058C227.359 32.7658 228.159 31.9558 229.239 31.3758C230.319 30.7958 231.579 30.5058 233.019 30.5058ZM252.029 46.7358C250.329 46.7358 248.829 46.3858 247.529 45.6858C246.249 44.9858 245.249 44.0258 244.529 42.8058C243.829 41.5858 243.479 40.1858 243.479 38.6058C243.479 37.0258 243.819 35.6258 244.499 34.4058C245.199 33.1858 246.149 32.2358 247.349 31.5558C248.569 30.8558 249.939 30.5058 251.459 30.5058C252.999 30.5058 254.359 30.8458 255.539 31.5258C256.719 32.2058 257.639 33.1658 258.299 34.4058C258.979 35.6258 259.319 37.0558 259.319 38.6958C259.319 38.8158 259.309 38.9558 259.289 39.1158C259.289 39.2758 259.279 39.4258 259.259 39.5658H245.729V37.4958H257.759L256.589 38.2158C256.609 37.1958 256.399 36.2858 255.959 35.4858C255.519 34.6858 254.909 34.0658 254.129 33.6258C253.369 33.1658 252.479 32.9358 251.459 32.9358C250.459 32.9358 249.569 33.1658 248.789 33.6258C248.009 34.0658 247.399 34.6958 246.959 35.5158C246.519 36.3158 246.299 37.2358 246.299 38.2758V38.7558C246.299 39.8158 246.539 40.7658 247.019 41.6058C247.519 42.4258 248.209 43.0658 249.089 43.5258C249.969 43.9858 250.979 44.2158 252.119 44.2158C253.059 44.2158 253.909 44.0558 254.669 43.7358C255.449 43.4158 256.129 42.9358 256.709 42.2958L258.299 44.1558C257.579 44.9958 256.679 45.6358 255.599 46.0758C254.539 46.5158 253.349 46.7358 252.029 46.7358ZM267.878 46.7358C266.558 46.7358 265.298 46.5558 264.098 46.1958C262.918 45.8358 261.988 45.3958 261.308 44.8758L262.508 42.5958C263.188 43.0558 264.028 43.4458 265.028 43.7658C266.028 44.0858 267.048 44.2458 268.088 44.2458C269.428 44.2458 270.388 44.0558 270.968 43.6758C271.568 43.2958 271.868 42.7658 271.868 42.0858C271.868 41.5858 271.688 41.1958 271.328 40.9158C270.968 40.6358 270.488 40.4258 269.888 40.2858C269.308 40.1458 268.658 40.0258 267.938 39.9258C267.218 39.8058 266.498 39.6658 265.778 39.5058C265.058 39.3258 264.398 39.0858 263.798 38.7858C263.198 38.4658 262.718 38.0358 262.358 37.4958C261.998 36.9358 261.818 36.1958 261.818 35.2758C261.818 34.3158 262.088 33.4758 262.628 32.7558C263.168 32.0358 263.928 31.4858 264.908 31.1058C265.908 30.7058 267.088 30.5058 268.448 30.5058C269.488 30.5058 270.538 30.6358 271.598 30.8958C272.678 31.1358 273.558 31.4858 274.238 31.9458L273.008 34.2258C272.288 33.7458 271.538 33.4158 270.758 33.2358C269.978 33.0558 269.198 32.9658 268.418 32.9658C267.158 32.9658 266.218 33.1758 265.598 33.5958C264.978 33.9958 264.668 34.5158 264.668 35.1558C264.668 35.6958 264.848 36.1158 265.208 36.4158C265.588 36.6958 266.068 36.9158 266.648 37.0758C267.248 37.2358 267.908 37.3758 268.628 37.4958C269.348 37.5958 270.068 37.7358 270.788 37.9158C271.508 38.0758 272.158 38.3058 272.738 38.6058C273.338 38.9058 273.818 39.3258 274.178 39.8658C274.558 40.4058 274.748 41.1258 274.748 42.0258C274.748 42.9858 274.468 43.8158 273.908 44.5158C273.348 45.2158 272.558 45.7658 271.538 46.1658C270.518 46.5458 269.298 46.7358 267.878 46.7358ZM282.907 46.7358C281.587 46.7358 280.327 46.5558 279.127 46.1958C277.947 45.8358 277.017 45.3958 276.337 44.8758L277.537 42.5958C278.217 43.0558 279.057 43.4458 280.057 43.7658C281.057 44.0858 282.077 44.2458 283.117 44.2458C284.457 44.2458 285.417 44.0558 285.997 43.6758C286.597 43.2958 286.897 42.7658 286.897 42.0858C286.897 41.5858 286.717 41.1958 286.357 40.9158C285.997 40.6358 285.517 40.4258 284.917 40.2858C284.337 40.1458 283.687 40.0258 282.967 39.9258C282.247 39.8058 281.527 39.6658 280.807 39.5058C280.087 39.3258 279.427 39.0858 278.827 38.7858C278.227 38.4658 277.747 38.0358 277.387 37.4958C277.027 36.9358 276.847 36.1958 276.847 35.2758C276.847 34.3158 277.117 33.4758 277.657 32.7558C278.197 32.0358 278.957 31.4858 279.937 31.1058C280.937 30.7058 282.117 30.5058 283.477 30.5058C284.517 30.5058 285.567 30.6358 286.627 30.8958C287.707 31.1358 288.587 31.4858 289.267 31.9458L288.037 34.2258C287.317 33.7458 286.567 33.4158 285.787 33.2358C285.007 33.0558 284.227 32.9658 283.447 32.9658C282.187 32.9658 281.247 33.1758 280.627 33.5958C280.007 33.9958 279.697 34.5158 279.697 35.1558C279.697 35.6958 279.877 36.1158 280.237 36.4158C280.617 36.6958 281.097 36.9158 281.677 37.0758C282.277 37.2358 282.937 37.3758 283.657 37.4958C284.377 37.5958 285.097 37.7358 285.817 37.9158C286.537 38.0758 287.187 38.3058 287.767 38.6058C288.367 38.9058 288.847 39.3258 289.207 39.8658C289.587 40.4058 289.777 41.1258 289.777 42.0258C289.777 42.9858 289.497 43.8158 288.937 44.5158C288.377 45.2158 287.587 45.7658 286.567 46.1658C285.547 46.5458 284.327 46.7358 282.907 46.7358Z" fill="black"/>
<path d="M48.3103 96.7926V79.2926H54.5853C56.0519 79.2926 57.3103 79.5259 58.3603 79.9926C59.4103 80.4592 60.2186 81.1342 60.7853 82.0176C61.3519 82.8842 61.6353 83.9426 61.6353 85.1926C61.6353 86.4092 61.3519 87.4592 60.7853 88.3426C60.2186 89.2259 59.4103 89.9009 58.3603 90.3676C57.3103 90.8342 56.0519 91.0676 54.5853 91.0676H49.0103L49.5853 90.4676V96.7926H48.3103ZM49.5853 90.5426L49.0103 89.9176H54.5853C56.4686 89.9176 57.8936 89.5092 58.8603 88.6926C59.8436 87.8592 60.3353 86.6926 60.3353 85.1926C60.3353 83.6759 59.8436 82.5092 58.8603 81.6926C57.8936 80.8592 56.4686 80.4426 54.5853 80.4426H49.0103L49.5853 79.8176V90.5426ZM70.764 96.8926C69.4473 96.8926 68.2806 96.6092 67.264 96.0426C66.264 95.4759 65.4723 94.6926 64.889 93.6926C64.3223 92.6926 64.039 91.5509 64.039 90.2676C64.039 88.9676 64.3056 87.8259 64.839 86.8426C65.389 85.8426 66.139 85.0592 67.089 84.4926C68.039 83.9259 69.1056 83.6426 70.289 83.6426C71.4723 83.6426 72.5306 83.9176 73.464 84.4676C74.414 85.0176 75.1556 85.7926 75.689 86.7926C76.239 87.7759 76.514 88.9176 76.514 90.2176C76.514 90.2676 76.5056 90.3259 76.489 90.3926C76.489 90.4426 76.489 90.5009 76.489 90.5676H64.964V89.5926H75.814L75.314 90.0676C75.3306 89.0509 75.114 88.1426 74.664 87.3426C74.2306 86.5259 73.639 85.8926 72.889 85.4426C72.139 84.9759 71.2723 84.7426 70.289 84.7426C69.3223 84.7426 68.4556 84.9759 67.689 85.4426C66.939 85.8926 66.3473 86.5259 65.914 87.3426C65.4806 88.1426 65.264 89.0592 65.264 90.0926V90.3176C65.264 91.3842 65.4973 92.3342 65.964 93.1676C66.4473 93.9842 67.1056 94.6259 67.939 95.0926C68.7723 95.5426 69.7223 95.7676 70.789 95.7676C71.6223 95.7676 72.3973 95.6176 73.114 95.3176C73.8473 95.0176 74.464 94.5592 74.964 93.9426L75.689 94.7676C75.1223 95.4676 74.4056 96.0009 73.539 96.3676C72.689 96.7176 71.764 96.8926 70.764 96.8926ZM86.756 83.6426C87.8226 83.6426 88.7476 83.8509 89.531 84.2676C90.331 84.6676 90.9476 85.2842 91.381 86.1176C91.831 86.9342 92.056 87.9509 92.056 89.1676V96.7926H90.806V89.2676C90.806 87.8009 90.431 86.6842 89.681 85.9176C88.9476 85.1509 87.9143 84.7676 86.581 84.7676C85.5643 84.7676 84.681 84.9759 83.931 85.3926C83.181 85.8092 82.606 86.3926 82.206 87.1426C81.8226 87.8926 81.631 88.7926 81.631 89.8426V96.7926H80.381V83.7426H81.581V87.3676L81.406 86.9676C81.806 85.9342 82.4643 85.1259 83.381 84.5426C84.2976 83.9426 85.4226 83.6426 86.756 83.6426ZM102.627 101.743C101.444 101.743 100.319 101.559 99.2522 101.193C98.1856 100.826 97.3189 100.318 96.6522 99.6676L97.3272 98.7176C97.9772 99.3176 98.7522 99.7842 99.6522 100.118C100.569 100.451 101.552 100.618 102.602 100.618C104.352 100.618 105.636 100.209 106.452 99.3926C107.286 98.5759 107.702 97.2926 107.702 95.5426V91.9176L107.952 89.9676L107.752 88.0176V83.7426H108.952V95.3926C108.952 97.5759 108.419 99.1759 107.352 100.193C106.302 101.226 104.727 101.743 102.627 101.743ZM102.277 96.3176C101.044 96.3176 99.9356 96.0509 98.9522 95.5176C97.9856 94.9676 97.2106 94.2176 96.6272 93.2676C96.0606 92.3009 95.7772 91.2009 95.7772 89.9676C95.7772 88.7176 96.0606 87.6176 96.6272 86.6676C97.2106 85.7176 97.9856 84.9759 98.9522 84.4426C99.9356 83.9092 101.044 83.6426 102.277 83.6426C103.461 83.6426 104.519 83.9009 105.452 84.4176C106.402 84.9176 107.152 85.6426 107.702 86.5926C108.252 87.5259 108.527 88.6509 108.527 89.9676C108.527 91.2676 108.252 92.3926 107.702 93.3426C107.152 94.2926 106.402 95.0259 105.452 95.5426C104.519 96.0592 103.461 96.3176 102.277 96.3176ZM102.377 95.1926C103.427 95.1926 104.352 94.9759 105.152 94.5426C105.952 94.0926 106.577 93.4759 107.027 92.6926C107.494 91.8926 107.727 90.9842 107.727 89.9676C107.727 88.9342 107.494 88.0259 107.027 87.2426C106.577 86.4592 105.952 85.8509 105.152 85.4176C104.352 84.9842 103.427 84.7676 102.377 84.7676C101.361 84.7676 100.444 84.9842 99.6272 85.4176C98.8272 85.8509 98.1939 86.4592 97.7272 87.2426C97.2772 88.0259 97.0522 88.9342 97.0522 89.9676C97.0522 90.9842 97.2772 91.8926 97.7272 92.6926C98.1939 93.4759 98.8272 94.0926 99.6272 94.5426C100.444 94.9759 101.361 95.1926 102.377 95.1926ZM119.543 96.8926C118.427 96.8926 117.46 96.6926 116.643 96.2926C115.827 95.8759 115.193 95.2592 114.743 94.4426C114.31 93.6092 114.093 92.5842 114.093 91.3676V83.7426H115.343V91.2676C115.343 92.7342 115.718 93.8509 116.468 94.6176C117.218 95.3842 118.277 95.7676 119.643 95.7676C120.627 95.7676 121.477 95.5592 122.193 95.1426C122.91 94.7259 123.46 94.1426 123.843 93.3926C124.227 92.6259 124.418 91.7259 124.418 90.6926V83.7426H125.668V96.7926H124.468V93.1676L124.643 93.5926C124.26 94.6092 123.618 95.4176 122.718 96.0176C121.835 96.6009 120.777 96.8926 119.543 96.8926ZM134.267 96.8926C133.184 96.8926 132.167 96.7342 131.217 96.4176C130.284 96.1009 129.559 95.7009 129.042 95.2176L129.617 94.2176C130.117 94.6509 130.784 95.0259 131.617 95.3426C132.45 95.6426 133.35 95.7926 134.317 95.7926C135.684 95.7926 136.667 95.5676 137.267 95.1176C137.867 94.6676 138.167 94.0759 138.167 93.3426C138.167 92.8092 138.009 92.3926 137.692 92.0926C137.392 91.7759 136.984 91.5342 136.467 91.3676C135.95 91.2009 135.384 91.0676 134.767 90.9676C134.15 90.8509 133.534 90.7259 132.917 90.5926C132.3 90.4592 131.734 90.2676 131.217 90.0176C130.7 89.7676 130.284 89.4259 129.967 88.9926C129.667 88.5426 129.517 87.9509 129.517 87.2176C129.517 86.5509 129.7 85.9509 130.067 85.4176C130.434 84.8842 130.984 84.4592 131.717 84.1426C132.45 83.8092 133.367 83.6426 134.467 83.6426C135.284 83.6426 136.1 83.7592 136.917 83.9926C137.75 84.2259 138.425 84.5342 138.942 84.9176L138.367 85.9176C137.817 85.5009 137.2 85.2009 136.517 85.0176C135.834 84.8342 135.142 84.7426 134.442 84.7426C133.175 84.7426 132.242 84.9759 131.642 85.4426C131.059 85.9092 130.767 86.4926 130.767 87.1926C130.767 87.7426 130.917 88.1842 131.217 88.5176C131.534 88.8342 131.95 89.0842 132.467 89.2676C132.984 89.4342 133.55 89.5759 134.167 89.6926C134.784 89.7926 135.4 89.9092 136.017 90.0426C136.634 90.1759 137.2 90.3676 137.717 90.6176C138.234 90.8509 138.642 91.1842 138.942 91.6176C139.259 92.0342 139.417 92.6009 139.417 93.3176C139.417 94.0342 139.217 94.6592 138.817 95.1926C138.434 95.7259 137.859 96.1426 137.092 96.4426C136.325 96.7426 135.384 96.8926 134.267 96.8926ZM151.13 96.7926V93.8176L151.08 93.3676V88.4676C151.08 87.2509 150.747 86.3259 150.08 85.6926C149.43 85.0592 148.472 84.7426 147.205 84.7426C146.305 84.7426 145.464 84.9009 144.68 85.2176C143.914 85.5176 143.255 85.9092 142.705 86.3926L142.08 85.4926C142.73 84.9092 143.514 84.4592 144.43 84.1426C145.347 83.8092 146.305 83.6426 147.305 83.6426C148.922 83.6426 150.164 84.0509 151.03 84.8676C151.897 85.6842 152.33 86.9009 152.33 88.5176V96.7926H151.13ZM146.43 96.8926C145.464 96.8926 144.622 96.7426 143.905 96.4426C143.205 96.1259 142.664 95.6842 142.28 95.1176C141.914 94.5509 141.73 93.9009 141.73 93.1676C141.73 92.5009 141.88 91.9009 142.18 91.3676C142.497 90.8176 143.014 90.3759 143.73 90.0426C144.447 89.6926 145.405 89.5176 146.605 89.5176H151.405V90.4926H146.63C145.28 90.4926 144.33 90.7426 143.78 91.2426C143.247 91.7426 142.98 92.3676 142.98 93.1176C142.98 93.9509 143.297 94.6176 143.93 95.1176C144.564 95.6176 145.455 95.8676 146.605 95.8676C147.705 95.8676 148.63 95.6176 149.38 95.1176C150.147 94.6176 150.714 93.8926 151.08 92.9426L151.43 93.7926C151.08 94.7426 150.48 95.5009 149.63 96.0676C148.797 96.6176 147.73 96.8926 146.43 96.8926ZM163.856 83.6426C164.922 83.6426 165.847 83.8509 166.631 84.2676C167.431 84.6676 168.047 85.2842 168.481 86.1176C168.931 86.9342 169.156 87.9509 169.156 89.1676V96.7926H167.906V89.2676C167.906 87.8009 167.531 86.6842 166.781 85.9176C166.047 85.1509 165.014 84.7676 163.681 84.7676C162.664 84.7676 161.781 84.9759 161.031 85.3926C160.281 85.8092 159.706 86.3926 159.306 87.1426C158.922 87.8926 158.731 88.7926 158.731 89.8426V96.7926H157.481V78.2426H158.731V87.3676L158.506 86.9676C158.906 85.9342 159.564 85.1259 160.481 84.5426C161.397 83.9426 162.522 83.6426 163.856 83.6426ZM182.527 96.7926V93.8176L182.477 93.3676V88.4676C182.477 87.2509 182.144 86.3259 181.477 85.6926C180.827 85.0592 179.869 84.7426 178.602 84.7426C177.702 84.7426 176.86 84.9009 176.077 85.2176C175.31 85.5176 174.652 85.9092 174.102 86.3926L173.477 85.4926C174.127 84.9092 174.91 84.4592 175.827 84.1426C176.744 83.8092 177.702 83.6426 178.702 83.6426C180.319 83.6426 181.56 84.0509 182.427 84.8676C183.294 85.6842 183.727 86.9009 183.727 88.5176V96.7926H182.527ZM177.827 96.8926C176.86 96.8926 176.019 96.7426 175.302 96.4426C174.602 96.1259 174.06 95.6842 173.677 95.1176C173.31 94.5509 173.127 93.9009 173.127 93.1676C173.127 92.5009 173.277 91.9009 173.577 91.3676C173.894 90.8176 174.41 90.3759 175.127 90.0426C175.844 89.6926 176.802 89.5176 178.002 89.5176H182.802V90.4926H178.027C176.677 90.4926 175.727 90.7426 175.177 91.2426C174.644 91.7426 174.377 92.3676 174.377 93.1176C174.377 93.9509 174.694 94.6176 175.327 95.1176C175.96 95.6176 176.852 95.8676 178.002 95.8676C179.102 95.8676 180.027 95.6176 180.777 95.1176C181.544 94.6176 182.11 93.8926 182.477 92.9426L182.827 93.7926C182.477 94.7426 181.877 95.5009 181.027 96.0676C180.194 96.6176 179.127 96.8926 177.827 96.8926ZM211.548 83.6426C212.598 83.6426 213.506 83.8509 214.273 84.2676C215.056 84.6676 215.665 85.2842 216.098 86.1176C216.531 86.9342 216.748 87.9509 216.748 89.1676V96.7926H215.498V89.2676C215.498 87.8009 215.14 86.6842 214.423 85.9176C213.706 85.1509 212.706 84.7676 211.423 84.7676C210.44 84.7676 209.59 84.9759 208.873 85.3926C208.156 85.8092 207.606 86.3926 207.223 87.1426C206.84 87.8926 206.648 88.7926 206.648 89.8426V96.7926H205.398V89.2676C205.398 87.8009 205.04 86.6842 204.323 85.9176C203.606 85.1509 202.606 84.7676 201.323 84.7676C200.34 84.7676 199.49 84.9759 198.773 85.3926C198.056 85.8092 197.506 86.3926 197.123 87.1426C196.74 87.8926 196.548 88.7926 196.548 89.8426V96.7926H195.298V83.7426H196.498V87.3426L196.323 86.9426C196.706 85.9259 197.348 85.1259 198.248 84.5426C199.148 83.9426 200.231 83.6426 201.498 83.6426C202.798 83.6426 203.89 83.9759 204.773 84.6426C205.673 85.2926 206.24 86.2676 206.473 87.5676L206.048 87.3926C206.398 86.2759 207.056 85.3759 208.023 84.6926C208.99 83.9926 210.165 83.6426 211.548 83.6426ZM227.209 96.8926C225.893 96.8926 224.726 96.6092 223.709 96.0426C222.709 95.4759 221.918 94.6926 221.334 93.6926C220.768 92.6926 220.484 91.5509 220.484 90.2676C220.484 88.9676 220.751 87.8259 221.284 86.8426C221.834 85.8426 222.584 85.0592 223.534 84.4926C224.484 83.9259 225.551 83.6426 226.734 83.6426C227.918 83.6426 228.976 83.9176 229.909 84.4676C230.859 85.0176 231.601 85.7926 232.134 86.7926C232.684 87.7759 232.959 88.9176 232.959 90.2176C232.959 90.2676 232.951 90.3259 232.934 90.3926C232.934 90.4426 232.934 90.5009 232.934 90.5676H221.409V89.5926H232.259L231.759 90.0676C231.776 89.0509 231.559 88.1426 231.109 87.3426C230.676 86.5259 230.084 85.8926 229.334 85.4426C228.584 84.9759 227.718 84.7426 226.734 84.7426C225.768 84.7426 224.901 84.9759 224.134 85.4426C223.384 85.8926 222.793 86.5259 222.359 87.3426C221.926 88.1426 221.709 89.0592 221.709 90.0926V90.3176C221.709 91.3842 221.943 92.3342 222.409 93.1676C222.893 93.9842 223.551 94.6259 224.384 95.0926C225.218 95.5426 226.168 95.7676 227.234 95.7676C228.068 95.7676 228.843 95.6176 229.559 95.3176C230.293 95.0176 230.909 94.5592 231.409 93.9426L232.134 94.7676C231.568 95.4676 230.851 96.0009 229.984 96.3676C229.134 96.7176 228.209 96.8926 227.209 96.8926ZM239.132 96.7926L234.182 83.7426H235.382L239.982 96.0926H239.457L244.182 83.7426H245.257L249.957 96.0926H249.407L254.082 83.7426H255.232L250.282 96.7926H249.107L244.507 84.9426H244.907L240.282 96.7926H239.132ZM265.974 96.7926V93.8176L265.924 93.3676V88.4676C265.924 87.2509 265.591 86.3259 264.924 85.6926C264.274 85.0592 263.316 84.7426 262.049 84.7426C261.149 84.7426 260.307 84.9009 259.524 85.2176C258.757 85.5176 258.099 85.9092 257.549 86.3926L256.924 85.4926C257.574 84.9092 258.357 84.4592 259.274 84.1426C260.191 83.8092 261.149 83.6426 262.149 83.6426C263.766 83.6426 265.007 84.0509 265.874 84.8676C266.741 85.6842 267.174 86.9009 267.174 88.5176V96.7926H265.974ZM261.274 96.8926C260.307 96.8926 259.466 96.7426 258.749 96.4426C258.049 96.1259 257.507 95.6842 257.124 95.1176C256.757 94.5509 256.574 93.9009 256.574 93.1676C256.574 92.5009 256.724 91.9009 257.024 91.3676C257.341 90.8176 257.857 90.3759 258.574 90.0426C259.291 89.6926 260.249 89.5176 261.449 89.5176H266.249V90.4926H261.474C260.124 90.4926 259.174 90.7426 258.624 91.2426C258.091 91.7426 257.824 92.3676 257.824 93.1176C257.824 93.9509 258.141 94.6176 258.774 95.1176C259.407 95.6176 260.299 95.8676 261.449 95.8676C262.549 95.8676 263.474 95.6176 264.224 95.1176C264.991 94.6176 265.557 93.8926 265.924 92.9426L266.274 93.7926C265.924 94.7426 265.324 95.5009 264.474 96.0676C263.641 96.6176 262.574 96.8926 261.274 96.8926ZM273.274 93.1926L273.299 91.6176L281.924 83.7426H283.524L277.799 89.1176L277.049 89.7426L273.274 93.1926ZM272.324 96.7926V78.2426H273.574V96.7926H272.324ZM282.524 96.7926L276.824 89.6426L277.674 88.7176L284.074 96.7926H282.524ZM287.022 96.7926V83.7426H288.272V96.7926H287.022ZM287.647 80.5676C287.363 80.5676 287.122 80.4676 286.922 80.2676C286.722 80.0676 286.622 79.8342 286.622 79.5676C286.622 79.2842 286.722 79.0426 286.922 78.8426C287.122 78.6426 287.363 78.5426 287.647 78.5426C287.947 78.5426 288.188 78.6426 288.372 78.8426C288.572 79.0259 288.672 79.2592 288.672 79.5426C288.672 79.8259 288.572 80.0676 288.372 80.2676C288.188 80.4676 287.947 80.5676 287.647 80.5676ZM293.54 96.7926V78.2426H294.79V96.7926H293.54ZM300.059 96.7926V83.7426H301.309V96.7926H300.059ZM300.684 80.5676C300.4 80.5676 300.159 80.4676 299.959 80.2676C299.759 80.0676 299.659 79.8342 299.659 79.5676C299.659 79.2842 299.759 79.0426 299.959 78.8426C300.159 78.6426 300.4 78.5426 300.684 78.5426C300.984 78.5426 301.225 78.6426 301.409 78.8426C301.609 79.0259 301.709 79.2592 301.709 79.5426C301.709 79.8259 301.609 80.0676 301.409 80.2676C301.225 80.4676 300.984 80.5676 300.684 80.5676ZM316.298 96.8926C315.215 96.8926 314.198 96.7342 313.248 96.4176C312.315 96.1009 311.59 95.7009 311.073 95.2176L311.648 94.2176C312.148 94.6509 312.815 95.0259 313.648 95.3426C314.481 95.6426 315.381 95.7926 316.348 95.7926C317.715 95.7926 318.698 95.5676 319.298 95.1176C319.898 94.6676 320.198 94.0759 320.198 93.3426C320.198 92.8092 320.04 92.3926 319.723 92.0926C319.423 91.7759 319.015 91.5342 318.498 91.3676C317.981 91.2009 317.415 91.0676 316.798 90.9676C316.181 90.8509 315.565 90.7259 314.948 90.5926C314.331 90.4592 313.765 90.2676 313.248 90.0176C312.731 89.7676 312.315 89.4259 311.998 88.9926C311.698 88.5426 311.548 87.9509 311.548 87.2176C311.548 86.5509 311.731 85.9509 312.098 85.4176C312.465 84.8842 313.015 84.4592 313.748 84.1426C314.481 83.8092 315.398 83.6426 316.498 83.6426C317.315 83.6426 318.131 83.7592 318.948 83.9926C319.781 84.2259 320.456 84.5342 320.973 84.9176L320.398 85.9176C319.848 85.5009 319.231 85.2009 318.548 85.0176C317.865 84.8342 317.173 84.7426 316.473 84.7426C315.206 84.7426 314.273 84.9759 313.673 85.4426C313.09 85.9092 312.798 86.4926 312.798 87.1926C312.798 87.7426 312.948 88.1842 313.248 88.5176C313.565 88.8342 313.981 89.0842 314.498 89.2676C315.015 89.4342 315.581 89.5759 316.198 89.6926C316.815 89.7926 317.431 89.9092 318.048 90.0426C318.665 90.1759 319.231 90.3676 319.748 90.6176C320.265 90.8509 320.673 91.1842 320.973 91.6176C321.29 92.0342 321.448 92.6009 321.448 93.3176C321.448 94.0342 321.248 94.6592 320.848 95.1926C320.465 95.7259 319.89 96.1426 319.123 96.4426C318.356 96.7426 317.415 96.8926 316.298 96.8926ZM330.237 96.8926C328.92 96.8926 327.753 96.6092 326.737 96.0426C325.737 95.4759 324.945 94.6926 324.362 93.6926C323.795 92.6926 323.512 91.5509 323.512 90.2676C323.512 88.9676 323.778 87.8259 324.312 86.8426C324.862 85.8426 325.612 85.0592 326.562 84.4926C327.512 83.9259 328.578 83.6426 329.762 83.6426C330.945 83.6426 332.003 83.9176 332.937 84.4676C333.887 85.0176 334.628 85.7926 335.162 86.7926C335.712 87.7759 335.987 88.9176 335.987 90.2176C335.987 90.2676 335.978 90.3259 335.962 90.3926C335.962 90.4426 335.962 90.5009 335.962 90.5676H324.437V89.5926H335.287L334.787 90.0676C334.803 89.0509 334.587 88.1426 334.137 87.3426C333.703 86.5259 333.112 85.8926 332.362 85.4426C331.612 84.9759 330.745 84.7426 329.762 84.7426C328.795 84.7426 327.928 84.9759 327.162 85.4426C326.412 85.8926 325.82 86.5259 325.387 87.3426C324.953 88.1426 324.737 89.0592 324.737 90.0926V90.3176C324.737 91.3842 324.97 92.3342 325.437 93.1676C325.92 93.9842 326.578 94.6259 327.412 95.0926C328.245 95.5426 329.195 95.7676 330.262 95.7676C331.095 95.7676 331.87 95.6176 332.587 95.3176C333.32 95.0176 333.937 94.5592 334.437 93.9426L335.162 94.7676C334.595 95.4676 333.878 96.0009 333.012 96.3676C332.162 96.7176 331.237 96.8926 330.237 96.8926ZM340.804 93.1926L340.829 91.6176L349.454 83.7426H351.054L345.329 89.1176L344.579 89.7426L340.804 93.1926ZM339.854 96.7926V78.2426H341.104V96.7926H339.854ZM350.054 96.7926L344.354 89.6426L345.204 88.7176L351.604 96.7926H350.054ZM358.351 96.8926C357.201 96.8926 356.318 96.5759 355.701 95.9426C355.101 95.3092 354.801 94.4426 354.801 93.3426V80.8926H356.051V93.2176C356.051 94.0509 356.259 94.6926 356.676 95.1426C357.093 95.5926 357.693 95.8176 358.476 95.8176C359.293 95.8176 359.968 95.5759 360.501 95.0926L361.026 95.9676C360.693 96.2842 360.284 96.5176 359.801 96.6676C359.334 96.8176 358.851 96.8926 358.351 96.8926ZM352.401 84.8176V83.7426H360.201V84.8176H352.401ZM369.148 96.8926C367.898 96.8926 366.781 96.6092 365.798 96.0426C364.831 95.4759 364.056 94.6926 363.473 93.6926C362.906 92.6926 362.623 91.5509 362.623 90.2676C362.623 88.9676 362.906 87.8259 363.473 86.8426C364.056 85.8426 364.831 85.0592 365.798 84.4926C366.781 83.9259 367.898 83.6426 369.148 83.6426C370.398 83.6426 371.515 83.9259 372.498 84.4926C373.481 85.0592 374.256 85.8426 374.823 86.8426C375.39 87.8259 375.673 88.9676 375.673 90.2676C375.673 91.5509 375.39 92.6926 374.823 93.6926C374.256 94.6926 373.481 95.4759 372.498 96.0426C371.515 96.6092 370.398 96.8926 369.148 96.8926ZM369.148 95.7676C370.148 95.7676 371.048 95.5426 371.848 95.0926C372.648 94.6259 373.273 93.9759 373.723 93.1426C374.173 92.3092 374.398 91.3509 374.398 90.2676C374.398 89.1676 374.173 88.2092 373.723 87.3926C373.273 86.5592 372.648 85.9176 371.848 85.4676C371.048 85.0009 370.148 84.7676 369.148 84.7676C368.148 84.7676 367.248 85.0009 366.448 85.4676C365.665 85.9176 365.04 86.5592 364.573 87.3926C364.123 88.2092 363.898 89.1676 363.898 90.2676C363.898 91.3509 364.123 92.3092 364.573 93.1426C365.04 93.9759 365.665 94.6259 366.448 95.0926C367.248 95.5426 368.148 95.7676 369.148 95.7676ZM379.551 96.7926V83.7426H380.751V87.3176L380.626 86.9176C380.993 85.8676 381.609 85.0592 382.476 84.4926C383.343 83.9259 384.426 83.6426 385.726 83.6426V84.8676C385.676 84.8676 385.626 84.8676 385.576 84.8676C385.526 84.8509 385.476 84.8426 385.426 84.8426C383.976 84.8426 382.843 85.3009 382.026 86.2176C381.209 87.1176 380.801 88.3759 380.801 89.9926V96.7926H379.551ZM72.5656 126.793V109.293H79.8656C81.749 109.293 83.224 109.676 84.2906 110.443C85.3573 111.209 85.8906 112.318 85.8906 113.768C85.8906 114.718 85.6656 115.518 85.2156 116.168C84.7656 116.818 84.1406 117.309 83.3406 117.643C82.5573 117.959 81.674 118.118 80.6906 118.118L81.1406 117.618C82.3406 117.618 83.3656 117.793 84.2156 118.143C85.0656 118.493 85.7073 119.001 86.1406 119.668C86.5906 120.334 86.8156 121.168 86.8156 122.168C86.8156 123.634 86.2823 124.776 85.2156 125.593C84.149 126.393 82.5323 126.793 80.3656 126.793H72.5656ZM73.8406 125.693H80.3656C82.049 125.693 83.3323 125.409 84.2156 124.843C85.099 124.259 85.5406 123.334 85.5406 122.068C85.5406 120.818 85.099 119.909 84.2156 119.343C83.3323 118.759 82.049 118.468 80.3656 118.468H73.6906V117.368H79.8156C81.3323 117.368 82.5073 117.076 83.3406 116.493C84.174 115.909 84.5906 115.034 84.5906 113.868C84.5906 112.718 84.174 111.851 83.3406 111.268C82.5073 110.684 81.3323 110.393 79.8156 110.393H73.8406V125.693ZM98.2145 126.918C96.0478 126.918 94.3395 126.284 93.0895 125.018C91.8395 123.751 91.2145 121.868 91.2145 119.368V109.293H92.4895V119.318C92.4895 121.501 92.9895 123.118 93.9895 124.168C94.9895 125.218 96.4061 125.743 98.2395 125.743C100.056 125.743 101.464 125.218 102.464 124.168C103.464 123.118 103.964 121.501 103.964 119.318V109.293H105.239V119.368C105.239 121.868 104.614 123.751 103.364 125.018C102.114 126.284 100.398 126.918 98.2145 126.918ZM111.189 126.793V109.293H112.264L120.389 123.318H119.814L127.914 109.293H128.964L128.989 126.793H127.739L127.714 111.218H128.064L120.389 124.468H119.764L112.064 111.218H112.439V126.793H111.189ZM135.09 126.793V109.293H136.165L148.64 125.218H148.065V109.293H149.34V126.793H148.29L135.79 110.868H136.365V126.793H135.09ZM177.722 113.643C178.772 113.643 179.681 113.851 180.447 114.268C181.231 114.668 181.839 115.284 182.272 116.118C182.706 116.934 182.922 117.951 182.922 119.168V126.793H181.672V119.268C181.672 117.801 181.314 116.684 180.597 115.918C179.881 115.151 178.881 114.768 177.597 114.768C176.614 114.768 175.764 114.976 175.047 115.393C174.331 115.809 173.781 116.393 173.397 117.143C173.014 117.893 172.822 118.793 172.822 119.843V126.793H171.572V119.268C171.572 117.801 171.214 116.684 170.497 115.918C169.781 115.151 168.781 114.768 167.497 114.768C166.514 114.768 165.664 114.976 164.947 115.393C164.231 115.809 163.681 116.393 163.297 117.143C162.914 117.893 162.722 118.793 162.722 119.843V126.793H161.472V113.743H162.672V117.343L162.497 116.943C162.881 115.926 163.522 115.126 164.422 114.543C165.322 113.943 166.406 113.643 167.672 113.643C168.972 113.643 170.064 113.976 170.947 114.643C171.847 115.293 172.414 116.268 172.647 117.568L172.222 117.393C172.572 116.276 173.231 115.376 174.197 114.693C175.164 113.993 176.339 113.643 177.722 113.643ZM196.309 126.793V123.818L196.259 123.368V118.468C196.259 117.251 195.925 116.326 195.259 115.693C194.609 115.059 193.65 114.743 192.384 114.743C191.484 114.743 190.642 114.901 189.859 115.218C189.092 115.518 188.434 115.909 187.884 116.393L187.259 115.493C187.909 114.909 188.692 114.459 189.609 114.143C190.525 113.809 191.484 113.643 192.484 113.643C194.1 113.643 195.342 114.051 196.209 114.868C197.075 115.684 197.509 116.901 197.509 118.518V126.793H196.309ZM191.609 126.893C190.642 126.893 189.8 126.743 189.084 126.443C188.384 126.126 187.842 125.684 187.459 125.118C187.092 124.551 186.909 123.901 186.909 123.168C186.909 122.501 187.059 121.901 187.359 121.368C187.675 120.818 188.192 120.376 188.909 120.043C189.625 119.693 190.584 119.518 191.784 119.518H196.584V120.493H191.809C190.459 120.493 189.509 120.743 188.959 121.243C188.425 121.743 188.159 122.368 188.159 123.118C188.159 123.951 188.475 124.618 189.109 125.118C189.742 125.618 190.634 125.868 191.784 125.868C192.884 125.868 193.809 125.618 194.559 125.118C195.325 124.618 195.892 123.893 196.259 122.943L196.609 123.793C196.259 124.743 195.659 125.501 194.809 126.068C193.975 126.618 192.909 126.893 191.609 126.893ZM207.959 126.893C206.842 126.893 205.875 126.693 205.059 126.293C204.242 125.876 203.609 125.259 203.159 124.443C202.725 123.609 202.509 122.584 202.509 121.368V113.743H203.759V121.268C203.759 122.734 204.134 123.851 204.884 124.618C205.634 125.384 206.692 125.768 208.059 125.768C209.042 125.768 209.892 125.559 210.609 125.143C211.325 124.726 211.875 124.143 212.259 123.393C212.642 122.626 212.834 121.726 212.834 120.693V113.743H214.084V126.793H212.884V123.168L213.059 123.593C212.675 124.609 212.034 125.418 211.134 126.018C210.25 126.601 209.192 126.893 207.959 126.893ZM225.932 126.893C224.782 126.893 223.741 126.626 222.807 126.093C221.891 125.559 221.157 124.801 220.607 123.818C220.074 122.818 219.807 121.634 219.807 120.268C219.807 118.901 220.074 117.726 220.607 116.743C221.157 115.743 221.891 114.976 222.807 114.443C223.741 113.909 224.782 113.643 225.932 113.643C227.166 113.643 228.266 113.926 229.232 114.493C230.216 115.043 230.982 115.818 231.532 116.818C232.099 117.818 232.382 118.968 232.382 120.268C232.382 121.568 232.099 122.718 231.532 123.718C230.982 124.718 230.216 125.501 229.232 126.068C228.266 126.618 227.166 126.893 225.932 126.893ZM219.382 131.643V113.743H220.582V118.018L220.382 120.293L220.632 122.568V131.643H219.382ZM225.857 125.768C226.857 125.768 227.757 125.543 228.557 125.093C229.357 124.626 229.982 123.976 230.432 123.143C230.899 122.309 231.132 121.351 231.132 120.268C231.132 119.168 230.899 118.209 230.432 117.393C229.982 116.559 229.357 115.918 228.557 115.468C227.757 115.001 226.857 114.768 225.857 114.768C224.857 114.768 223.957 115.001 223.157 115.468C222.374 115.918 221.749 116.559 221.282 117.393C220.832 118.209 220.607 119.168 220.607 120.268C220.607 121.351 220.832 122.309 221.282 123.143C221.749 123.976 222.374 124.626 223.157 125.093C223.957 125.543 224.857 125.768 225.857 125.768ZM241.553 126.893C240.436 126.893 239.469 126.693 238.653 126.293C237.836 125.876 237.203 125.259 236.753 124.443C236.319 123.609 236.103 122.584 236.103 121.368V113.743H237.353V121.268C237.353 122.734 237.728 123.851 238.478 124.618C239.228 125.384 240.286 125.768 241.653 125.768C242.636 125.768 243.486 125.559 244.203 125.143C244.919 124.726 245.469 124.143 245.853 123.393C246.236 122.626 246.428 121.726 246.428 120.693V113.743H247.678V126.793H246.478V123.168L246.653 123.593C246.269 124.609 245.628 125.418 244.728 126.018C243.844 126.601 242.786 126.893 241.553 126.893ZM259.351 113.643C260.418 113.643 261.343 113.851 262.126 114.268C262.926 114.668 263.543 115.284 263.976 116.118C264.426 116.934 264.651 117.951 264.651 119.168V126.793H263.401V119.268C263.401 117.801 263.026 116.684 262.276 115.918C261.543 115.151 260.51 114.768 259.176 114.768C258.16 114.768 257.276 114.976 256.526 115.393C255.776 115.809 255.201 116.393 254.801 117.143C254.418 117.893 254.226 118.793 254.226 119.843V126.793H252.976V113.743H254.176V117.368L254.001 116.968C254.401 115.934 255.06 115.126 255.976 114.543C256.893 113.943 258.018 113.643 259.351 113.643ZM279.518 126.893C278.435 126.893 277.418 126.734 276.468 126.418C275.535 126.101 274.81 125.701 274.293 125.218L274.868 124.218C275.368 124.651 276.035 125.026 276.868 125.343C277.702 125.643 278.602 125.793 279.568 125.793C280.935 125.793 281.918 125.568 282.518 125.118C283.118 124.668 283.418 124.076 283.418 123.343C283.418 122.809 283.26 122.393 282.943 122.093C282.643 121.776 282.235 121.534 281.718 121.368C281.202 121.201 280.635 121.068 280.018 120.968C279.402 120.851 278.785 120.726 278.168 120.593C277.552 120.459 276.985 120.268 276.468 120.018C275.952 119.768 275.535 119.426 275.218 118.993C274.918 118.543 274.768 117.951 274.768 117.218C274.768 116.551 274.952 115.951 275.318 115.418C275.685 114.884 276.235 114.459 276.968 114.143C277.702 113.809 278.618 113.643 279.718 113.643C280.535 113.643 281.352 113.759 282.168 113.993C283.002 114.226 283.677 114.534 284.193 114.918L283.618 115.918C283.068 115.501 282.452 115.201 281.768 115.018C281.085 114.834 280.393 114.743 279.693 114.743C278.427 114.743 277.493 114.976 276.893 115.443C276.31 115.909 276.018 116.493 276.018 117.193C276.018 117.743 276.168 118.184 276.468 118.518C276.785 118.834 277.202 119.084 277.718 119.268C278.235 119.434 278.802 119.576 279.418 119.693C280.035 119.793 280.652 119.909 281.268 120.043C281.885 120.176 282.452 120.368 282.968 120.618C283.485 120.851 283.893 121.184 284.193 121.618C284.51 122.034 284.668 122.601 284.668 123.318C284.668 124.034 284.468 124.659 284.068 125.193C283.685 125.726 283.11 126.143 282.343 126.443C281.577 126.743 280.635 126.893 279.518 126.893ZM290.463 126.793L285.513 113.743H286.713L291.313 126.093H290.788L295.513 113.743H296.588L301.288 126.093H300.738L305.413 113.743H306.563L301.613 126.793H300.438L295.838 114.943H296.238L291.613 126.793H290.463ZM317.305 126.793V123.818L317.255 123.368V118.468C317.255 117.251 316.921 116.326 316.255 115.693C315.605 115.059 314.646 114.743 313.38 114.743C312.48 114.743 311.638 114.901 310.855 115.218C310.088 115.518 309.43 115.909 308.88 116.393L308.255 115.493C308.905 114.909 309.688 114.459 310.605 114.143C311.521 113.809 312.48 113.643 313.48 113.643C315.096 113.643 316.338 114.051 317.205 114.868C318.071 115.684 318.505 116.901 318.505 118.518V126.793H317.305ZM312.605 126.893C311.638 126.893 310.796 126.743 310.08 126.443C309.38 126.126 308.838 125.684 308.455 125.118C308.088 124.551 307.905 123.901 307.905 123.168C307.905 122.501 308.055 121.901 308.355 121.368C308.671 120.818 309.188 120.376 309.905 120.043C310.621 119.693 311.58 119.518 312.78 119.518H317.58V120.493H312.805C311.455 120.493 310.505 120.743 309.955 121.243C309.421 121.743 309.155 122.368 309.155 123.118C309.155 123.951 309.471 124.618 310.105 125.118C310.738 125.618 311.63 125.868 312.78 125.868C313.88 125.868 314.805 125.618 315.555 125.118C316.321 124.618 316.888 123.893 317.255 122.943L317.605 123.793C317.255 124.743 316.655 125.501 315.805 126.068C314.971 126.618 313.905 126.893 312.605 126.893ZM326.955 126.893C325.872 126.893 324.855 126.734 323.905 126.418C322.972 126.101 322.247 125.701 321.73 125.218L322.305 124.218C322.805 124.651 323.472 125.026 324.305 125.343C325.138 125.643 326.038 125.793 327.005 125.793C328.372 125.793 329.355 125.568 329.955 125.118C330.555 124.668 330.855 124.076 330.855 123.343C330.855 122.809 330.697 122.393 330.38 122.093C330.08 121.776 329.672 121.534 329.155 121.368C328.638 121.201 328.072 121.068 327.455 120.968C326.838 120.851 326.222 120.726 325.605 120.593C324.988 120.459 324.422 120.268 323.905 120.018C323.388 119.768 322.972 119.426 322.655 118.993C322.355 118.543 322.205 117.951 322.205 117.218C322.205 116.551 322.388 115.951 322.755 115.418C323.122 114.884 323.672 114.459 324.405 114.143C325.138 113.809 326.055 113.643 327.155 113.643C327.972 113.643 328.788 113.759 329.605 113.993C330.438 114.226 331.113 114.534 331.63 114.918L331.055 115.918C330.505 115.501 329.888 115.201 329.205 115.018C328.522 114.834 327.83 114.743 327.13 114.743C325.863 114.743 324.93 114.976 324.33 115.443C323.747 115.909 323.455 116.493 323.455 117.193C323.455 117.743 323.605 118.184 323.905 118.518C324.222 118.834 324.638 119.084 325.155 119.268C325.672 119.434 326.238 119.576 326.855 119.693C327.472 119.793 328.088 119.909 328.705 120.043C329.322 120.176 329.888 120.368 330.405 120.618C330.922 120.851 331.33 121.184 331.63 121.618C331.947 122.034 332.105 122.601 332.105 123.318C332.105 124.034 331.905 124.659 331.505 125.193C331.122 125.726 330.547 126.143 329.78 126.443C329.013 126.743 328.072 126.893 326.955 126.893ZM339.393 126.893C338.243 126.893 337.36 126.576 336.743 125.943C336.143 125.309 335.843 124.443 335.843 123.343V110.893H337.093V123.218C337.093 124.051 337.302 124.693 337.718 125.143C338.135 125.593 338.735 125.818 339.518 125.818C340.335 125.818 341.01 125.576 341.543 125.093L342.068 125.968C341.735 126.284 341.327 126.518 340.843 126.668C340.377 126.818 339.893 126.893 339.393 126.893ZM333.443 114.818V113.743H341.243V114.818H333.443ZM353.779 126.793V123.818L353.729 123.368V118.468C353.729 117.251 353.396 116.326 352.729 115.693C352.079 115.059 351.121 114.743 349.854 114.743C348.954 114.743 348.113 114.901 347.329 115.218C346.563 115.518 345.904 115.909 345.354 116.393L344.729 115.493C345.379 114.909 346.163 114.459 347.079 114.143C347.996 113.809 348.954 113.643 349.954 113.643C351.571 113.643 352.813 114.051 353.679 114.868C354.546 115.684 354.979 116.901 354.979 118.518V126.793H353.779ZM349.079 126.893C348.113 126.893 347.271 126.743 346.554 126.443C345.854 126.126 345.313 125.684 344.929 125.118C344.563 124.551 344.379 123.901 344.379 123.168C344.379 122.501 344.529 121.901 344.829 121.368C345.146 120.818 345.663 120.376 346.379 120.043C347.096 119.693 348.054 119.518 349.254 119.518H354.054V120.493H349.279C347.929 120.493 346.979 120.743 346.429 121.243C345.896 121.743 345.629 122.368 345.629 123.118C345.629 123.951 345.946 124.618 346.579 125.118C347.213 125.618 348.104 125.868 349.254 125.868C350.354 125.868 351.279 125.618 352.029 125.118C352.796 124.618 353.363 123.893 353.729 122.943L354.079 123.793C353.729 124.743 353.129 125.501 352.279 126.068C351.446 126.618 350.379 126.893 349.079 126.893ZM359.979 126.893C359.696 126.893 359.446 126.793 359.229 126.593C359.029 126.376 358.929 126.118 358.929 125.818C358.929 125.518 359.029 125.268 359.229 125.068C359.446 124.868 359.696 124.768 359.979 124.768C360.263 124.768 360.504 124.868 360.704 125.068C360.921 125.268 361.029 125.518 361.029 125.818C361.029 126.118 360.921 126.376 360.704 126.593C360.504 126.793 360.263 126.893 359.979 126.893Z" fill="black"/>
<path d="M417.667 86C417.667 93.3638 423.636 99.3333 431 99.3333C438.364 99.3333 444.333 93.3638 444.333 86C444.333 78.6362 438.364 72.6667 431 72.6667C423.636 72.6667 417.667 78.6362 417.667 86ZM549.667 86C549.667 93.3638 555.636 99.3333 563 99.3333C570.364 99.3333 576.333 93.3638 576.333 86C576.333 78.6362 570.364 72.6667 563 72.6667C555.636 72.6667 549.667 78.6362 549.667 86ZM431 88.5L563 88.5L563 83.5L431 83.5L431 88.5Z" fill="#81C2E0"/>
<defs>
<filter id="filter0_d_848_176" x="0" y="0" width="445" height="169" filterUnits="userSpaceOnUse" color-interpolation-filters="sRGB">
<feFlood flood-opacity="0" result="BackgroundImageFix"/>
<feColorMatrix in="SourceAlpha" type="matrix" values="0 0 0 0 0 0 0 0 0 0 0 0 0 0 0 0 0 0 127 0" result="hardAlpha"/>
<feOffset dx="10" dy="4"/>
<feGaussianBlur stdDeviation="2"/>
<feComposite in2="hardAlpha" operator="out"/>
<feColorMatrix type="matrix" values="0 0 0 0 0 0 0 0 0 0 0 0 0 0 0 0 0 0 0.25 0"/>
<feBlend mode="normal" in2="BackgroundImageFix" result="effect1_dropShadow_848_176"/>
<feBlend mode="normal" in="SourceGraphic" in2="effect1_dropShadow_848_176" result="shape"/>
</filter>
</defs>
</svg>
