<svg width="617" height="215" viewBox="0 0 617 215" fill="none" xmlns="http://www.w3.org/2000/svg">
<g filter="url(#filter0_d_848_179)">
<rect x="172" width="431" height="207" rx="20" fill="#F2F2F2"/>
</g>
<path d="M309.322 51.8118C307.722 51.8118 306.242 51.5518 304.882 51.0318C303.542 50.4918 302.372 49.7418 301.372 48.7818C300.392 47.8018 299.622 46.6618 299.062 45.3618C298.502 44.0618 298.222 42.6318 298.222 41.0718C298.222 39.5118 298.502 38.0818 299.062 36.7818C299.622 35.4818 300.402 34.3518 301.402 33.3918C302.402 32.4118 303.572 31.6618 304.912 31.1418C306.272 30.6018 307.752 30.3318 309.352 30.3318C310.972 30.3318 312.462 30.6118 313.822 31.1718C315.202 31.7118 316.372 32.5218 317.332 33.6018L315.382 35.4918C314.582 34.6518 313.682 34.0318 312.682 33.6318C311.682 33.2118 310.612 33.0018 309.472 33.0018C308.292 33.0018 307.192 33.2018 306.172 33.6018C305.172 34.0018 304.302 34.5618 303.562 35.2818C302.822 36.0018 302.242 36.8618 301.822 37.8618C301.422 38.8418 301.222 39.9118 301.222 41.0718C301.222 42.2318 301.422 43.3118 301.822 44.3118C302.242 45.2918 302.822 46.1418 303.562 46.8618C304.302 47.5818 305.172 48.1418 306.172 48.5418C307.192 48.9418 308.292 49.1418 309.472 49.1418C310.612 49.1418 311.682 48.9418 312.682 48.5418C313.682 48.1218 314.582 47.4818 315.382 46.6218L317.332 48.5118C316.372 49.5918 315.202 50.4118 313.822 50.9718C312.462 51.5318 310.962 51.8118 309.322 51.8118ZM327.328 51.7518C325.728 51.7518 324.308 51.4018 323.068 50.7018C321.828 50.0018 320.848 49.0418 320.128 47.8218C319.408 46.5818 319.048 45.1818 319.048 43.6218C319.048 42.0418 319.408 40.6418 320.128 39.4218C320.848 38.2018 321.828 37.2518 323.068 36.5718C324.308 35.8718 325.728 35.5218 327.328 35.5218C328.908 35.5218 330.318 35.8718 331.558 36.5718C332.818 37.2518 333.798 38.2018 334.498 39.4218C335.218 40.6218 335.578 42.0218 335.578 43.6218C335.578 45.2018 335.218 46.6018 334.498 47.8218C333.798 49.0418 332.818 50.0018 331.558 50.7018C330.318 51.4018 328.908 51.7518 327.328 51.7518ZM327.328 49.2318C328.348 49.2318 329.258 49.0018 330.058 48.5418C330.878 48.0818 331.518 47.4318 331.978 46.5918C332.438 45.7318 332.668 44.7418 332.668 43.6218C332.668 42.4818 332.438 41.5018 331.978 40.6818C331.518 39.8418 330.878 39.1918 330.058 38.7318C329.258 38.2718 328.348 38.0418 327.328 38.0418C326.308 38.0418 325.398 38.2718 324.598 38.7318C323.798 39.1918 323.158 39.8418 322.678 40.6818C322.198 41.5018 321.958 42.4818 321.958 43.6218C321.958 44.7418 322.198 45.7318 322.678 46.5918C323.158 47.4318 323.798 48.0818 324.598 48.5418C325.398 49.0018 326.308 49.2318 327.328 49.2318ZM359.451 35.5218C360.731 35.5218 361.861 35.7718 362.841 36.2718C363.821 36.7718 364.581 37.5318 365.121 38.5518C365.681 39.5718 365.961 40.8618 365.961 42.4218V51.5718H363.081V42.7518C363.081 41.2118 362.721 40.0518 362.001 39.2718C361.281 38.4918 360.271 38.1018 358.971 38.1018C358.011 38.1018 357.171 38.3018 356.451 38.7018C355.731 39.1018 355.171 39.6918 354.771 40.4718C354.391 41.2518 354.201 42.2218 354.201 43.3818V51.5718H351.321V42.7518C351.321 41.2118 350.961 40.0518 350.241 39.2718C349.541 38.4918 348.531 38.1018 347.211 38.1018C346.271 38.1018 345.441 38.3018 344.721 38.7018C344.001 39.1018 343.441 39.6918 343.041 40.4718C342.641 41.2518 342.441 42.2218 342.441 43.3818V51.5718H339.561V35.6718H342.321V39.9018L341.871 38.8218C342.371 37.7818 343.141 36.9718 344.181 36.3918C345.221 35.8118 346.431 35.5218 347.811 35.5218C349.331 35.5218 350.641 35.9018 351.741 36.6618C352.841 37.4018 353.561 38.5318 353.901 40.0518L352.731 39.5718C353.211 38.3518 354.051 37.3718 355.251 36.6318C356.451 35.8918 357.851 35.5218 359.451 35.5218ZM391.15 35.5218C392.43 35.5218 393.56 35.7718 394.54 36.2718C395.52 36.7718 396.28 37.5318 396.82 38.5518C397.38 39.5718 397.66 40.8618 397.66 42.4218V51.5718H394.78V42.7518C394.78 41.2118 394.42 40.0518 393.7 39.2718C392.98 38.4918 391.97 38.1018 390.67 38.1018C389.71 38.1018 388.87 38.3018 388.15 38.7018C387.43 39.1018 386.87 39.6918 386.47 40.4718C386.09 41.2518 385.9 42.2218 385.9 43.3818V51.5718H383.02V42.7518C383.02 41.2118 382.66 40.0518 381.94 39.2718C381.24 38.4918 380.23 38.1018 378.91 38.1018C377.97 38.1018 377.14 38.3018 376.42 38.7018C375.7 39.1018 375.14 39.6918 374.74 40.4718C374.34 41.2518 374.14 42.2218 374.14 43.3818V51.5718H371.26V35.6718H374.02V39.9018L373.57 38.8218C374.07 37.7818 374.84 36.9718 375.88 36.3918C376.92 35.8118 378.13 35.5218 379.51 35.5218C381.03 35.5218 382.34 35.9018 383.44 36.6618C384.54 37.4018 385.26 38.5318 385.6 40.0518L384.43 39.5718C384.91 38.3518 385.75 37.3718 386.95 36.6318C388.15 35.8918 389.55 35.5218 391.15 35.5218ZM409.649 51.7518C408.289 51.7518 407.089 51.5018 406.049 51.0018C405.029 50.5018 404.229 49.7418 403.649 48.7218C403.089 47.6818 402.809 46.3818 402.809 44.8218V35.6718H405.689V44.4918C405.689 46.0518 406.059 47.2218 406.799 48.0018C407.559 48.7818 408.619 49.1718 409.979 49.1718C410.979 49.1718 411.849 48.9718 412.589 48.5718C413.329 48.1518 413.899 47.5518 414.299 46.7718C414.699 45.9718 414.899 45.0118 414.899 43.8918V35.6718H417.779V51.5718H415.049V47.2818L415.499 48.4218C414.979 49.4818 414.199 50.3018 413.159 50.8818C412.119 51.4618 410.949 51.7518 409.649 51.7518ZM431.752 35.5218C433.052 35.5218 434.192 35.7718 435.172 36.2718C436.172 36.7718 436.952 37.5318 437.512 38.5518C438.072 39.5718 438.352 40.8618 438.352 42.4218V51.5718H435.472V42.7518C435.472 41.2118 435.092 40.0518 434.332 39.2718C433.592 38.4918 432.542 38.1018 431.182 38.1018C430.162 38.1018 429.272 38.3018 428.512 38.7018C427.752 39.1018 427.162 39.6918 426.742 40.4718C426.342 41.2518 426.142 42.2218 426.142 43.3818V51.5718H423.262V35.6718H426.022V39.9618L425.572 38.8218C426.092 37.7818 426.892 36.9718 427.972 36.3918C429.052 35.8118 430.312 35.5218 431.752 35.5218ZM443.682 51.5718V35.6718H446.562V51.5718H443.682ZM445.122 32.6118C444.562 32.6118 444.092 32.4318 443.712 32.0718C443.352 31.7118 443.172 31.2718 443.172 30.7518C443.172 30.2118 443.352 29.7618 443.712 29.4018C444.092 29.0418 444.562 28.8618 445.122 28.8618C445.682 28.8618 446.142 29.0418 446.502 29.4018C446.882 29.7418 447.072 30.1718 447.072 30.6918C447.072 31.2318 446.892 31.6918 446.532 32.0718C446.172 32.4318 445.702 32.6118 445.122 32.6118ZM457.521 51.7518C455.921 51.7518 454.681 51.3218 453.801 50.4618C452.921 49.6018 452.481 48.3718 452.481 46.7718V32.1918H455.361V46.6518C455.361 47.5118 455.571 48.1718 455.991 48.6318C456.431 49.0918 457.051 49.3218 457.851 49.3218C458.751 49.3218 459.501 49.0718 460.101 48.5718L461.001 50.6418C460.561 51.0218 460.031 51.3018 459.411 51.4818C458.811 51.6618 458.181 51.7518 457.521 51.7518ZM449.781 38.0418V35.6718H459.921V38.0418H449.781ZM464.88 57.5718C464.12 57.5718 463.38 57.4418 462.66 57.1818C461.94 56.9418 461.32 56.5818 460.8 56.1018L462.03 53.9418C462.43 54.3218 462.87 54.6118 463.35 54.8118C463.83 55.0118 464.34 55.1118 464.88 55.1118C465.58 55.1118 466.16 54.9318 466.62 54.5718C467.08 54.2118 467.51 53.5718 467.91 52.6518L468.9 50.4618L469.2 50.1018L475.44 35.6718H478.26L470.55 53.1618C470.09 54.2818 469.57 55.1618 468.99 55.8018C468.43 56.4418 467.81 56.8918 467.13 57.1518C466.45 57.4318 465.7 57.5718 464.88 57.5718ZM468.66 52.0818L461.4 35.6718H464.4L470.58 49.8318L468.66 52.0818Z" fill="black"/>
<path d="M265.49 94.4473L265.44 92.8473L276.59 81.3723H278.14L270.34 89.4473L269.615 90.2223L265.49 94.4473ZM264.39 98.8723V81.3723H265.665V98.8723H264.39ZM277.115 98.8723L269.24 89.8723L270.115 88.9473L278.665 98.8723H277.115ZM286.058 98.9723C284.808 98.9723 283.691 98.689 282.708 98.1223C281.741 97.5557 280.966 96.7723 280.383 95.7723C279.816 94.7723 279.533 93.6307 279.533 92.3473C279.533 91.0473 279.816 89.9057 280.383 88.9223C280.966 87.9223 281.741 87.139 282.708 86.5723C283.691 86.0057 284.808 85.7223 286.058 85.7223C287.308 85.7223 288.424 86.0057 289.408 86.5723C290.391 87.139 291.166 87.9223 291.733 88.9223C292.299 89.9057 292.583 91.0473 292.583 92.3473C292.583 93.6307 292.299 94.7723 291.733 95.7723C291.166 96.7723 290.391 97.5557 289.408 98.1223C288.424 98.689 287.308 98.9723 286.058 98.9723ZM286.058 97.8473C287.058 97.8473 287.958 97.6223 288.758 97.1723C289.558 96.7057 290.183 96.0557 290.633 95.2223C291.083 94.389 291.308 93.4307 291.308 92.3473C291.308 91.2473 291.083 90.289 290.633 89.4723C290.183 88.639 289.558 87.9973 288.758 87.5473C287.958 87.0807 287.058 86.8473 286.058 86.8473C285.058 86.8473 284.158 87.0807 283.358 87.5473C282.574 87.9973 281.949 88.639 281.483 89.4723C281.033 90.289 280.808 91.2473 280.808 92.3473C280.808 93.4307 281.033 94.389 281.483 95.2223C281.949 96.0557 282.574 96.7057 283.358 97.1723C284.158 97.6223 285.058 97.8473 286.058 97.8473ZM312.711 85.7223C313.761 85.7223 314.669 85.9307 315.436 86.3473C316.219 86.7473 316.827 87.364 317.261 88.1973C317.694 89.014 317.911 90.0307 317.911 91.2473V98.8723H316.661V91.3473C316.661 89.8807 316.302 88.764 315.586 87.9973C314.869 87.2307 313.869 86.8473 312.586 86.8473C311.602 86.8473 310.752 87.0557 310.036 87.4723C309.319 87.889 308.769 88.4723 308.386 89.2223C308.002 89.9723 307.811 90.8723 307.811 91.9223V98.8723H306.561V91.3473C306.561 89.8807 306.202 88.764 305.486 87.9973C304.769 87.2307 303.769 86.8473 302.486 86.8473C301.502 86.8473 300.652 87.0557 299.936 87.4723C299.219 87.889 298.669 88.4723 298.286 89.2223C297.902 89.9723 297.711 90.8723 297.711 91.9223V98.8723H296.461V85.8223H297.661V89.4223L297.486 89.0223C297.869 88.0057 298.511 87.2057 299.411 86.6223C300.311 86.0223 301.394 85.7223 302.661 85.7223C303.961 85.7223 305.052 86.0557 305.936 86.7223C306.836 87.3723 307.402 88.3473 307.636 89.6473L307.211 89.4723C307.561 88.3557 308.219 87.4557 309.186 86.7723C310.152 86.0723 311.327 85.7223 312.711 85.7223ZM328.372 98.9723C327.255 98.9723 326.289 98.7723 325.472 98.3723C324.655 97.9557 324.022 97.339 323.572 96.5223C323.139 95.689 322.922 94.664 322.922 93.4473V85.8223H324.172V93.3473C324.172 94.814 324.547 95.9307 325.297 96.6973C326.047 97.464 327.105 97.8473 328.472 97.8473C329.455 97.8473 330.305 97.639 331.022 97.2223C331.739 96.8057 332.289 96.2223 332.672 95.4723C333.055 94.7057 333.247 93.8057 333.247 92.7723V85.8223H334.497V98.8723H333.297V95.2473L333.472 95.6723C333.089 96.689 332.447 97.4973 331.547 98.0973C330.664 98.6807 329.605 98.9723 328.372 98.9723ZM346.171 85.7223C347.237 85.7223 348.162 85.9307 348.946 86.3473C349.746 86.7473 350.362 87.364 350.796 88.1973C351.246 89.014 351.471 90.0307 351.471 91.2473V98.8723H350.221V91.3473C350.221 89.8807 349.846 88.764 349.096 87.9973C348.362 87.2307 347.329 86.8473 345.996 86.8473C344.979 86.8473 344.096 87.0557 343.346 87.4723C342.596 87.889 342.021 88.4723 341.621 89.2223C341.237 89.9723 341.046 90.8723 341.046 91.9223V98.8723H339.796V85.8223H340.996V89.4473L340.821 89.0473C341.221 88.014 341.879 87.2057 342.796 86.6223C343.712 86.0223 344.837 85.7223 346.171 85.7223ZM356.617 98.8723V85.8223H357.867V98.8723H356.617ZM357.242 82.6473C356.958 82.6473 356.717 82.5473 356.517 82.3473C356.317 82.1473 356.217 81.914 356.217 81.6473C356.217 81.364 356.317 81.1223 356.517 80.9223C356.717 80.7223 356.958 80.6223 357.242 80.6223C357.542 80.6223 357.783 80.7223 357.967 80.9223C358.167 81.1057 358.267 81.339 358.267 81.6223C358.267 81.9057 358.167 82.1473 357.967 82.3473C357.783 82.5473 357.542 82.6473 357.242 82.6473ZM366.935 98.9723C365.785 98.9723 364.902 98.6557 364.285 98.0223C363.685 97.389 363.385 96.5223 363.385 95.4223V82.9723H364.635V95.2973C364.635 96.1307 364.844 96.7723 365.26 97.2223C365.677 97.6723 366.277 97.8973 367.06 97.8973C367.877 97.8973 368.552 97.6557 369.085 97.1723L369.61 98.0473C369.277 98.364 368.869 98.5973 368.385 98.7473C367.919 98.8973 367.435 98.9723 366.935 98.9723ZM360.985 86.8973V85.8223H368.785V86.8973H360.985ZM381.321 98.8723V95.8973L381.271 95.4473V90.5473C381.271 89.3307 380.938 88.4057 380.271 87.7723C379.621 87.139 378.663 86.8223 377.396 86.8223C376.496 86.8223 375.655 86.9807 374.871 87.2973C374.105 87.5973 373.446 87.989 372.896 88.4723L372.271 87.5723C372.921 86.989 373.705 86.539 374.621 86.2223C375.538 85.889 376.496 85.7223 377.496 85.7223C379.113 85.7223 380.355 86.1307 381.221 86.9473C382.088 87.764 382.521 88.9807 382.521 90.5973V98.8723H381.321ZM376.621 98.9723C375.655 98.9723 374.813 98.8223 374.096 98.5223C373.396 98.2057 372.855 97.764 372.471 97.1973C372.105 96.6307 371.921 95.9807 371.921 95.2473C371.921 94.5807 372.071 93.9807 372.371 93.4473C372.688 92.8973 373.205 92.4557 373.921 92.1223C374.638 91.7723 375.596 91.5973 376.796 91.5973H381.596V92.5723H376.821C375.471 92.5723 374.521 92.8223 373.971 93.3223C373.438 93.8223 373.171 94.4473 373.171 95.1973C373.171 96.0307 373.488 96.6973 374.121 97.1973C374.755 97.6973 375.646 97.9473 376.796 97.9473C377.896 97.9473 378.821 97.6973 379.571 97.1973C380.338 96.6973 380.905 95.9723 381.271 95.0223L381.621 95.8723C381.271 96.8223 380.671 97.5807 379.821 98.1473C378.988 98.6973 377.921 98.9723 376.621 98.9723ZM390.971 98.9723C389.888 98.9723 388.871 98.814 387.921 98.4973C386.988 98.1807 386.263 97.7807 385.746 97.2973L386.321 96.2973C386.821 96.7307 387.488 97.1057 388.321 97.4223C389.155 97.7223 390.055 97.8723 391.021 97.8723C392.388 97.8723 393.371 97.6473 393.971 97.1973C394.571 96.7473 394.871 96.1557 394.871 95.4223C394.871 94.889 394.713 94.4723 394.396 94.1723C394.096 93.8557 393.688 93.614 393.171 93.4473C392.655 93.2807 392.088 93.1473 391.471 93.0473C390.855 92.9307 390.238 92.8057 389.621 92.6723C389.005 92.539 388.438 92.3473 387.921 92.0973C387.405 91.8473 386.988 91.5057 386.671 91.0723C386.371 90.6223 386.221 90.0307 386.221 89.2973C386.221 88.6307 386.405 88.0307 386.771 87.4973C387.138 86.964 387.688 86.539 388.421 86.2223C389.155 85.889 390.071 85.7223 391.171 85.7223C391.988 85.7223 392.805 85.839 393.621 86.0723C394.455 86.3057 395.13 86.614 395.646 86.9973L395.071 87.9973C394.521 87.5807 393.905 87.2807 393.221 87.0973C392.538 86.914 391.846 86.8223 391.146 86.8223C389.88 86.8223 388.946 87.0557 388.346 87.5223C387.763 87.989 387.471 88.5723 387.471 89.2723C387.471 89.8223 387.621 90.264 387.921 90.5973C388.238 90.914 388.655 91.164 389.171 91.3473C389.688 91.514 390.255 91.6557 390.871 91.7723C391.488 91.8723 392.105 91.989 392.721 92.1223C393.338 92.2557 393.905 92.4473 394.421 92.6973C394.938 92.9307 395.346 93.264 395.646 93.6973C395.963 94.114 396.121 94.6807 396.121 95.3973C396.121 96.114 395.921 96.739 395.521 97.2723C395.138 97.8057 394.563 98.2223 393.796 98.5223C393.03 98.8223 392.088 98.9723 390.971 98.9723ZM422.281 85.7223C423.331 85.7223 424.239 85.9307 425.006 86.3473C425.789 86.7473 426.398 87.364 426.831 88.1973C427.264 89.014 427.481 90.0307 427.481 91.2473V98.8723H426.231V91.3473C426.231 89.8807 425.873 88.764 425.156 87.9973C424.439 87.2307 423.439 86.8473 422.156 86.8473C421.173 86.8473 420.323 87.0557 419.606 87.4723C418.889 87.889 418.339 88.4723 417.956 89.2223C417.573 89.9723 417.381 90.8723 417.381 91.9223V98.8723H416.131V91.3473C416.131 89.8807 415.773 88.764 415.056 87.9973C414.339 87.2307 413.339 86.8473 412.056 86.8473C411.073 86.8473 410.223 87.0557 409.506 87.4723C408.789 87.889 408.239 88.4723 407.856 89.2223C407.473 89.9723 407.281 90.8723 407.281 91.9223V98.8723H406.031V85.8223H407.231V89.4223L407.056 89.0223C407.439 88.0057 408.081 87.2057 408.981 86.6223C409.881 86.0223 410.964 85.7223 412.231 85.7223C413.531 85.7223 414.623 86.0557 415.506 86.7223C416.406 87.3723 416.973 88.3473 417.206 89.6473L416.781 89.4723C417.131 88.3557 417.789 87.4557 418.756 86.7723C419.723 86.0723 420.898 85.7223 422.281 85.7223ZM437.942 98.9723C436.626 98.9723 435.459 98.689 434.442 98.1223C433.442 97.5557 432.651 96.7723 432.067 95.7723C431.501 94.7723 431.217 93.6307 431.217 92.3473C431.217 91.0473 431.484 89.9057 432.017 88.9223C432.567 87.9223 433.317 87.139 434.267 86.5723C435.217 86.0057 436.284 85.7223 437.467 85.7223C438.651 85.7223 439.709 85.9973 440.642 86.5473C441.592 87.0973 442.334 87.8723 442.867 88.8723C443.417 89.8557 443.692 90.9973 443.692 92.2973C443.692 92.3473 443.684 92.4057 443.667 92.4723C443.667 92.5223 443.667 92.5807 443.667 92.6473H432.142V91.6723H442.992L442.492 92.1473C442.509 91.1307 442.292 90.2223 441.842 89.4223C441.409 88.6057 440.817 87.9723 440.067 87.5223C439.317 87.0557 438.451 86.8223 437.467 86.8223C436.501 86.8223 435.634 87.0557 434.867 87.5223C434.117 87.9723 433.526 88.6057 433.092 89.4223C432.659 90.2223 432.442 91.139 432.442 92.1723V92.3973C432.442 93.464 432.676 94.414 433.142 95.2473C433.626 96.064 434.284 96.7057 435.117 97.1723C435.951 97.6223 436.901 97.8473 437.967 97.8473C438.801 97.8473 439.576 97.6973 440.292 97.3973C441.026 97.0973 441.642 96.639 442.142 96.0223L442.867 96.8473C442.301 97.5473 441.584 98.0807 440.717 98.4473C439.867 98.7973 438.942 98.9723 437.942 98.9723ZM449.865 98.8723L444.915 85.8223H446.115L450.715 98.1723H450.19L454.915 85.8223H455.99L460.69 98.1723H460.14L464.815 85.8223H465.965L461.015 98.8723H459.84L455.24 87.0223H455.64L451.015 98.8723H449.865ZM476.707 98.8723V95.8973L476.657 95.4473V90.5473C476.657 89.3307 476.324 88.4057 475.657 87.7723C475.007 87.139 474.049 86.8223 472.782 86.8223C471.882 86.8223 471.04 86.9807 470.257 87.2973C469.49 87.5973 468.832 87.989 468.282 88.4723L467.657 87.5723C468.307 86.989 469.09 86.539 470.007 86.2223C470.924 85.889 471.882 85.7223 472.882 85.7223C474.499 85.7223 475.74 86.1307 476.607 86.9473C477.474 87.764 477.907 88.9807 477.907 90.5973V98.8723H476.707ZM472.007 98.9723C471.04 98.9723 470.199 98.8223 469.482 98.5223C468.782 98.2057 468.24 97.764 467.857 97.1973C467.49 96.6307 467.307 95.9807 467.307 95.2473C467.307 94.5807 467.457 93.9807 467.757 93.4473C468.074 92.8973 468.59 92.4557 469.307 92.1223C470.024 91.7723 470.982 91.5973 472.182 91.5973H476.982V92.5723H472.207C470.857 92.5723 469.907 92.8223 469.357 93.3223C468.824 93.8223 468.557 94.4473 468.557 95.1973C468.557 96.0307 468.874 96.6973 469.507 97.1973C470.14 97.6973 471.032 97.9473 472.182 97.9473C473.282 97.9473 474.207 97.6973 474.957 97.1973C475.724 96.6973 476.29 95.9723 476.657 95.0223L477.007 95.8723C476.657 96.8223 476.057 97.5807 475.207 98.1473C474.374 98.6973 473.307 98.9723 472.007 98.9723ZM484.007 95.2723L484.032 93.6973L492.657 85.8223H494.257L488.532 91.1973L487.782 91.8223L484.007 95.2723ZM483.057 98.8723V80.3223H484.307V98.8723H483.057ZM493.257 98.8723L487.557 91.7223L488.407 90.7973L494.807 98.8723H493.257ZM497.754 98.8723V85.8223H499.004V98.8723H497.754ZM498.379 82.6473C498.096 82.6473 497.854 82.5473 497.654 82.3473C497.454 82.1473 497.354 81.914 497.354 81.6473C497.354 81.364 497.454 81.1223 497.654 80.9223C497.854 80.7223 498.096 80.6223 498.379 80.6223C498.679 80.6223 498.921 80.7223 499.104 80.9223C499.304 81.1057 499.404 81.339 499.404 81.6223C499.404 81.9057 499.304 82.1473 499.104 82.3473C498.921 82.5473 498.679 82.6473 498.379 82.6473ZM504.273 98.8723V80.3223H505.523V98.8723H504.273ZM510.792 98.8723V85.8223H512.042V98.8723H510.792ZM511.417 82.6473C511.133 82.6473 510.892 82.5473 510.692 82.3473C510.492 82.1473 510.392 81.914 510.392 81.6473C510.392 81.364 510.492 81.1223 510.692 80.9223C510.892 80.7223 511.133 80.6223 511.417 80.6223C511.717 80.6223 511.958 80.7223 512.142 80.9223C512.342 81.1057 512.442 81.339 512.442 81.6223C512.442 81.9057 512.342 82.1473 512.142 82.3473C511.958 82.5473 511.717 82.6473 511.417 82.6473ZM234.366 115.722C235.416 115.722 236.324 115.931 237.091 116.347C237.874 116.747 238.482 117.364 238.916 118.197C239.349 119.014 239.566 120.031 239.566 121.247V128.872H238.316V121.347C238.316 119.881 237.957 118.764 237.241 117.997C236.524 117.231 235.524 116.847 234.241 116.847C233.257 116.847 232.407 117.056 231.691 117.472C230.974 117.889 230.424 118.472 230.041 119.222C229.657 119.972 229.466 120.872 229.466 121.922V128.872H228.216V121.347C228.216 119.881 227.857 118.764 227.141 117.997C226.424 117.231 225.424 116.847 224.141 116.847C223.157 116.847 222.307 117.056 221.591 117.472C220.874 117.889 220.324 118.472 219.941 119.222C219.557 119.972 219.366 120.872 219.366 121.922V128.872H218.116V115.822H219.316V119.422L219.141 119.022C219.524 118.006 220.166 117.206 221.066 116.622C221.966 116.022 223.049 115.722 224.316 115.722C225.616 115.722 226.707 116.056 227.591 116.722C228.491 117.372 229.057 118.347 229.291 119.647L228.866 119.472C229.216 118.356 229.874 117.456 230.841 116.772C231.807 116.072 232.982 115.722 234.366 115.722ZM252.952 128.872V125.897L252.902 125.447V120.547C252.902 119.331 252.569 118.406 251.902 117.772C251.252 117.139 250.294 116.822 249.027 116.822C248.127 116.822 247.285 116.981 246.502 117.297C245.735 117.597 245.077 117.989 244.527 118.472L243.902 117.572C244.552 116.989 245.335 116.539 246.252 116.222C247.169 115.889 248.127 115.722 249.127 115.722C250.744 115.722 251.985 116.131 252.852 116.947C253.719 117.764 254.152 118.981 254.152 120.597V128.872H252.952ZM248.252 128.972C247.285 128.972 246.444 128.822 245.727 128.522C245.027 128.206 244.485 127.764 244.102 127.197C243.735 126.631 243.552 125.981 243.552 125.247C243.552 124.581 243.702 123.981 244.002 123.447C244.319 122.897 244.835 122.456 245.552 122.122C246.269 121.772 247.227 121.597 248.427 121.597H253.227V122.572H248.452C247.102 122.572 246.152 122.822 245.602 123.322C245.069 123.822 244.802 124.447 244.802 125.197C244.802 126.031 245.119 126.697 245.752 127.197C246.385 127.697 247.277 127.947 248.427 127.947C249.527 127.947 250.452 127.697 251.202 127.197C251.969 126.697 252.535 125.972 252.902 125.022L253.252 125.872C252.902 126.822 252.302 127.581 251.452 128.147C250.619 128.697 249.552 128.972 248.252 128.972ZM262.602 128.972C261.519 128.972 260.502 128.814 259.552 128.497C258.619 128.181 257.894 127.781 257.377 127.297L257.952 126.297C258.452 126.731 259.119 127.106 259.952 127.422C260.786 127.722 261.686 127.872 262.652 127.872C264.019 127.872 265.002 127.647 265.602 127.197C266.202 126.747 266.502 126.156 266.502 125.422C266.502 124.889 266.344 124.472 266.027 124.172C265.727 123.856 265.319 123.614 264.802 123.447C264.286 123.281 263.719 123.147 263.102 123.047C262.486 122.931 261.869 122.806 261.252 122.672C260.636 122.539 260.069 122.347 259.552 122.097C259.036 121.847 258.619 121.506 258.302 121.072C258.002 120.622 257.852 120.031 257.852 119.297C257.852 118.631 258.036 118.031 258.402 117.497C258.769 116.964 259.319 116.539 260.052 116.222C260.786 115.889 261.702 115.722 262.802 115.722C263.619 115.722 264.436 115.839 265.252 116.072C266.086 116.306 266.761 116.614 267.277 116.997L266.702 117.997C266.152 117.581 265.536 117.281 264.852 117.097C264.169 116.914 263.477 116.822 262.777 116.822C261.511 116.822 260.577 117.056 259.977 117.522C259.394 117.989 259.102 118.572 259.102 119.272C259.102 119.822 259.252 120.264 259.552 120.597C259.869 120.914 260.286 121.164 260.802 121.347C261.319 121.514 261.886 121.656 262.502 121.772C263.119 121.872 263.736 121.989 264.352 122.122C264.969 122.256 265.536 122.447 266.052 122.697C266.569 122.931 266.977 123.264 267.277 123.697C267.594 124.114 267.752 124.681 267.752 125.397C267.752 126.114 267.552 126.739 267.152 127.272C266.769 127.806 266.194 128.222 265.427 128.522C264.661 128.822 263.719 128.972 262.602 128.972ZM270.697 133.822C270.097 133.822 269.53 133.722 268.997 133.522C268.48 133.322 268.038 133.031 267.672 132.647L268.297 131.697C268.63 132.047 268.988 132.306 269.372 132.472C269.772 132.639 270.222 132.722 270.722 132.722C271.322 132.722 271.847 132.556 272.297 132.222C272.763 131.889 273.197 131.281 273.597 130.397L274.497 128.397L274.672 128.172L280.197 115.822H281.472L274.772 130.647C274.422 131.447 274.038 132.072 273.622 132.522C273.222 132.989 272.78 133.322 272.297 133.522C271.813 133.722 271.28 133.822 270.697 133.822ZM274.472 129.197L268.422 115.822H269.747L275.247 128.097L274.472 129.197ZM292.039 128.872V125.897L291.989 125.447V120.547C291.989 119.331 291.656 118.406 290.989 117.772C290.339 117.139 289.381 116.822 288.114 116.822C287.214 116.822 286.372 116.981 285.589 117.297C284.822 117.597 284.164 117.989 283.614 118.472L282.989 117.572C283.639 116.989 284.422 116.539 285.339 116.222C286.256 115.889 287.214 115.722 288.214 115.722C289.831 115.722 291.072 116.131 291.939 116.947C292.806 117.764 293.239 118.981 293.239 120.597V128.872H292.039ZM287.339 128.972C286.372 128.972 285.531 128.822 284.814 128.522C284.114 128.206 283.572 127.764 283.189 127.197C282.822 126.631 282.639 125.981 282.639 125.247C282.639 124.581 282.789 123.981 283.089 123.447C283.406 122.897 283.922 122.456 284.639 122.122C285.356 121.772 286.314 121.597 287.514 121.597H292.314V122.572H287.539C286.189 122.572 285.239 122.822 284.689 123.322C284.156 123.822 283.889 124.447 283.889 125.197C283.889 126.031 284.206 126.697 284.839 127.197C285.472 127.697 286.364 127.947 287.514 127.947C288.614 127.947 289.539 127.697 290.289 127.197C291.056 126.697 291.622 125.972 291.989 125.022L292.339 125.872C291.989 126.822 291.389 127.581 290.539 128.147C289.706 128.697 288.639 128.972 287.339 128.972ZM298.389 128.872V115.822H299.589V119.397L299.464 118.997C299.831 117.947 300.448 117.139 301.314 116.572C302.181 116.006 303.264 115.722 304.564 115.722V116.947C304.514 116.947 304.464 116.947 304.414 116.947C304.364 116.931 304.314 116.922 304.264 116.922C302.814 116.922 301.681 117.381 300.864 118.297C300.048 119.197 299.639 120.456 299.639 122.072V128.872H298.389ZM315.257 128.872V125.897L315.207 125.447V120.547C315.207 119.331 314.874 118.406 314.207 117.772C313.557 117.139 312.599 116.822 311.332 116.822C310.432 116.822 309.59 116.981 308.807 117.297C308.04 117.597 307.382 117.989 306.832 118.472L306.207 117.572C306.857 116.989 307.64 116.539 308.557 116.222C309.474 115.889 310.432 115.722 311.432 115.722C313.049 115.722 314.29 116.131 315.157 116.947C316.024 117.764 316.457 118.981 316.457 120.597V128.872H315.257ZM310.557 128.972C309.59 128.972 308.749 128.822 308.032 128.522C307.332 128.206 306.79 127.764 306.407 127.197C306.04 126.631 305.857 125.981 305.857 125.247C305.857 124.581 306.007 123.981 306.307 123.447C306.624 122.897 307.14 122.456 307.857 122.122C308.574 121.772 309.532 121.597 310.732 121.597H315.532V122.572H310.757C309.407 122.572 308.457 122.822 307.907 123.322C307.374 123.822 307.107 124.447 307.107 125.197C307.107 126.031 307.424 126.697 308.057 127.197C308.69 127.697 309.582 127.947 310.732 127.947C311.832 127.947 312.757 127.697 313.507 127.197C314.274 126.697 314.84 125.972 315.207 125.022L315.557 125.872C315.207 126.822 314.607 127.581 313.757 128.147C312.924 128.697 311.857 128.972 310.557 128.972ZM322.557 125.272L322.582 123.697L331.207 115.822H332.807L327.082 121.197L326.332 121.822L322.557 125.272ZM321.607 128.872V110.322H322.857V128.872H321.607ZM331.807 128.872L326.107 121.722L326.957 120.797L333.357 128.872H331.807ZM344.285 128.872V125.897L344.235 125.447V120.547C344.235 119.331 343.902 118.406 343.235 117.772C342.585 117.139 341.627 116.822 340.36 116.822C339.46 116.822 338.618 116.981 337.835 117.297C337.068 117.597 336.41 117.989 335.86 118.472L335.235 117.572C335.885 116.989 336.668 116.539 337.585 116.222C338.502 115.889 339.46 115.722 340.46 115.722C342.077 115.722 343.318 116.131 344.185 116.947C345.052 117.764 345.485 118.981 345.485 120.597V128.872H344.285ZM339.585 128.972C338.618 128.972 337.777 128.822 337.06 128.522C336.36 128.206 335.818 127.764 335.435 127.197C335.068 126.631 334.885 125.981 334.885 125.247C334.885 124.581 335.035 123.981 335.335 123.447C335.652 122.897 336.168 122.456 336.885 122.122C337.602 121.772 338.56 121.597 339.76 121.597H344.56V122.572H339.785C338.435 122.572 337.485 122.822 336.935 123.322C336.402 123.822 336.135 124.447 336.135 125.197C336.135 126.031 336.452 126.697 337.085 127.197C337.718 127.697 338.61 127.947 339.76 127.947C340.86 127.947 341.785 127.697 342.535 127.197C343.302 126.697 343.868 125.972 344.235 125.022L344.585 125.872C344.235 126.822 343.635 127.581 342.785 128.147C341.952 128.697 340.885 128.972 339.585 128.972ZM354.435 128.972C353.285 128.972 352.402 128.656 351.785 128.022C351.185 127.389 350.885 126.522 350.885 125.422V112.972H352.135V125.297C352.135 126.131 352.344 126.772 352.76 127.222C353.177 127.672 353.777 127.897 354.56 127.897C355.377 127.897 356.052 127.656 356.585 127.172L357.11 128.047C356.777 128.364 356.369 128.597 355.885 128.747C355.419 128.897 354.935 128.972 354.435 128.972ZM348.485 116.897V115.822H356.285V116.897H348.485ZM366.717 133.822C366.117 133.822 365.551 133.722 365.017 133.522C364.501 133.322 364.059 133.031 363.692 132.647L364.317 131.697C364.651 132.047 365.009 132.306 365.392 132.472C365.792 132.639 366.242 132.722 366.742 132.722C367.342 132.722 367.867 132.556 368.317 132.222C368.784 131.889 369.217 131.281 369.617 130.397L370.517 128.397L370.692 128.172L376.217 115.822H377.492L370.792 130.647C370.442 131.447 370.059 132.072 369.642 132.522C369.242 132.989 368.801 133.322 368.317 133.522C367.834 133.722 367.301 133.822 366.717 133.822ZM370.492 129.197L364.442 115.822H365.767L371.267 128.097L370.492 129.197ZM388.06 128.872V125.897L388.01 125.447V120.547C388.01 119.331 387.676 118.406 387.01 117.772C386.36 117.139 385.401 116.822 384.135 116.822C383.235 116.822 382.393 116.981 381.61 117.297C380.843 117.597 380.185 117.989 379.635 118.472L379.01 117.572C379.66 116.989 380.443 116.539 381.36 116.222C382.276 115.889 383.235 115.722 384.235 115.722C385.851 115.722 387.093 116.131 387.96 116.947C388.826 117.764 389.26 118.981 389.26 120.597V128.872H388.06ZM383.36 128.972C382.393 128.972 381.551 128.822 380.835 128.522C380.135 128.206 379.593 127.764 379.21 127.197C378.843 126.631 378.66 125.981 378.66 125.247C378.66 124.581 378.81 123.981 379.11 123.447C379.426 122.897 379.943 122.456 380.66 122.122C381.376 121.772 382.335 121.597 383.535 121.597H388.335V122.572H383.56C382.21 122.572 381.26 122.822 380.71 123.322C380.176 123.822 379.91 124.447 379.91 125.197C379.91 126.031 380.226 126.697 380.86 127.197C381.493 127.697 382.385 127.947 383.535 127.947C384.635 127.947 385.56 127.697 386.31 127.197C387.076 126.697 387.643 125.972 388.01 125.022L388.36 125.872C388.01 126.822 387.41 127.581 386.56 128.147C385.726 128.697 384.66 128.972 383.36 128.972ZM400.785 115.722C401.851 115.722 402.776 115.931 403.56 116.347C404.36 116.747 404.976 117.364 405.41 118.197C405.86 119.014 406.085 120.031 406.085 121.247V128.872H404.835V121.347C404.835 119.881 404.46 118.764 403.71 117.997C402.976 117.231 401.943 116.847 400.61 116.847C399.593 116.847 398.71 117.056 397.96 117.472C397.21 117.889 396.635 118.472 396.235 119.222C395.851 119.972 395.66 120.872 395.66 121.922V128.872H394.41V115.822H395.61V119.447L395.435 119.047C395.835 118.014 396.493 117.206 397.41 116.622C398.326 116.022 399.451 115.722 400.785 115.722ZM416.656 133.822C415.473 133.822 414.348 133.639 413.281 133.272C412.214 132.906 411.348 132.397 410.681 131.747L411.356 130.797C412.006 131.397 412.781 131.864 413.681 132.197C414.598 132.531 415.581 132.697 416.631 132.697C418.381 132.697 419.664 132.289 420.481 131.472C421.314 130.656 421.731 129.372 421.731 127.622V123.997L421.981 122.047L421.781 120.097V115.822H422.981V127.472C422.981 129.656 422.448 131.256 421.381 132.272C420.331 133.306 418.756 133.822 416.656 133.822ZM416.306 128.397C415.073 128.397 413.964 128.131 412.981 127.597C412.014 127.047 411.239 126.297 410.656 125.347C410.089 124.381 409.806 123.281 409.806 122.047C409.806 120.797 410.089 119.697 410.656 118.747C411.239 117.797 412.014 117.056 412.981 116.522C413.964 115.989 415.073 115.722 416.306 115.722C417.489 115.722 418.548 115.981 419.481 116.497C420.431 116.997 421.181 117.722 421.731 118.672C422.281 119.606 422.556 120.731 422.556 122.047C422.556 123.347 422.281 124.472 421.731 125.422C421.181 126.372 420.431 127.106 419.481 127.622C418.548 128.139 417.489 128.397 416.306 128.397ZM416.406 127.272C417.456 127.272 418.381 127.056 419.181 126.622C419.981 126.172 420.606 125.556 421.056 124.772C421.523 123.972 421.756 123.064 421.756 122.047C421.756 121.014 421.523 120.106 421.056 119.322C420.606 118.539 419.981 117.931 419.181 117.497C418.381 117.064 417.456 116.847 416.406 116.847C415.389 116.847 414.473 117.064 413.656 117.497C412.856 117.931 412.223 118.539 411.756 119.322C411.306 120.106 411.081 121.014 411.081 122.047C411.081 123.064 411.306 123.972 411.756 124.772C412.223 125.556 412.856 126.172 413.656 126.622C414.473 127.056 415.389 127.272 416.406 127.272ZM441.068 115.722C442.135 115.722 443.06 115.931 443.843 116.347C444.643 116.747 445.26 117.364 445.693 118.197C446.143 119.014 446.368 120.031 446.368 121.247V128.872H445.118V121.347C445.118 119.881 444.743 118.764 443.993 117.997C443.26 117.231 442.226 116.847 440.893 116.847C439.876 116.847 438.993 117.056 438.243 117.472C437.493 117.889 436.918 118.472 436.518 119.222C436.135 119.972 435.943 120.872 435.943 121.922V128.872H434.693V110.322H435.943V119.447L435.718 119.047C436.118 118.014 436.776 117.206 437.693 116.622C438.61 116.022 439.735 115.722 441.068 115.722ZM451.514 128.872V115.822H452.764V128.872H451.514ZM452.139 112.647C451.856 112.647 451.614 112.547 451.414 112.347C451.214 112.147 451.114 111.914 451.114 111.647C451.114 111.364 451.214 111.122 451.414 110.922C451.614 110.722 451.856 110.622 452.139 110.622C452.439 110.622 452.681 110.722 452.864 110.922C453.064 111.106 453.164 111.339 453.164 111.622C453.164 111.906 453.064 112.147 452.864 112.347C452.681 112.547 452.439 112.647 452.139 112.647ZM463.058 128.972C461.841 128.972 460.741 128.697 459.758 128.147C458.791 127.581 458.024 126.797 457.458 125.797C456.891 124.797 456.608 123.647 456.608 122.347C456.608 121.031 456.891 119.881 457.458 118.897C458.024 117.897 458.791 117.122 459.758 116.572C460.741 116.006 461.841 115.722 463.058 115.722C464.208 115.722 465.241 115.989 466.158 116.522C467.091 117.056 467.824 117.814 468.358 118.797C468.908 119.781 469.183 120.964 469.183 122.347C469.183 123.697 468.916 124.872 468.383 125.872C467.849 126.872 467.116 127.639 466.183 128.172C465.266 128.706 464.224 128.972 463.058 128.972ZM463.133 127.847C464.133 127.847 465.024 127.622 465.808 127.172C466.608 126.706 467.233 126.056 467.683 125.222C468.149 124.389 468.383 123.431 468.383 122.347C468.383 121.247 468.149 120.289 467.683 119.472C467.233 118.639 466.608 117.997 465.808 117.547C465.024 117.081 464.133 116.847 463.133 116.847C462.133 116.847 461.233 117.081 460.433 117.547C459.649 117.997 459.024 118.639 458.558 119.472C458.108 120.289 457.883 121.247 457.883 122.347C457.883 123.431 458.108 124.389 458.558 125.222C459.024 126.056 459.649 126.706 460.433 127.172C461.233 127.622 462.133 127.847 463.133 127.847ZM468.408 128.872V124.597L468.633 122.322L468.383 120.047V110.322H469.633V128.872H468.408ZM480.203 128.972C479.086 128.972 478.12 128.772 477.303 128.372C476.486 127.956 475.853 127.339 475.403 126.522C474.97 125.689 474.753 124.664 474.753 123.447V115.822H476.003V123.347C476.003 124.814 476.378 125.931 477.128 126.697C477.878 127.464 478.936 127.847 480.303 127.847C481.286 127.847 482.136 127.639 482.853 127.222C483.57 126.806 484.12 126.222 484.503 125.472C484.886 124.706 485.078 123.806 485.078 122.772V115.822H486.328V128.872H485.128V125.247L485.303 125.672C484.92 126.689 484.278 127.497 483.378 128.097C482.495 128.681 481.436 128.972 480.203 128.972ZM498.177 128.972C497.027 128.972 495.985 128.706 495.052 128.172C494.135 127.639 493.402 126.881 492.852 125.897C492.318 124.897 492.052 123.714 492.052 122.347C492.052 120.981 492.318 119.806 492.852 118.822C493.402 117.822 494.135 117.056 495.052 116.522C495.985 115.989 497.027 115.722 498.177 115.722C499.41 115.722 500.51 116.006 501.477 116.572C502.46 117.122 503.227 117.897 503.777 118.897C504.343 119.897 504.627 121.047 504.627 122.347C504.627 123.647 504.343 124.797 503.777 125.797C503.227 126.797 502.46 127.581 501.477 128.147C500.51 128.697 499.41 128.972 498.177 128.972ZM491.627 133.722V115.822H492.827V120.097L492.627 122.372L492.877 124.647V133.722H491.627ZM498.102 127.847C499.102 127.847 500.002 127.622 500.802 127.172C501.602 126.706 502.227 126.056 502.677 125.222C503.143 124.389 503.377 123.431 503.377 122.347C503.377 121.247 503.143 120.289 502.677 119.472C502.227 118.639 501.602 117.997 500.802 117.547C500.002 117.081 499.102 116.847 498.102 116.847C497.102 116.847 496.202 117.081 495.402 117.547C494.618 117.997 493.993 118.639 493.527 119.472C493.077 120.289 492.852 121.247 492.852 122.347C492.852 123.431 493.077 124.389 493.527 125.222C493.993 126.056 494.618 126.706 495.402 127.172C496.202 127.622 497.102 127.847 498.102 127.847ZM519.943 128.972C518.726 128.972 517.626 128.697 516.643 128.147C515.676 127.581 514.909 126.797 514.343 125.797C513.776 124.797 513.493 123.647 513.493 122.347C513.493 121.031 513.776 119.881 514.343 118.897C514.909 117.897 515.676 117.122 516.643 116.572C517.626 116.006 518.726 115.722 519.943 115.722C521.093 115.722 522.126 115.989 523.043 116.522C523.976 117.056 524.709 117.814 525.243 118.797C525.793 119.781 526.068 120.964 526.068 122.347C526.068 123.697 525.801 124.872 525.268 125.872C524.734 126.872 524.001 127.639 523.068 128.172C522.151 128.706 521.109 128.972 519.943 128.972ZM520.018 127.847C521.018 127.847 521.909 127.622 522.693 127.172C523.493 126.706 524.118 126.056 524.568 125.222C525.034 124.389 525.268 123.431 525.268 122.347C525.268 121.247 525.034 120.289 524.568 119.472C524.118 118.639 523.493 117.997 522.693 117.547C521.909 117.081 521.018 116.847 520.018 116.847C519.018 116.847 518.118 117.081 517.318 117.547C516.534 117.997 515.909 118.639 515.443 119.472C514.993 120.289 514.768 121.247 514.768 122.347C514.768 123.431 514.993 124.389 515.443 125.222C515.909 126.056 516.534 126.706 517.318 127.172C518.118 127.622 519.018 127.847 520.018 127.847ZM525.293 128.872V124.597L525.518 122.322L525.268 120.047V110.322H526.518V128.872H525.293ZM540.013 128.872V125.897L539.963 125.447V120.547C539.963 119.331 539.629 118.406 538.963 117.772C538.313 117.139 537.354 116.822 536.088 116.822C535.188 116.822 534.346 116.981 533.563 117.297C532.796 117.597 532.138 117.989 531.588 118.472L530.963 117.572C531.613 116.989 532.396 116.539 533.313 116.222C534.229 115.889 535.188 115.722 536.188 115.722C537.804 115.722 539.046 116.131 539.913 116.947C540.779 117.764 541.213 118.981 541.213 120.597V128.872H540.013ZM535.313 128.972C534.346 128.972 533.504 128.822 532.788 128.522C532.088 128.206 531.546 127.764 531.163 127.197C530.796 126.631 530.613 125.981 530.613 125.247C530.613 124.581 530.763 123.981 531.063 123.447C531.379 122.897 531.896 122.456 532.613 122.122C533.329 121.772 534.288 121.597 535.488 121.597H540.288V122.572H535.513C534.163 122.572 533.213 122.822 532.663 123.322C532.129 123.822 531.863 124.447 531.863 125.197C531.863 126.031 532.179 126.697 532.813 127.197C533.446 127.697 534.338 127.947 535.488 127.947C536.588 127.947 537.513 127.697 538.263 127.197C539.029 126.697 539.596 125.972 539.963 125.022L540.313 125.872C539.963 126.822 539.363 127.581 538.513 128.147C537.679 128.697 536.613 128.972 535.313 128.972ZM552.738 115.722C553.805 115.722 554.73 115.931 555.513 116.347C556.313 116.747 556.93 117.364 557.363 118.197C557.813 119.014 558.038 120.031 558.038 121.247V128.872H556.788V121.347C556.788 119.881 556.413 118.764 555.663 117.997C554.93 117.231 553.896 116.847 552.563 116.847C551.546 116.847 550.663 117.056 549.913 117.472C549.163 117.889 548.588 118.472 548.188 119.222C547.805 119.972 547.613 120.872 547.613 121.922V128.872H546.363V115.822H547.563V119.447L547.388 119.047C547.788 118.014 548.446 117.206 549.363 116.622C550.28 116.022 551.405 115.722 552.738 115.722ZM232.878 158.972C231.728 158.972 230.844 158.656 230.228 158.022C229.628 157.389 229.328 156.522 229.328 155.422V142.972H230.578V155.297C230.578 156.131 230.786 156.772 231.203 157.222C231.619 157.672 232.219 157.897 233.003 157.897C233.819 157.897 234.494 157.656 235.028 157.172L235.553 158.047C235.219 158.364 234.811 158.597 234.328 158.747C233.861 158.897 233.378 158.972 232.878 158.972ZM226.928 146.897V145.822H234.728V146.897H226.928ZM239.039 158.872V145.822H240.289V158.872H239.039ZM239.664 142.647C239.38 142.647 239.139 142.547 238.939 142.347C238.739 142.147 238.639 141.914 238.639 141.647C238.639 141.364 238.739 141.122 238.939 140.922C239.139 140.722 239.38 140.622 239.664 140.622C239.964 140.622 240.205 140.722 240.389 140.922C240.589 141.106 240.689 141.339 240.689 141.622C240.689 141.906 240.589 142.147 240.389 142.347C240.205 142.547 239.964 142.647 239.664 142.647ZM251.932 145.722C252.999 145.722 253.924 145.931 254.707 146.347C255.507 146.747 256.124 147.364 256.557 148.197C257.007 149.014 257.232 150.031 257.232 151.247V158.872H255.982V151.347C255.982 149.881 255.607 148.764 254.857 147.997C254.124 147.231 253.091 146.847 251.757 146.847C250.741 146.847 249.857 147.056 249.107 147.472C248.357 147.889 247.782 148.472 247.382 149.222C246.999 149.972 246.807 150.872 246.807 151.922V158.872H245.557V145.822H246.757V149.447L246.582 149.047C246.982 148.014 247.641 147.206 248.557 146.622C249.474 146.022 250.599 145.722 251.932 145.722ZM267.804 163.822C266.62 163.822 265.495 163.639 264.429 163.272C263.362 162.906 262.495 162.397 261.829 161.747L262.504 160.797C263.154 161.397 263.929 161.864 264.829 162.197C265.745 162.531 266.729 162.697 267.779 162.697C269.529 162.697 270.812 162.289 271.629 161.472C272.462 160.656 272.879 159.372 272.879 157.622V153.997L273.129 152.047L272.929 150.097V145.822H274.129V157.472C274.129 159.656 273.595 161.256 272.529 162.272C271.479 163.306 269.904 163.822 267.804 163.822ZM267.454 158.397C266.22 158.397 265.112 158.131 264.129 157.597C263.162 157.047 262.387 156.297 261.804 155.347C261.237 154.381 260.954 153.281 260.954 152.047C260.954 150.797 261.237 149.697 261.804 148.747C262.387 147.797 263.162 147.056 264.129 146.522C265.112 145.989 266.22 145.722 267.454 145.722C268.637 145.722 269.695 145.981 270.629 146.497C271.579 146.997 272.329 147.722 272.879 148.672C273.429 149.606 273.704 150.731 273.704 152.047C273.704 153.347 273.429 154.472 272.879 155.422C272.329 156.372 271.579 157.106 270.629 157.622C269.695 158.139 268.637 158.397 267.454 158.397ZM267.554 157.272C268.604 157.272 269.529 157.056 270.329 156.622C271.129 156.172 271.754 155.556 272.204 154.772C272.67 153.972 272.904 153.064 272.904 152.047C272.904 151.014 272.67 150.106 272.204 149.322C271.754 148.539 271.129 147.931 270.329 147.497C269.529 147.064 268.604 146.847 267.554 146.847C266.537 146.847 265.62 147.064 264.804 147.497C264.004 147.931 263.37 148.539 262.904 149.322C262.454 150.106 262.229 151.014 262.229 152.047C262.229 153.064 262.454 153.972 262.904 154.772C263.37 155.556 264.004 156.172 264.804 156.622C265.62 157.056 266.537 157.272 267.554 157.272ZM284.845 163.822C283.661 163.822 282.536 163.639 281.47 163.272C280.403 162.906 279.536 162.397 278.87 161.747L279.545 160.797C280.195 161.397 280.97 161.864 281.87 162.197C282.786 162.531 283.77 162.697 284.82 162.697C286.57 162.697 287.853 162.289 288.67 161.472C289.503 160.656 289.92 159.372 289.92 157.622V153.997L290.17 152.047L289.97 150.097V145.822H291.17V157.472C291.17 159.656 290.636 161.256 289.57 162.272C288.52 163.306 286.945 163.822 284.845 163.822ZM284.495 158.397C283.261 158.397 282.153 158.131 281.17 157.597C280.203 157.047 279.428 156.297 278.845 155.347C278.278 154.381 277.995 153.281 277.995 152.047C277.995 150.797 278.278 149.697 278.845 148.747C279.428 147.797 280.203 147.056 281.17 146.522C282.153 145.989 283.261 145.722 284.495 145.722C285.678 145.722 286.736 145.981 287.67 146.497C288.62 146.997 289.37 147.722 289.92 148.672C290.47 149.606 290.745 150.731 290.745 152.047C290.745 153.347 290.47 154.472 289.92 155.422C289.37 156.372 288.62 157.106 287.67 157.622C286.736 158.139 285.678 158.397 284.495 158.397ZM284.595 157.272C285.645 157.272 286.57 157.056 287.37 156.622C288.17 156.172 288.795 155.556 289.245 154.772C289.711 153.972 289.945 153.064 289.945 152.047C289.945 151.014 289.711 150.106 289.245 149.322C288.795 148.539 288.17 147.931 287.37 147.497C286.57 147.064 285.645 146.847 284.595 146.847C283.578 146.847 282.661 147.064 281.845 147.497C281.045 147.931 280.411 148.539 279.945 149.322C279.495 150.106 279.27 151.014 279.27 152.047C279.27 153.064 279.495 153.972 279.945 154.772C280.411 155.556 281.045 156.172 281.845 156.622C282.661 157.056 283.578 157.272 284.595 157.272ZM304.686 158.872V155.897L304.636 155.447V150.547C304.636 149.331 304.302 148.406 303.636 147.772C302.986 147.139 302.027 146.822 300.761 146.822C299.861 146.822 299.019 146.981 298.236 147.297C297.469 147.597 296.811 147.989 296.261 148.472L295.636 147.572C296.286 146.989 297.069 146.539 297.986 146.222C298.902 145.889 299.861 145.722 300.861 145.722C302.477 145.722 303.719 146.131 304.586 146.947C305.452 147.764 305.886 148.981 305.886 150.597V158.872H304.686ZM299.986 158.972C299.019 158.972 298.177 158.822 297.461 158.522C296.761 158.206 296.219 157.764 295.836 157.197C295.469 156.631 295.286 155.981 295.286 155.247C295.286 154.581 295.436 153.981 295.736 153.447C296.052 152.897 296.569 152.456 297.286 152.122C298.002 151.772 298.961 151.597 300.161 151.597H304.961V152.572H300.186C298.836 152.572 297.886 152.822 297.336 153.322C296.802 153.822 296.536 154.447 296.536 155.197C296.536 156.031 296.852 156.697 297.486 157.197C298.119 157.697 299.011 157.947 300.161 157.947C301.261 157.947 302.186 157.697 302.936 157.197C303.702 156.697 304.269 155.972 304.636 155.022L304.986 155.872C304.636 156.822 304.036 157.581 303.186 158.147C302.352 158.697 301.286 158.972 299.986 158.972ZM311.036 158.872V140.322H312.286V158.872H311.036ZM329 158.972C327.784 158.972 326.684 158.697 325.7 158.147C324.734 157.581 323.967 156.797 323.4 155.797C322.834 154.797 322.55 153.647 322.55 152.347C322.55 151.031 322.834 149.881 323.4 148.897C323.967 147.897 324.734 147.122 325.7 146.572C326.684 146.006 327.784 145.722 329 145.722C330.15 145.722 331.184 145.989 332.1 146.522C333.034 147.056 333.767 147.814 334.3 148.797C334.85 149.781 335.125 150.964 335.125 152.347C335.125 153.697 334.859 154.872 334.325 155.872C333.792 156.872 333.059 157.639 332.125 158.172C331.209 158.706 330.167 158.972 329 158.972ZM329.075 157.847C330.075 157.847 330.967 157.622 331.75 157.172C332.55 156.706 333.175 156.056 333.625 155.222C334.092 154.389 334.325 153.431 334.325 152.347C334.325 151.247 334.092 150.289 333.625 149.472C333.175 148.639 332.55 147.997 331.75 147.547C330.967 147.081 330.075 146.847 329.075 146.847C328.075 146.847 327.175 147.081 326.375 147.547C325.592 147.997 324.967 148.639 324.5 149.472C324.05 150.289 323.825 151.247 323.825 152.347C323.825 153.431 324.05 154.389 324.5 155.222C324.967 156.056 325.592 156.706 326.375 157.172C327.175 157.622 328.075 157.847 329.075 157.847ZM334.35 158.872V154.597L334.575 152.322L334.325 150.047V140.322H335.575V158.872H334.35ZM340.845 158.872V145.822H342.095V158.872H340.845ZM341.47 142.647C341.187 142.647 340.945 142.547 340.745 142.347C340.545 142.147 340.445 141.914 340.445 141.647C340.445 141.364 340.545 141.122 340.745 140.922C340.945 140.722 341.187 140.622 341.47 140.622C341.77 140.622 342.012 140.722 342.195 140.922C342.395 141.106 342.495 141.339 342.495 141.622C342.495 141.906 342.395 142.147 342.195 142.347C342.012 142.547 341.77 142.647 341.47 142.647ZM358.81 158.972C357.593 158.972 356.493 158.697 355.51 158.147C354.543 157.581 353.776 156.797 353.21 155.797C352.643 154.797 352.36 153.647 352.36 152.347C352.36 151.031 352.643 149.881 353.21 148.897C353.776 147.897 354.543 147.122 355.51 146.572C356.493 146.006 357.593 145.722 358.81 145.722C359.96 145.722 360.993 145.989 361.91 146.522C362.843 147.056 363.576 147.814 364.11 148.797C364.66 149.781 364.935 150.964 364.935 152.347C364.935 153.697 364.668 154.872 364.135 155.872C363.601 156.872 362.868 157.639 361.935 158.172C361.018 158.706 359.976 158.972 358.81 158.972ZM358.885 157.847C359.885 157.847 360.776 157.622 361.56 157.172C362.36 156.706 362.985 156.056 363.435 155.222C363.901 154.389 364.135 153.431 364.135 152.347C364.135 151.247 363.901 150.289 363.435 149.472C362.985 148.639 362.36 147.997 361.56 147.547C360.776 147.081 359.885 146.847 358.885 146.847C357.885 146.847 356.985 147.081 356.185 147.547C355.401 147.997 354.776 148.639 354.31 149.472C353.86 150.289 353.635 151.247 353.635 152.347C353.635 153.431 353.86 154.389 354.31 155.222C354.776 156.056 355.401 156.706 356.185 157.172C356.985 157.622 357.885 157.847 358.885 157.847ZM364.16 158.872V154.597L364.385 152.322L364.135 150.047V140.322H365.385V158.872H364.16ZM378.88 158.872V155.897L378.83 155.447V150.547C378.83 149.331 378.497 148.406 377.83 147.772C377.18 147.139 376.222 146.822 374.955 146.822C374.055 146.822 373.213 146.981 372.43 147.297C371.663 147.597 371.005 147.989 370.455 148.472L369.83 147.572C370.48 146.989 371.263 146.539 372.18 146.222C373.097 145.889 374.055 145.722 375.055 145.722C376.672 145.722 377.913 146.131 378.78 146.947C379.647 147.764 380.08 148.981 380.08 150.597V158.872H378.88ZM374.18 158.972C373.213 158.972 372.372 158.822 371.655 158.522C370.955 158.206 370.413 157.764 370.03 157.197C369.663 156.631 369.48 155.981 369.48 155.247C369.48 154.581 369.63 153.981 369.93 153.447C370.247 152.897 370.763 152.456 371.48 152.122C372.197 151.772 373.155 151.597 374.355 151.597H379.155V152.572H374.38C373.03 152.572 372.08 152.822 371.53 153.322C370.997 153.822 370.73 154.447 370.73 155.197C370.73 156.031 371.047 156.697 371.68 157.197C372.313 157.697 373.205 157.947 374.355 157.947C375.455 157.947 376.38 157.697 377.13 157.197C377.897 156.697 378.463 155.972 378.83 155.022L379.18 155.872C378.83 156.822 378.23 157.581 377.38 158.147C376.547 158.697 375.48 158.972 374.18 158.972ZM385.23 158.872V140.322H386.48V158.872H385.23ZM399.974 158.872V155.897L399.924 155.447V150.547C399.924 149.331 399.59 148.406 398.924 147.772C398.274 147.139 397.315 146.822 396.049 146.822C395.149 146.822 394.307 146.981 393.524 147.297C392.757 147.597 392.099 147.989 391.549 148.472L390.924 147.572C391.574 146.989 392.357 146.539 393.274 146.222C394.19 145.889 395.149 145.722 396.149 145.722C397.765 145.722 399.007 146.131 399.874 146.947C400.74 147.764 401.174 148.981 401.174 150.597V158.872H399.974ZM395.274 158.972C394.307 158.972 393.465 158.822 392.749 158.522C392.049 158.206 391.507 157.764 391.124 157.197C390.757 156.631 390.574 155.981 390.574 155.247C390.574 154.581 390.724 153.981 391.024 153.447C391.34 152.897 391.857 152.456 392.574 152.122C393.29 151.772 394.249 151.597 395.449 151.597H400.249V152.572H395.474C394.124 152.572 393.174 152.822 392.624 153.322C392.09 153.822 391.824 154.447 391.824 155.197C391.824 156.031 392.14 156.697 392.774 157.197C393.407 157.697 394.299 157.947 395.449 157.947C396.549 157.947 397.474 157.697 398.224 157.197C398.99 156.697 399.557 155.972 399.924 155.022L400.274 155.872C399.924 156.822 399.324 157.581 398.474 158.147C397.64 158.697 396.574 158.972 395.274 158.972ZM422.574 145.722C423.624 145.722 424.532 145.931 425.299 146.347C426.082 146.747 426.69 147.364 427.124 148.197C427.557 149.014 427.774 150.031 427.774 151.247V158.872H426.524V151.347C426.524 149.881 426.165 148.764 425.449 147.997C424.732 147.231 423.732 146.847 422.449 146.847C421.465 146.847 420.615 147.056 419.899 147.472C419.182 147.889 418.632 148.472 418.249 149.222C417.865 149.972 417.674 150.872 417.674 151.922V158.872H416.424V151.347C416.424 149.881 416.065 148.764 415.349 147.997C414.632 147.231 413.632 146.847 412.349 146.847C411.365 146.847 410.515 147.056 409.799 147.472C409.082 147.889 408.532 148.472 408.149 149.222C407.765 149.972 407.574 150.872 407.574 151.922V158.872H406.324V145.822H407.524V149.422L407.349 149.022C407.732 148.006 408.374 147.206 409.274 146.622C410.174 146.022 411.257 145.722 412.524 145.722C413.824 145.722 414.915 146.056 415.799 146.722C416.699 147.372 417.265 148.347 417.499 149.647L417.074 149.472C417.424 148.356 418.082 147.456 419.049 146.772C420.015 146.072 421.19 145.722 422.574 145.722ZM440.306 155.272L440.331 153.697L448.956 145.822H450.556L444.831 151.197L444.081 151.822L440.306 155.272ZM439.356 158.872V140.322H440.606V158.872H439.356ZM449.556 158.872L443.856 151.722L444.706 150.797L451.106 158.872H449.556ZM462.034 158.872V155.897L461.984 155.447V150.547C461.984 149.331 461.651 148.406 460.984 147.772C460.334 147.139 459.376 146.822 458.109 146.822C457.209 146.822 456.368 146.981 455.584 147.297C454.818 147.597 454.159 147.989 453.609 148.472L452.984 147.572C453.634 146.989 454.418 146.539 455.334 146.222C456.251 145.889 457.209 145.722 458.209 145.722C459.826 145.722 461.068 146.131 461.934 146.947C462.801 147.764 463.234 148.981 463.234 150.597V158.872H462.034ZM457.334 158.972C456.368 158.972 455.526 158.822 454.809 158.522C454.109 158.206 453.568 157.764 453.184 157.197C452.818 156.631 452.634 155.981 452.634 155.247C452.634 154.581 452.784 153.981 453.084 153.447C453.401 152.897 453.918 152.456 454.634 152.122C455.351 151.772 456.309 151.597 457.509 151.597H462.309V152.572H457.534C456.184 152.572 455.234 152.822 454.684 153.322C454.151 153.822 453.884 154.447 453.884 155.197C453.884 156.031 454.201 156.697 454.834 157.197C455.468 157.697 456.359 157.947 457.509 157.947C458.609 157.947 459.534 157.697 460.284 157.197C461.051 156.697 461.618 155.972 461.984 155.022L462.334 155.872C461.984 156.822 461.384 157.581 460.534 158.147C459.701 158.697 458.634 158.972 457.334 158.972ZM470.69 158.872L465.74 145.822H466.94L471.54 158.172H471.015L475.74 145.822H476.815L481.515 158.172H480.965L485.64 145.822H486.79L481.84 158.872H480.665L476.065 147.022H476.465L471.84 158.872H470.69ZM497.532 158.872V155.897L497.482 155.447V150.547C497.482 149.331 497.149 148.406 496.482 147.772C495.832 147.139 494.874 146.822 493.607 146.822C492.707 146.822 491.866 146.981 491.082 147.297C490.316 147.597 489.657 147.989 489.107 148.472L488.482 147.572C489.132 146.989 489.916 146.539 490.832 146.222C491.749 145.889 492.707 145.722 493.707 145.722C495.324 145.722 496.566 146.131 497.432 146.947C498.299 147.764 498.732 148.981 498.732 150.597V158.872H497.532ZM492.832 158.972C491.866 158.972 491.024 158.822 490.307 158.522C489.607 158.206 489.066 157.764 488.682 157.197C488.316 156.631 488.132 155.981 488.132 155.247C488.132 154.581 488.282 153.981 488.582 153.447C488.899 152.897 489.416 152.456 490.132 152.122C490.849 151.772 491.807 151.597 493.007 151.597H497.807V152.572H493.032C491.682 152.572 490.732 152.822 490.182 153.322C489.649 153.822 489.382 154.447 489.382 155.197C489.382 156.031 489.699 156.697 490.332 157.197C490.966 157.697 491.857 157.947 493.007 157.947C494.107 157.947 495.032 157.697 495.782 157.197C496.549 156.697 497.116 155.972 497.482 155.022L497.832 155.872C497.482 156.822 496.882 157.581 496.032 158.147C495.199 158.697 494.132 158.972 492.832 158.972ZM507.182 158.972C506.099 158.972 505.082 158.814 504.132 158.497C503.199 158.181 502.474 157.781 501.957 157.297L502.532 156.297C503.032 156.731 503.699 157.106 504.532 157.422C505.366 157.722 506.266 157.872 507.232 157.872C508.599 157.872 509.582 157.647 510.182 157.197C510.782 156.747 511.082 156.156 511.082 155.422C511.082 154.889 510.924 154.472 510.607 154.172C510.307 153.856 509.899 153.614 509.382 153.447C508.866 153.281 508.299 153.147 507.682 153.047C507.066 152.931 506.449 152.806 505.832 152.672C505.216 152.539 504.649 152.347 504.132 152.097C503.616 151.847 503.199 151.506 502.882 151.072C502.582 150.622 502.432 150.031 502.432 149.297C502.432 148.631 502.616 148.031 502.982 147.497C503.349 146.964 503.899 146.539 504.632 146.222C505.366 145.889 506.282 145.722 507.382 145.722C508.199 145.722 509.016 145.839 509.832 146.072C510.666 146.306 511.341 146.614 511.857 146.997L511.282 147.997C510.732 147.581 510.116 147.281 509.432 147.097C508.749 146.914 508.057 146.822 507.357 146.822C506.091 146.822 505.157 147.056 504.557 147.522C503.974 147.989 503.682 148.572 503.682 149.272C503.682 149.822 503.832 150.264 504.132 150.597C504.449 150.914 504.866 151.164 505.382 151.347C505.899 151.514 506.466 151.656 507.082 151.772C507.699 151.872 508.316 151.989 508.932 152.122C509.549 152.256 510.116 152.447 510.632 152.697C511.149 152.931 511.557 153.264 511.857 153.697C512.174 154.114 512.332 154.681 512.332 155.397C512.332 156.114 512.132 156.739 511.732 157.272C511.349 157.806 510.774 158.222 510.007 158.522C509.241 158.822 508.299 158.972 507.182 158.972ZM524.046 158.872V155.897L523.996 155.447V150.547C523.996 149.331 523.663 148.406 522.996 147.772C522.346 147.139 521.388 146.822 520.121 146.822C519.221 146.822 518.379 146.981 517.596 147.297C516.829 147.597 516.171 147.989 515.621 148.472L514.996 147.572C515.646 146.989 516.429 146.539 517.346 146.222C518.263 145.889 519.221 145.722 520.221 145.722C521.838 145.722 523.079 146.131 523.946 146.947C524.813 147.764 525.246 148.981 525.246 150.597V158.872H524.046ZM519.346 158.972C518.379 158.972 517.538 158.822 516.821 158.522C516.121 158.206 515.579 157.764 515.196 157.197C514.829 156.631 514.646 155.981 514.646 155.247C514.646 154.581 514.796 153.981 515.096 153.447C515.413 152.897 515.929 152.456 516.646 152.122C517.363 151.772 518.321 151.597 519.521 151.597H524.321V152.572H519.546C518.196 152.572 517.246 152.822 516.696 153.322C516.163 153.822 515.896 154.447 515.896 155.197C515.896 156.031 516.213 156.697 516.846 157.197C517.479 157.697 518.371 157.947 519.521 157.947C520.621 157.947 521.546 157.697 522.296 157.197C523.063 156.697 523.629 155.972 523.996 155.022L524.346 155.872C523.996 156.822 523.396 157.581 522.546 158.147C521.713 158.697 520.646 158.972 519.346 158.972ZM536.771 145.722C537.838 145.722 538.763 145.931 539.546 146.347C540.346 146.747 540.963 147.364 541.396 148.197C541.846 149.014 542.071 150.031 542.071 151.247V158.872H540.821V151.347C540.821 149.881 540.446 148.764 539.696 147.997C538.963 147.231 537.929 146.847 536.596 146.847C535.579 146.847 534.696 147.056 533.946 147.472C533.196 147.889 532.621 148.472 532.221 149.222C531.838 149.972 531.646 150.872 531.646 151.922V158.872H530.396V145.822H531.596V149.447L531.421 149.047C531.821 148.014 532.479 147.206 533.396 146.622C534.313 146.022 535.438 145.722 536.771 145.722ZM547.067 158.972C546.784 158.972 546.534 158.872 546.317 158.672C546.117 158.456 546.017 158.197 546.017 157.897C546.017 157.597 546.117 157.347 546.317 157.147C546.534 156.947 546.784 156.847 547.067 156.847C547.351 156.847 547.592 156.947 547.792 157.147C548.009 157.347 548.117 157.597 548.117 157.897C548.117 158.197 548.009 158.456 547.792 158.672C547.592 158.872 547.351 158.972 547.067 158.972Z" fill="black"/>
<path d="M0.666934 103.916C0.620328 111.279 6.55196 117.286 13.9156 117.333C21.2793 117.38 27.2865 111.448 27.3331 104.084C27.3797 96.7207 21.448 90.7135 14.0844 90.6669C6.72074 90.6203 0.713539 96.552 0.666934 103.916ZM158.667 104.916C158.62 112.279 164.552 118.286 171.916 118.333C179.279 118.38 185.286 112.448 185.333 105.084C185.38 97.7207 179.448 91.7135 172.084 91.6669C164.721 91.6203 158.714 97.552 158.667 104.916ZM13.9842 106.5L171.984 107.5L172.016 102.5L14.0158 101.5L13.9842 106.5Z" fill="#81C2E0"/>
<defs>
<filter id="filter0_d_848_179" x="172" y="0" width="445" height="215" filterUnits="userSpaceOnUse" color-interpolation-filters="sRGB">
<feFlood flood-opacity="0" result="BackgroundImageFix"/>
<feColorMatrix in="SourceAlpha" type="matrix" values="0 0 0 0 0 0 0 0 0 0 0 0 0 0 0 0 0 0 127 0" result="hardAlpha"/>
<feOffset dx="10" dy="4"/>
<feGaussianBlur stdDeviation="2"/>
<feComposite in2="hardAlpha" operator="out"/>
<feColorMatrix type="matrix" values="0 0 0 0 0 0 0 0 0 0 0 0 0 0 0 0 0 0 0.25 0"/>
<feBlend mode="normal" in2="BackgroundImageFix" result="effect1_dropShadow_848_179"/>
<feBlend mode="normal" in="SourceGraphic" in2="effect1_dropShadow_848_179" result="shape"/>
</filter>
</defs>
</svg>
