<svg width="705" height="270" viewBox="0 0 705 270" fill="none" xmlns="http://www.w3.org/2000/svg">
<g filter="url(#filter0_d_848_178)">
<rect x="260" width="431" height="156" rx="20" fill="#F2F2F2"/>
</g>
<path d="M431.76 33V12H434.22L443.64 27.87H442.32L451.62 12H454.08L454.11 33H451.23L451.2 16.53H451.89L443.61 30.45H442.23L433.89 16.53H434.64V33H431.76ZM467.073 33.18C465.373 33.18 463.873 32.83 462.573 32.13C461.293 31.43 460.293 30.47 459.573 29.25C458.873 28.03 458.523 26.63 458.523 25.05C458.523 23.47 458.863 22.07 459.543 20.85C460.243 19.63 461.193 18.68 462.393 18C463.613 17.3 464.983 16.95 466.503 16.95C468.043 16.95 469.403 17.29 470.583 17.97C471.763 18.65 472.683 19.61 473.343 20.85C474.023 22.07 474.363 23.5 474.363 25.14C474.363 25.26 474.353 25.4 474.333 25.56C474.333 25.72 474.323 25.87 474.303 26.01H460.773V23.94H472.803L471.633 24.66C471.653 23.64 471.443 22.73 471.003 21.93C470.563 21.13 469.953 20.51 469.173 20.07C468.413 19.61 467.523 19.38 466.503 19.38C465.503 19.38 464.613 19.61 463.833 20.07C463.053 20.51 462.443 21.14 462.003 21.96C461.563 22.76 461.343 23.68 461.343 24.72V25.2C461.343 26.26 461.583 27.21 462.063 28.05C462.563 28.87 463.253 29.51 464.133 29.97C465.013 30.43 466.023 30.66 467.163 30.66C468.103 30.66 468.953 30.5 469.713 30.18C470.493 29.86 471.173 29.38 471.753 28.74L473.343 30.6C472.623 31.44 471.723 32.08 470.643 32.52C469.583 32.96 468.393 33.18 467.073 33.18ZM484.932 33.18C483.392 33.18 482.012 32.84 480.792 32.16C479.592 31.48 478.642 30.53 477.942 29.31C477.242 28.09 476.892 26.67 476.892 25.05C476.892 23.43 477.242 22.02 477.942 20.82C478.642 19.6 479.592 18.65 480.792 17.97C482.012 17.29 483.392 16.95 484.932 16.95C486.272 16.95 487.482 17.25 488.562 17.85C489.642 18.45 490.502 19.35 491.142 20.55C491.802 21.75 492.132 23.25 492.132 25.05C492.132 26.85 491.812 28.35 491.172 29.55C490.552 30.75 489.702 31.66 488.622 32.28C487.542 32.88 486.312 33.18 484.932 33.18ZM485.172 30.66C486.172 30.66 487.072 30.43 487.872 29.97C488.692 29.51 489.332 28.86 489.792 28.02C490.272 27.16 490.512 26.17 490.512 25.05C490.512 23.91 490.272 22.93 489.792 22.11C489.332 21.27 488.692 20.62 487.872 20.16C487.072 19.7 486.172 19.47 485.172 19.47C484.152 19.47 483.242 19.7 482.442 20.16C481.642 20.62 481.002 21.27 480.522 22.11C480.042 22.93 479.802 23.91 479.802 25.05C479.802 26.17 480.042 27.16 480.522 28.02C481.002 28.86 481.642 29.51 482.442 29.97C483.242 30.43 484.152 30.66 485.172 30.66ZM490.602 33V28.71L490.782 25.02L490.482 21.33V10.74H493.362V33H490.602ZM498.811 33V17.1H501.691V33H498.811ZM500.251 14.04C499.691 14.04 499.221 13.86 498.841 13.5C498.481 13.14 498.301 12.7 498.301 12.18C498.301 11.64 498.481 11.19 498.841 10.83C499.221 10.47 499.691 10.29 500.251 10.29C500.811 10.29 501.271 10.47 501.631 10.83C502.011 11.17 502.201 11.6 502.201 12.12C502.201 12.66 502.021 13.12 501.661 13.5C501.301 13.86 500.831 14.04 500.251 14.04ZM517.06 33V29.64L516.91 29.01V23.28C516.91 22.06 516.55 21.12 515.83 20.46C515.13 19.78 514.07 19.44 512.65 19.44C511.71 19.44 510.79 19.6 509.89 19.92C508.99 20.22 508.23 20.63 507.61 21.15L506.41 18.99C507.23 18.33 508.21 17.83 509.35 17.49C510.51 17.13 511.72 16.95 512.98 16.95C515.16 16.95 516.84 17.48 518.02 18.54C519.2 19.6 519.79 21.22 519.79 23.4V33H517.06ZM511.84 33.18C510.66 33.18 509.62 32.98 508.72 32.58C507.84 32.18 507.16 31.63 506.68 30.93C506.2 30.21 505.96 29.4 505.96 28.5C505.96 27.64 506.16 26.86 506.56 26.16C506.98 25.46 507.65 24.9 508.57 24.48C509.51 24.06 510.77 23.85 512.35 23.85H517.39V25.92H512.47C511.03 25.92 510.06 26.16 509.56 26.64C509.06 27.12 508.81 27.7 508.81 28.38C508.81 29.16 509.12 29.79 509.74 30.27C510.36 30.73 511.22 30.96 512.32 30.96C513.4 30.96 514.34 30.72 515.14 30.24C515.96 29.76 516.55 29.06 516.91 28.14L517.48 30.12C517.1 31.06 516.43 31.81 515.47 32.37C514.51 32.91 513.3 33.18 511.84 33.18Z" fill="black"/>
<path d="M303.269 91V73.5H304.344L312.469 87.525H311.894L319.994 73.5H321.044L321.069 91H319.819L319.794 75.425H320.144L312.469 88.675H311.844L304.144 75.425H304.519V91H303.269ZM332.07 91.1C330.753 91.1 329.587 90.8167 328.57 90.25C327.57 89.6833 326.778 88.9 326.195 87.9C325.628 86.9 325.345 85.7583 325.345 84.475C325.345 83.175 325.612 82.0333 326.145 81.05C326.695 80.05 327.445 79.2667 328.395 78.7C329.345 78.1333 330.412 77.85 331.595 77.85C332.778 77.85 333.837 78.125 334.77 78.675C335.72 79.225 336.462 80 336.995 81C337.545 81.9833 337.82 83.125 337.82 84.425C337.82 84.475 337.812 84.5333 337.795 84.6C337.795 84.65 337.795 84.7083 337.795 84.775H326.27V83.8H337.12L336.62 84.275C336.637 83.2583 336.42 82.35 335.97 81.55C335.537 80.7333 334.945 80.1 334.195 79.65C333.445 79.1833 332.578 78.95 331.595 78.95C330.628 78.95 329.762 79.1833 328.995 79.65C328.245 80.1 327.653 80.7333 327.22 81.55C326.787 82.35 326.57 83.2667 326.57 84.3V84.525C326.57 85.5917 326.803 86.5417 327.27 87.375C327.753 88.1917 328.412 88.8333 329.245 89.3C330.078 89.75 331.028 89.975 332.095 89.975C332.928 89.975 333.703 89.825 334.42 89.525C335.153 89.225 335.77 88.7667 336.27 88.15L336.995 88.975C336.428 89.675 335.712 90.2083 334.845 90.575C333.995 90.925 333.07 91.1 332.07 91.1ZM346.712 91.1C345.495 91.1 344.395 90.825 343.412 90.275C342.445 89.7083 341.679 88.925 341.112 87.925C340.545 86.925 340.262 85.775 340.262 84.475C340.262 83.1583 340.545 82.0083 341.112 81.025C341.679 80.025 342.445 79.25 343.412 78.7C344.395 78.1333 345.495 77.85 346.712 77.85C347.862 77.85 348.895 78.1167 349.812 78.65C350.745 79.1833 351.479 79.9417 352.012 80.925C352.562 81.9083 352.837 83.0917 352.837 84.475C352.837 85.825 352.57 87 352.037 88C351.504 89 350.77 89.7667 349.837 90.3C348.92 90.8333 347.879 91.1 346.712 91.1ZM346.787 89.975C347.787 89.975 348.679 89.75 349.462 89.3C350.262 88.8333 350.887 88.1833 351.337 87.35C351.804 86.5167 352.037 85.5583 352.037 84.475C352.037 83.375 351.804 82.4167 351.337 81.6C350.887 80.7667 350.262 80.125 349.462 79.675C348.679 79.2083 347.787 78.975 346.787 78.975C345.787 78.975 344.887 79.2083 344.087 79.675C343.304 80.125 342.679 80.7667 342.212 81.6C341.762 82.4167 341.537 83.375 341.537 84.475C341.537 85.5583 341.762 86.5167 342.212 87.35C342.679 88.1833 343.304 88.8333 344.087 89.3C344.887 89.75 345.787 89.975 346.787 89.975ZM352.062 91V86.725L352.287 84.45L352.037 82.175V72.45H353.287V91H352.062ZM358.557 91V77.95H359.807V91H358.557ZM359.182 74.775C358.899 74.775 358.657 74.675 358.457 74.475C358.257 74.275 358.157 74.0417 358.157 73.775C358.157 73.4917 358.257 73.25 358.457 73.05C358.657 72.85 358.899 72.75 359.182 72.75C359.482 72.75 359.724 72.85 359.907 73.05C360.107 73.2333 360.207 73.4667 360.207 73.75C360.207 74.0333 360.107 74.275 359.907 74.475C359.724 74.675 359.482 74.775 359.182 74.775ZM373.301 91V88.025L373.251 87.575V82.675C373.251 81.4583 372.917 80.5333 372.251 79.9C371.601 79.2667 370.642 78.95 369.376 78.95C368.476 78.95 367.634 79.1083 366.851 79.425C366.084 79.725 365.426 80.1167 364.876 80.6L364.251 79.7C364.901 79.1167 365.684 78.6667 366.601 78.35C367.517 78.0167 368.476 77.85 369.476 77.85C371.092 77.85 372.334 78.2583 373.201 79.075C374.067 79.8917 374.501 81.1083 374.501 82.725V91H373.301ZM368.601 91.1C367.634 91.1 366.792 90.95 366.076 90.65C365.376 90.3333 364.834 89.8917 364.451 89.325C364.084 88.7583 363.901 88.1083 363.901 87.375C363.901 86.7083 364.051 86.1083 364.351 85.575C364.667 85.025 365.184 84.5833 365.901 84.25C366.617 83.9 367.576 83.725 368.776 83.725H373.576V84.7H368.801C367.451 84.7 366.501 84.95 365.951 85.45C365.417 85.95 365.151 86.575 365.151 87.325C365.151 88.1583 365.467 88.825 366.101 89.325C366.734 89.825 367.626 90.075 368.776 90.075C369.876 90.075 370.801 89.825 371.551 89.325C372.317 88.825 372.884 88.1 373.251 87.15L373.601 88C373.251 88.95 372.651 89.7083 371.801 90.275C370.967 90.825 369.901 91.1 368.601 91.1ZM402.322 77.85C403.372 77.85 404.28 78.0583 405.047 78.475C405.83 78.875 406.439 79.4917 406.872 80.325C407.305 81.1417 407.522 82.1583 407.522 83.375V91H406.272V83.475C406.272 82.0083 405.914 80.8917 405.197 80.125C404.48 79.3583 403.48 78.975 402.197 78.975C401.214 78.975 400.364 79.1833 399.647 79.6C398.93 80.0167 398.38 80.6 397.997 81.35C397.614 82.1 397.422 83 397.422 84.05V91H396.172V83.475C396.172 82.0083 395.814 80.8917 395.097 80.125C394.38 79.3583 393.38 78.975 392.097 78.975C391.114 78.975 390.264 79.1833 389.547 79.6C388.83 80.0167 388.28 80.6 387.897 81.35C387.514 82.1 387.322 83 387.322 84.05V91H386.072V77.95H387.272V81.55L387.097 81.15C387.48 80.1333 388.122 79.3333 389.022 78.75C389.922 78.15 391.005 77.85 392.272 77.85C393.572 77.85 394.664 78.1833 395.547 78.85C396.447 79.5 397.014 80.475 397.247 81.775L396.822 81.6C397.172 80.4833 397.83 79.5833 398.797 78.9C399.764 78.2 400.939 77.85 402.322 77.85ZM420.908 91V88.025L420.858 87.575V82.675C420.858 81.4583 420.525 80.5333 419.858 79.9C419.208 79.2667 418.25 78.95 416.983 78.95C416.083 78.95 415.242 79.1083 414.458 79.425C413.692 79.725 413.033 80.1167 412.483 80.6L411.858 79.7C412.508 79.1167 413.292 78.6667 414.208 78.35C415.125 78.0167 416.083 77.85 417.083 77.85C418.7 77.85 419.942 78.2583 420.808 79.075C421.675 79.8917 422.108 81.1083 422.108 82.725V91H420.908ZM416.208 91.1C415.242 91.1 414.4 90.95 413.683 90.65C412.983 90.3333 412.442 89.8917 412.058 89.325C411.692 88.7583 411.508 88.1083 411.508 87.375C411.508 86.7083 411.658 86.1083 411.958 85.575C412.275 85.025 412.792 84.5833 413.508 84.25C414.225 83.9 415.183 83.725 416.383 83.725H421.183V84.7H416.408C415.058 84.7 414.108 84.95 413.558 85.45C413.025 85.95 412.758 86.575 412.758 87.325C412.758 88.1583 413.075 88.825 413.708 89.325C414.342 89.825 415.233 90.075 416.383 90.075C417.483 90.075 418.408 89.825 419.158 89.325C419.925 88.825 420.492 88.1 420.858 87.15L421.208 88C420.858 88.95 420.258 89.7083 419.408 90.275C418.575 90.825 417.508 91.1 416.208 91.1ZM430.558 91.1C429.475 91.1 428.458 90.9417 427.508 90.625C426.575 90.3083 425.85 89.9083 425.333 89.425L425.908 88.425C426.408 88.8583 427.075 89.2333 427.908 89.55C428.742 89.85 429.642 90 430.608 90C431.975 90 432.958 89.775 433.558 89.325C434.158 88.875 434.458 88.2833 434.458 87.55C434.458 87.0167 434.3 86.6 433.983 86.3C433.683 85.9833 433.275 85.7417 432.758 85.575C432.242 85.4083 431.675 85.275 431.058 85.175C430.442 85.0583 429.825 84.9333 429.208 84.8C428.592 84.6667 428.025 84.475 427.508 84.225C426.992 83.975 426.575 83.6333 426.258 83.2C425.958 82.75 425.808 82.1583 425.808 81.425C425.808 80.7583 425.992 80.1583 426.358 79.625C426.725 79.0917 427.275 78.6667 428.008 78.35C428.742 78.0167 429.658 77.85 430.758 77.85C431.575 77.85 432.392 77.9667 433.208 78.2C434.042 78.4333 434.717 78.7417 435.233 79.125L434.658 80.125C434.108 79.7083 433.492 79.4083 432.808 79.225C432.125 79.0417 431.433 78.95 430.733 78.95C429.467 78.95 428.533 79.1833 427.933 79.65C427.35 80.1167 427.058 80.7 427.058 81.4C427.058 81.95 427.208 82.3917 427.508 82.725C427.825 83.0417 428.242 83.2917 428.758 83.475C429.275 83.6417 429.842 83.7833 430.458 83.9C431.075 84 431.692 84.1167 432.308 84.25C432.925 84.3833 433.492 84.575 434.008 84.825C434.525 85.0583 434.933 85.3917 435.233 85.825C435.55 86.2417 435.708 86.8083 435.708 87.525C435.708 88.2417 435.508 88.8667 435.108 89.4C434.725 89.9333 434.15 90.35 433.383 90.65C432.617 90.95 431.675 91.1 430.558 91.1ZM442.497 91.1C441.414 91.1 440.397 90.9417 439.447 90.625C438.514 90.3083 437.789 89.9083 437.272 89.425L437.847 88.425C438.347 88.8583 439.014 89.2333 439.847 89.55C440.68 89.85 441.58 90 442.547 90C443.914 90 444.897 89.775 445.497 89.325C446.097 88.875 446.397 88.2833 446.397 87.55C446.397 87.0167 446.239 86.6 445.922 86.3C445.622 85.9833 445.214 85.7417 444.697 85.575C444.18 85.4083 443.614 85.275 442.997 85.175C442.38 85.0583 441.764 84.9333 441.147 84.8C440.53 84.6667 439.964 84.475 439.447 84.225C438.93 83.975 438.514 83.6333 438.197 83.2C437.897 82.75 437.747 82.1583 437.747 81.425C437.747 80.7583 437.93 80.1583 438.297 79.625C438.664 79.0917 439.214 78.6667 439.947 78.35C440.68 78.0167 441.597 77.85 442.697 77.85C443.514 77.85 444.33 77.9667 445.147 78.2C445.98 78.4333 446.655 78.7417 447.172 79.125L446.597 80.125C446.047 79.7083 445.43 79.4083 444.747 79.225C444.064 79.0417 443.372 78.95 442.672 78.95C441.405 78.95 440.472 79.1833 439.872 79.65C439.289 80.1167 438.997 80.7 438.997 81.4C438.997 81.95 439.147 82.3917 439.447 82.725C439.764 83.0417 440.18 83.2917 440.697 83.475C441.214 83.6417 441.78 83.7833 442.397 83.9C443.014 84 443.63 84.1167 444.247 84.25C444.864 84.3833 445.43 84.575 445.947 84.825C446.464 85.0583 446.872 85.3917 447.172 85.825C447.489 86.2417 447.647 86.8083 447.647 87.525C447.647 88.2417 447.447 88.8667 447.047 89.4C446.664 89.9333 446.089 90.35 445.322 90.65C444.555 90.95 443.614 91.1 442.497 91.1ZM459.36 91V88.025L459.31 87.575V82.675C459.31 81.4583 458.977 80.5333 458.31 79.9C457.66 79.2667 456.702 78.95 455.435 78.95C454.535 78.95 453.694 79.1083 452.91 79.425C452.144 79.725 451.485 80.1167 450.935 80.6L450.31 79.7C450.96 79.1167 451.744 78.6667 452.66 78.35C453.577 78.0167 454.535 77.85 455.535 77.85C457.152 77.85 458.394 78.2583 459.26 79.075C460.127 79.8917 460.56 81.1083 460.56 82.725V91H459.36ZM454.66 91.1C453.694 91.1 452.852 90.95 452.135 90.65C451.435 90.3333 450.894 89.8917 450.51 89.325C450.144 88.7583 449.96 88.1083 449.96 87.375C449.96 86.7083 450.11 86.1083 450.41 85.575C450.727 85.025 451.244 84.5833 451.96 84.25C452.677 83.9 453.635 83.725 454.835 83.725H459.635V84.7H454.86C453.51 84.7 452.56 84.95 452.01 85.45C451.477 85.95 451.21 86.575 451.21 87.325C451.21 88.1583 451.527 88.825 452.16 89.325C452.794 89.825 453.685 90.075 454.835 90.075C455.935 90.075 456.86 89.825 457.61 89.325C458.377 88.825 458.944 88.1 459.31 87.15L459.66 88C459.31 88.95 458.71 89.7083 457.86 90.275C457.027 90.825 455.96 91.1 454.66 91.1ZM475.431 91.1C474.348 91.1 473.331 90.9417 472.381 90.625C471.448 90.3083 470.723 89.9083 470.206 89.425L470.781 88.425C471.281 88.8583 471.948 89.2333 472.781 89.55C473.615 89.85 474.515 90 475.481 90C476.848 90 477.831 89.775 478.431 89.325C479.031 88.875 479.331 88.2833 479.331 87.55C479.331 87.0167 479.173 86.6 478.856 86.3C478.556 85.9833 478.148 85.7417 477.631 85.575C477.115 85.4083 476.548 85.275 475.931 85.175C475.315 85.0583 474.698 84.9333 474.081 84.8C473.465 84.6667 472.898 84.475 472.381 84.225C471.865 83.975 471.448 83.6333 471.131 83.2C470.831 82.75 470.681 82.1583 470.681 81.425C470.681 80.7583 470.865 80.1583 471.231 79.625C471.598 79.0917 472.148 78.6667 472.881 78.35C473.615 78.0167 474.531 77.85 475.631 77.85C476.448 77.85 477.265 77.9667 478.081 78.2C478.915 78.4333 479.59 78.7417 480.106 79.125L479.531 80.125C478.981 79.7083 478.365 79.4083 477.681 79.225C476.998 79.0417 476.306 78.95 475.606 78.95C474.34 78.95 473.406 79.1833 472.806 79.65C472.223 80.1167 471.931 80.7 471.931 81.4C471.931 81.95 472.081 82.3917 472.381 82.725C472.698 83.0417 473.115 83.2917 473.631 83.475C474.148 83.6417 474.715 83.7833 475.331 83.9C475.948 84 476.565 84.1167 477.181 84.25C477.798 84.3833 478.365 84.575 478.881 84.825C479.398 85.0583 479.806 85.3917 480.106 85.825C480.423 86.2417 480.581 86.8083 480.581 87.525C480.581 88.2417 480.381 88.8667 479.981 89.4C479.598 89.9333 479.023 90.35 478.256 90.65C477.49 90.95 476.548 91.1 475.431 91.1ZM489.37 91.1C488.053 91.1 486.887 90.8167 485.87 90.25C484.87 89.6833 484.078 88.9 483.495 87.9C482.928 86.9 482.645 85.7583 482.645 84.475C482.645 83.175 482.912 82.0333 483.445 81.05C483.995 80.05 484.745 79.2667 485.695 78.7C486.645 78.1333 487.712 77.85 488.895 77.85C490.078 77.85 491.137 78.125 492.07 78.675C493.02 79.225 493.762 80 494.295 81C494.845 81.9833 495.12 83.125 495.12 84.425C495.12 84.475 495.112 84.5333 495.095 84.6C495.095 84.65 495.095 84.7083 495.095 84.775H483.57V83.8H494.42L493.92 84.275C493.937 83.2583 493.72 82.35 493.27 81.55C492.837 80.7333 492.245 80.1 491.495 79.65C490.745 79.1833 489.878 78.95 488.895 78.95C487.928 78.95 487.062 79.1833 486.295 79.65C485.545 80.1 484.953 80.7333 484.52 81.55C484.087 82.35 483.87 83.2667 483.87 84.3V84.525C483.87 85.5917 484.103 86.5417 484.57 87.375C485.053 88.1917 485.712 88.8333 486.545 89.3C487.378 89.75 488.328 89.975 489.395 89.975C490.228 89.975 491.003 89.825 491.72 89.525C492.453 89.225 493.07 88.7667 493.57 88.15L494.295 88.975C493.728 89.675 493.012 90.2083 492.145 90.575C491.295 90.925 490.37 91.1 489.37 91.1ZM505.537 91.1C504.387 91.1 503.345 90.8333 502.412 90.3C501.495 89.7667 500.762 89 500.212 88C499.679 87 499.412 85.825 499.412 84.475C499.412 83.0917 499.679 81.9083 500.212 80.925C500.762 79.9417 501.495 79.1833 502.412 78.65C503.345 78.1167 504.387 77.85 505.537 77.85C506.77 77.85 507.87 78.1333 508.837 78.7C509.82 79.25 510.587 80.025 511.137 81.025C511.704 82.0083 511.987 83.1583 511.987 84.475C511.987 85.775 511.704 86.925 511.137 87.925C510.587 88.925 509.82 89.7083 508.837 90.275C507.87 90.825 506.77 91.1 505.537 91.1ZM498.987 91V72.45H500.237V82.175L499.987 84.45L500.187 86.725V91H498.987ZM505.462 89.975C506.462 89.975 507.362 89.75 508.162 89.3C508.962 88.8333 509.587 88.1833 510.037 87.35C510.504 86.5167 510.737 85.5583 510.737 84.475C510.737 83.375 510.504 82.4167 510.037 81.6C509.587 80.7667 508.962 80.125 508.162 79.675C507.362 79.2083 506.462 78.975 505.462 78.975C504.462 78.975 503.562 79.2083 502.762 79.675C501.979 80.125 501.354 80.7667 500.887 81.6C500.437 82.4167 500.212 83.375 500.212 84.475C500.212 85.5583 500.437 86.5167 500.887 87.35C501.354 88.1833 501.979 88.8333 502.762 89.3C503.562 89.75 504.462 89.975 505.462 89.975ZM524.033 91V88.025L523.983 87.575V82.675C523.983 81.4583 523.65 80.5333 522.983 79.9C522.333 79.2667 521.375 78.95 520.108 78.95C519.208 78.95 518.367 79.1083 517.583 79.425C516.817 79.725 516.158 80.1167 515.608 80.6L514.983 79.7C515.633 79.1167 516.417 78.6667 517.333 78.35C518.25 78.0167 519.208 77.85 520.208 77.85C521.825 77.85 523.067 78.2583 523.933 79.075C524.8 79.8917 525.233 81.1083 525.233 82.725V91H524.033ZM519.333 91.1C518.367 91.1 517.525 90.95 516.808 90.65C516.108 90.3333 515.567 89.8917 515.183 89.325C514.817 88.7583 514.633 88.1083 514.633 87.375C514.633 86.7083 514.783 86.1083 515.083 85.575C515.4 85.025 515.917 84.5833 516.633 84.25C517.35 83.9 518.308 83.725 519.508 83.725H524.308V84.7H519.533C518.183 84.7 517.233 84.95 516.683 85.45C516.15 85.95 515.883 86.575 515.883 87.325C515.883 88.1583 516.2 88.825 516.833 89.325C517.467 89.825 518.358 90.075 519.508 90.075C520.608 90.075 521.533 89.825 522.283 89.325C523.05 88.825 523.617 88.1 523.983 87.15L524.333 88C523.983 88.95 523.383 89.7083 522.533 90.275C521.7 90.825 520.633 91.1 519.333 91.1ZM535.808 95.95C534.625 95.95 533.5 95.7667 532.433 95.4C531.367 95.0333 530.5 94.525 529.833 93.875L530.508 92.925C531.158 93.525 531.933 93.9917 532.833 94.325C533.75 94.6583 534.733 94.825 535.783 94.825C537.533 94.825 538.817 94.4167 539.633 93.6C540.467 92.7833 540.883 91.5 540.883 89.75V86.125L541.133 84.175L540.933 82.225V77.95H542.133V89.6C542.133 91.7833 541.6 93.3833 540.533 94.4C539.483 95.4333 537.908 95.95 535.808 95.95ZM535.458 90.525C534.225 90.525 533.117 90.2583 532.133 89.725C531.167 89.175 530.392 88.425 529.808 87.475C529.242 86.5083 528.958 85.4083 528.958 84.175C528.958 82.925 529.242 81.825 529.808 80.875C530.392 79.925 531.167 79.1833 532.133 78.65C533.117 78.1167 534.225 77.85 535.458 77.85C536.642 77.85 537.7 78.1083 538.633 78.625C539.583 79.125 540.333 79.85 540.883 80.8C541.433 81.7333 541.708 82.8583 541.708 84.175C541.708 85.475 541.433 86.6 540.883 87.55C540.333 88.5 539.583 89.2333 538.633 89.75C537.7 90.2667 536.642 90.525 535.458 90.525ZM535.558 89.4C536.608 89.4 537.533 89.1833 538.333 88.75C539.133 88.3 539.758 87.6833 540.208 86.9C540.675 86.1 540.908 85.1917 540.908 84.175C540.908 83.1417 540.675 82.2333 540.208 81.45C539.758 80.6667 539.133 80.0583 538.333 79.625C537.533 79.1917 536.608 78.975 535.558 78.975C534.542 78.975 533.625 79.1917 532.808 79.625C532.008 80.0583 531.375 80.6667 530.908 81.45C530.458 82.2333 530.233 83.1417 530.233 84.175C530.233 85.1917 530.458 86.1 530.908 86.9C531.375 87.6833 532.008 88.3 532.808 88.75C533.625 89.1833 534.542 89.4 535.558 89.4ZM555.649 91V88.025L555.599 87.575V82.675C555.599 81.4583 555.266 80.5333 554.599 79.9C553.949 79.2667 552.991 78.95 551.724 78.95C550.824 78.95 549.983 79.1083 549.199 79.425C548.433 79.725 547.774 80.1167 547.224 80.6L546.599 79.7C547.249 79.1167 548.033 78.6667 548.949 78.35C549.866 78.0167 550.824 77.85 551.824 77.85C553.441 77.85 554.683 78.2583 555.549 79.075C556.416 79.8917 556.849 81.1083 556.849 82.725V91H555.649ZM550.949 91.1C549.983 91.1 549.141 90.95 548.424 90.65C547.724 90.3333 547.183 89.8917 546.799 89.325C546.433 88.7583 546.249 88.1083 546.249 87.375C546.249 86.7083 546.399 86.1083 546.699 85.575C547.016 85.025 547.533 84.5833 548.249 84.25C548.966 83.9 549.924 83.725 551.124 83.725H555.924V84.7H551.149C549.799 84.7 548.849 84.95 548.299 85.45C547.766 85.95 547.499 86.575 547.499 87.325C547.499 88.1583 547.816 88.825 548.449 89.325C549.083 89.825 549.974 90.075 551.124 90.075C552.224 90.075 553.149 89.825 553.899 89.325C554.666 88.825 555.233 88.1 555.599 87.15L555.949 88C555.599 88.95 554.999 89.7083 554.149 90.275C553.316 90.825 552.249 91.1 550.949 91.1ZM562 91V77.95H563.25V91H562ZM562.625 74.775C562.341 74.775 562.1 74.675 561.9 74.475C561.7 74.275 561.6 74.0417 561.6 73.775C561.6 73.4917 561.7 73.25 561.9 73.05C562.1 72.85 562.341 72.75 562.625 72.75C562.925 72.75 563.166 72.85 563.35 73.05C563.55 73.2333 563.65 73.4667 563.65 73.75C563.65 74.0333 563.55 74.275 563.35 74.475C563.166 74.675 562.925 74.775 562.625 74.775ZM591.189 77.85C592.239 77.85 593.147 78.0583 593.914 78.475C594.697 78.875 595.306 79.4917 595.739 80.325C596.172 81.1417 596.389 82.1583 596.389 83.375V91H595.139V83.475C595.139 82.0083 594.781 80.8917 594.064 80.125C593.347 79.3583 592.347 78.975 591.064 78.975C590.081 78.975 589.231 79.1833 588.514 79.6C587.797 80.0167 587.247 80.6 586.864 81.35C586.481 82.1 586.289 83 586.289 84.05V91H585.039V83.475C585.039 82.0083 584.681 80.8917 583.964 80.125C583.247 79.3583 582.247 78.975 580.964 78.975C579.981 78.975 579.131 79.1833 578.414 79.6C577.697 80.0167 577.147 80.6 576.764 81.35C576.381 82.1 576.189 83 576.189 84.05V91H574.939V77.95H576.139V81.55L575.964 81.15C576.347 80.1333 576.989 79.3333 577.889 78.75C578.789 78.15 579.872 77.85 581.139 77.85C582.439 77.85 583.531 78.1833 584.414 78.85C585.314 79.5 585.881 80.475 586.114 81.775L585.689 81.6C586.039 80.4833 586.697 79.5833 587.664 78.9C588.631 78.2 589.806 77.85 591.189 77.85ZM606.85 91.1C605.534 91.1 604.367 90.8167 603.35 90.25C602.35 89.6833 601.559 88.9 600.975 87.9C600.409 86.9 600.125 85.7583 600.125 84.475C600.125 83.175 600.392 82.0333 600.925 81.05C601.475 80.05 602.225 79.2667 603.175 78.7C604.125 78.1333 605.192 77.85 606.375 77.85C607.559 77.85 608.617 78.125 609.55 78.675C610.5 79.225 611.242 80 611.775 81C612.325 81.9833 612.6 83.125 612.6 84.425C612.6 84.475 612.592 84.5333 612.575 84.6C612.575 84.65 612.575 84.7083 612.575 84.775H601.05V83.8H611.9L611.4 84.275C611.417 83.2583 611.2 82.35 610.75 81.55C610.317 80.7333 609.725 80.1 608.975 79.65C608.225 79.1833 607.359 78.95 606.375 78.95C605.409 78.95 604.542 79.1833 603.775 79.65C603.025 80.1 602.434 80.7333 602 81.55C601.567 82.35 601.35 83.2667 601.35 84.3V84.525C601.35 85.5917 601.584 86.5417 602.05 87.375C602.534 88.1917 603.192 88.8333 604.025 89.3C604.859 89.75 605.809 89.975 606.875 89.975C607.709 89.975 608.484 89.825 609.2 89.525C609.934 89.225 610.55 88.7667 611.05 88.15L611.775 88.975C611.209 89.675 610.492 90.2083 609.625 90.575C608.775 90.925 607.85 91.1 606.85 91.1ZM621.492 91.1C620.276 91.1 619.176 90.825 618.192 90.275C617.226 89.7083 616.459 88.925 615.892 87.925C615.326 86.925 615.042 85.775 615.042 84.475C615.042 83.1583 615.326 82.0083 615.892 81.025C616.459 80.025 617.226 79.25 618.192 78.7C619.176 78.1333 620.276 77.85 621.492 77.85C622.642 77.85 623.676 78.1167 624.592 78.65C625.526 79.1833 626.259 79.9417 626.792 80.925C627.342 81.9083 627.617 83.0917 627.617 84.475C627.617 85.825 627.351 87 626.817 88C626.284 89 625.551 89.7667 624.617 90.3C623.701 90.8333 622.659 91.1 621.492 91.1ZM621.567 89.975C622.567 89.975 623.459 89.75 624.242 89.3C625.042 88.8333 625.667 88.1833 626.117 87.35C626.584 86.5167 626.817 85.5583 626.817 84.475C626.817 83.375 626.584 82.4167 626.117 81.6C625.667 80.7667 625.042 80.125 624.242 79.675C623.459 79.2083 622.567 78.975 621.567 78.975C620.567 78.975 619.667 79.2083 618.867 79.675C618.084 80.125 617.459 80.7667 616.992 81.6C616.542 82.4167 616.317 83.375 616.317 84.475C616.317 85.5583 616.542 86.5167 616.992 87.35C617.459 88.1833 618.084 88.8333 618.867 89.3C619.667 89.75 620.567 89.975 621.567 89.975ZM626.842 91V86.725L627.067 84.45L626.817 82.175V72.45H628.067V91H626.842ZM633.338 91V77.95H634.588V91H633.338ZM633.963 74.775C633.679 74.775 633.438 74.675 633.238 74.475C633.038 74.275 632.938 74.0417 632.938 73.775C632.938 73.4917 633.038 73.25 633.238 73.05C633.438 72.85 633.679 72.75 633.963 72.75C634.263 72.75 634.504 72.85 634.688 73.05C634.888 73.2333 634.988 73.4667 634.988 73.75C634.988 74.0333 634.888 74.275 634.688 74.475C634.504 74.675 634.263 74.775 633.963 74.775ZM648.081 91V88.025L648.031 87.575V82.675C648.031 81.4583 647.698 80.5333 647.031 79.9C646.381 79.2667 645.423 78.95 644.156 78.95C643.256 78.95 642.414 79.1083 641.631 79.425C640.864 79.725 640.206 80.1167 639.656 80.6L639.031 79.7C639.681 79.1167 640.464 78.6667 641.381 78.35C642.298 78.0167 643.256 77.85 644.256 77.85C645.873 77.85 647.114 78.2583 647.981 79.075C648.848 79.8917 649.281 81.1083 649.281 82.725V91H648.081ZM643.381 91.1C642.414 91.1 641.573 90.95 640.856 90.65C640.156 90.3333 639.614 89.8917 639.231 89.325C638.864 88.7583 638.681 88.1083 638.681 87.375C638.681 86.7083 638.831 86.1083 639.131 85.575C639.448 85.025 639.964 84.5833 640.681 84.25C641.398 83.9 642.356 83.725 643.556 83.725H648.356V84.7H643.581C642.231 84.7 641.281 84.95 640.731 85.45C640.198 85.95 639.931 86.575 639.931 87.325C639.931 88.1583 640.248 88.825 640.881 89.325C641.514 89.825 642.406 90.075 643.556 90.075C644.656 90.075 645.581 89.825 646.331 89.325C647.098 88.825 647.664 88.1 648.031 87.15L648.381 88C648.031 88.95 647.431 89.7083 646.581 90.275C645.748 90.825 644.681 91.1 643.381 91.1ZM431.477 121.1C430.327 121.1 429.285 120.833 428.352 120.3C427.435 119.767 426.702 119.008 426.152 118.025C425.619 117.025 425.352 115.842 425.352 114.475C425.352 113.108 425.619 111.933 426.152 110.95C426.702 109.95 427.435 109.183 428.352 108.65C429.285 108.117 430.327 107.85 431.477 107.85C432.71 107.85 433.81 108.133 434.777 108.7C435.76 109.25 436.527 110.025 437.077 111.025C437.644 112.025 437.927 113.175 437.927 114.475C437.927 115.775 437.644 116.925 437.077 117.925C436.527 118.925 435.76 119.708 434.777 120.275C433.81 120.825 432.71 121.1 431.477 121.1ZM424.927 125.85V107.95H426.127V112.225L425.927 114.5L426.177 116.775V125.85H424.927ZM431.402 119.975C432.402 119.975 433.302 119.75 434.102 119.3C434.902 118.833 435.527 118.183 435.977 117.35C436.444 116.517 436.677 115.558 436.677 114.475C436.677 113.375 436.444 112.417 435.977 111.6C435.527 110.767 434.902 110.125 434.102 109.675C433.302 109.208 432.402 108.975 431.402 108.975C430.402 108.975 429.502 109.208 428.702 109.675C427.919 110.125 427.294 110.767 426.827 111.6C426.377 112.417 426.152 113.375 426.152 114.475C426.152 115.558 426.377 116.517 426.827 117.35C427.294 118.183 427.919 118.833 428.702 119.3C429.502 119.75 430.402 119.975 431.402 119.975ZM441.797 121V107.95H442.997V111.525L442.872 111.125C443.239 110.075 443.855 109.267 444.722 108.7C445.589 108.133 446.672 107.85 447.972 107.85V109.075C447.922 109.075 447.872 109.075 447.822 109.075C447.772 109.058 447.722 109.05 447.672 109.05C446.222 109.05 445.089 109.508 444.272 110.425C443.455 111.325 443.047 112.583 443.047 114.2V121H441.797ZM456.394 121.1C455.144 121.1 454.027 120.817 453.044 120.25C452.077 119.683 451.302 118.9 450.719 117.9C450.152 116.9 449.869 115.758 449.869 114.475C449.869 113.175 450.152 112.033 450.719 111.05C451.302 110.05 452.077 109.267 453.044 108.7C454.027 108.133 455.144 107.85 456.394 107.85C457.644 107.85 458.761 108.133 459.744 108.7C460.727 109.267 461.502 110.05 462.069 111.05C462.636 112.033 462.919 113.175 462.919 114.475C462.919 115.758 462.636 116.9 462.069 117.9C461.502 118.9 460.727 119.683 459.744 120.25C458.761 120.817 457.644 121.1 456.394 121.1ZM456.394 119.975C457.394 119.975 458.294 119.75 459.094 119.3C459.894 118.833 460.519 118.183 460.969 117.35C461.419 116.517 461.644 115.558 461.644 114.475C461.644 113.375 461.419 112.417 460.969 111.6C460.519 110.767 459.894 110.125 459.094 109.675C458.294 109.208 457.394 108.975 456.394 108.975C455.394 108.975 454.494 109.208 453.694 109.675C452.911 110.125 452.286 110.767 451.819 111.6C451.369 112.417 451.144 113.375 451.144 114.475C451.144 115.558 451.369 116.517 451.819 117.35C452.286 118.183 452.911 118.833 453.694 119.3C454.494 119.75 455.394 119.975 456.394 119.975ZM483.047 107.85C484.097 107.85 485.005 108.058 485.772 108.475C486.555 108.875 487.164 109.492 487.597 110.325C488.03 111.142 488.247 112.158 488.247 113.375V121H486.997V113.475C486.997 112.008 486.639 110.892 485.922 110.125C485.205 109.358 484.205 108.975 482.922 108.975C481.939 108.975 481.089 109.183 480.372 109.6C479.655 110.017 479.105 110.6 478.722 111.35C478.339 112.1 478.147 113 478.147 114.05V121H476.897V113.475C476.897 112.008 476.539 110.892 475.822 110.125C475.105 109.358 474.105 108.975 472.822 108.975C471.839 108.975 470.989 109.183 470.272 109.6C469.555 110.017 469.005 110.6 468.622 111.35C468.239 112.1 468.047 113 468.047 114.05V121H466.797V107.95H467.997V111.55L467.822 111.15C468.205 110.133 468.847 109.333 469.747 108.75C470.647 108.15 471.73 107.85 472.997 107.85C474.297 107.85 475.389 108.183 476.272 108.85C477.172 109.5 477.739 110.475 477.972 111.775L477.547 111.6C477.897 110.483 478.555 109.583 479.522 108.9C480.489 108.2 481.664 107.85 483.047 107.85ZM498.508 121.1C497.258 121.1 496.142 120.817 495.158 120.25C494.192 119.683 493.417 118.9 492.833 117.9C492.267 116.9 491.983 115.758 491.983 114.475C491.983 113.175 492.267 112.033 492.833 111.05C493.417 110.05 494.192 109.267 495.158 108.7C496.142 108.133 497.258 107.85 498.508 107.85C499.758 107.85 500.875 108.133 501.858 108.7C502.842 109.267 503.617 110.05 504.183 111.05C504.75 112.033 505.033 113.175 505.033 114.475C505.033 115.758 504.75 116.9 504.183 117.9C503.617 118.9 502.842 119.683 501.858 120.25C500.875 120.817 499.758 121.1 498.508 121.1ZM498.508 119.975C499.508 119.975 500.408 119.75 501.208 119.3C502.008 118.833 502.633 118.183 503.083 117.35C503.533 116.517 503.758 115.558 503.758 114.475C503.758 113.375 503.533 112.417 503.083 111.6C502.633 110.767 502.008 110.125 501.208 109.675C500.408 109.208 499.508 108.975 498.508 108.975C497.508 108.975 496.608 109.208 495.808 109.675C495.025 110.125 494.4 110.767 493.933 111.6C493.483 112.417 493.258 113.375 493.258 114.475C493.258 115.558 493.483 116.517 493.933 117.35C494.4 118.183 495.025 118.833 495.808 119.3C496.608 119.75 497.508 119.975 498.508 119.975ZM512.211 121.1C511.128 121.1 510.111 120.942 509.161 120.625C508.228 120.308 507.503 119.908 506.986 119.425L507.561 118.425C508.061 118.858 508.728 119.233 509.561 119.55C510.395 119.85 511.295 120 512.261 120C513.628 120 514.611 119.775 515.211 119.325C515.811 118.875 516.111 118.283 516.111 117.55C516.111 117.017 515.953 116.6 515.636 116.3C515.336 115.983 514.928 115.742 514.411 115.575C513.895 115.408 513.328 115.275 512.711 115.175C512.095 115.058 511.478 114.933 510.861 114.8C510.245 114.667 509.678 114.475 509.161 114.225C508.645 113.975 508.228 113.633 507.911 113.2C507.611 112.75 507.461 112.158 507.461 111.425C507.461 110.758 507.645 110.158 508.011 109.625C508.378 109.092 508.928 108.667 509.661 108.35C510.395 108.017 511.311 107.85 512.411 107.85C513.228 107.85 514.045 107.967 514.861 108.2C515.695 108.433 516.37 108.742 516.886 109.125L516.311 110.125C515.761 109.708 515.145 109.408 514.461 109.225C513.778 109.042 513.086 108.95 512.386 108.95C511.12 108.95 510.186 109.183 509.586 109.65C509.003 110.117 508.711 110.7 508.711 111.4C508.711 111.95 508.861 112.392 509.161 112.725C509.478 113.042 509.895 113.292 510.411 113.475C510.928 113.642 511.495 113.783 512.111 113.9C512.728 114 513.345 114.117 513.961 114.25C514.578 114.383 515.145 114.575 515.661 114.825C516.178 115.058 516.586 115.392 516.886 115.825C517.203 116.242 517.361 116.808 517.361 117.525C517.361 118.242 517.161 118.867 516.761 119.4C516.378 119.933 515.803 120.35 515.036 120.65C514.27 120.95 513.328 121.1 512.211 121.1ZM520.85 121V107.95H522.1V121H520.85ZM521.475 104.775C521.191 104.775 520.95 104.675 520.75 104.475C520.55 104.275 520.45 104.042 520.45 103.775C520.45 103.492 520.55 103.25 520.75 103.05C520.95 102.85 521.191 102.75 521.475 102.75C521.775 102.75 522.016 102.85 522.2 103.05C522.4 103.233 522.5 103.467 522.5 103.75C522.5 104.033 522.4 104.275 522.2 104.475C522.016 104.675 521.775 104.775 521.475 104.775ZM527.218 121.1C526.935 121.1 526.685 121 526.468 120.8C526.268 120.583 526.168 120.325 526.168 120.025C526.168 119.725 526.268 119.475 526.468 119.275C526.685 119.075 526.935 118.975 527.218 118.975C527.502 118.975 527.743 119.075 527.943 119.275C528.16 119.475 528.268 119.725 528.268 120.025C528.268 120.325 528.16 120.583 527.943 120.8C527.743 121 527.502 121.1 527.218 121.1Z" fill="black"/>
<path d="M0.6667 255.97C0.650336 263.334 6.60659 269.317 13.9704 269.333C21.3341 269.35 27.3169 263.393 27.3333 256.03C27.3497 248.666 21.3934 242.683 14.0296 242.667C6.66585 242.65 0.683064 248.607 0.6667 255.97ZM13.9944 258.5L475.994 259.527L476.006 254.527L14.0056 253.5L13.9944 258.5Z" fill="#81C2E0"/>
<path d="M473.5 169.333C480.864 169.333 486.833 163.364 486.833 156C486.833 148.636 480.864 142.667 473.5 142.667C466.136 142.667 460.167 148.636 460.167 156C460.167 163.364 466.136 169.333 473.5 169.333ZM476 256V156H471V256H476Z" fill="#81C2E0"/>
<defs>
<filter id="filter0_d_848_178" x="260" y="0" width="445" height="164" filterUnits="userSpaceOnUse" color-interpolation-filters="sRGB">
<feFlood flood-opacity="0" result="BackgroundImageFix"/>
<feColorMatrix in="SourceAlpha" type="matrix" values="0 0 0 0 0 0 0 0 0 0 0 0 0 0 0 0 0 0 127 0" result="hardAlpha"/>
<feOffset dx="10" dy="4"/>
<feGaussianBlur stdDeviation="2"/>
<feComposite in2="hardAlpha" operator="out"/>
<feColorMatrix type="matrix" values="0 0 0 0 0 0 0 0 0 0 0 0 0 0 0 0 0 0 0.25 0"/>
<feBlend mode="normal" in2="BackgroundImageFix" result="effect1_dropShadow_848_178"/>
<feBlend mode="normal" in="SourceGraphic" in2="effect1_dropShadow_848_178" result="shape"/>
</filter>
</defs>
</svg>
